<?xml version="1.0" encoding="UTF-8" standalone="no"?>
<svg
   version="1.1"
   style="display: block;"
   viewBox="0 0 2048 2048"
   width="1024"
   height="1024"
   preserveAspectRatio="none"
   id="svg142"
   sodipodi:docname="jaycast-plain.svg"
   inkscape:version="1.4.2 (f4327f4, 2025-05-13)"
   inkscape:export-filename="jaycast-plain-export.png"
   inkscape:export-xdpi="14.66"
   inkscape:export-ydpi="14.66"
   xmlns:inkscape="http://www.inkscape.org/namespaces/inkscape"
   xmlns:sodipodi="http://sodipodi.sourceforge.net/DTD/sodipodi-0.dtd"
   xmlns:xlink="http://www.w3.org/1999/xlink"
   xmlns="http://www.w3.org/2000/svg"
   xmlns:svg="http://www.w3.org/2000/svg">
  <sodipodi:namedview
     id="namedview142"
     pagecolor="#ffffff"
     bordercolor="#666666"
     borderopacity="0"
     inkscape:showpageshadow="2"
     inkscape:pageopacity="0.0"
     inkscape:pagecheckerboard="true"
     inkscape:deskcolor="#d1d1d1"
     inkscape:zoom="0.82656915"
     inkscape:cx="259.50642"
     inkscape:cy="670.84526"
     inkscape:window-width="1750"
     inkscape:window-height="1211"
     inkscape:window-x="270"
     inkscape:window-y="150"
     inkscape:window-maximized="0"
     inkscape:current-layer="svg142"
     showborder="false"
     labelstyle="default" />
  <defs
     id="defs18">
    <linearGradient
       id="swatch145"
       inkscape:swatch="solid">
      <stop
         style="stop-color:#000000;stop-opacity:1;"
         offset="0"
         id="stop145" />
    </linearGradient>
    <linearGradient
       id="swatch144"
       inkscape:swatch="solid">
      <stop
         style="stop-color:#2b5c88;stop-opacity:1;"
         offset="0"
         id="stop144" />
    </linearGradient>
    <linearGradient
       id="swatch143"
       inkscape:swatch="solid">
      <stop
         style="stop-color:#000000;stop-opacity:1;"
         offset="0"
         id="stop143" />
    </linearGradient>
    <linearGradient
       id="swatch142"
       inkscape:swatch="solid">
      <stop
         style="stop-color:#296ba0;stop-opacity:1;"
         offset="0"
         id="stop142" />
    </linearGradient>
    <linearGradient
       id="Gradient1"
       gradientUnits="userSpaceOnUse"
       x1="1452.34"
       y1="1513.37"
       x2="1470.81"
       y2="1493.87">
      <stop
         class="stop0"
         offset="0"
         stop-opacity="1"
         stop-color="rgb(86,130,62)"
         id="stop1" />
      <stop
         class="stop1"
         offset="1"
         stop-opacity="1"
         stop-color="rgb(162,188,95)"
         id="stop2" />
    </linearGradient>
    <linearGradient
       id="Gradient2"
       gradientUnits="userSpaceOnUse"
       x1="739.41"
       y1="1205.71"
       x2="754.327"
       y2="1238.79">
      <stop
         class="stop0"
         offset="0"
         stop-opacity="1"
         stop-color="rgb(28,68,99)"
         id="stop3" />
      <stop
         class="stop1"
         offset="1"
         stop-opacity="1"
         stop-color="rgb(51,110,162)"
         id="stop4" />
    </linearGradient>
    <linearGradient
       id="Gradient3"
       gradientUnits="userSpaceOnUse"
       x1="1247.42"
       y1="1476.89"
       x2="1205.89"
       y2="1477.97">
      <stop
         class="stop0"
         offset="0"
         stop-opacity="1"
         stop-color="rgb(96,108,125)"
         id="stop5" />
      <stop
         class="stop1"
         offset="1"
         stop-opacity="1"
         stop-color="rgb(125,139,146)"
         id="stop6" />
    </linearGradient>
    <linearGradient
       id="Gradient4"
       gradientUnits="userSpaceOnUse"
       x1="1357.85"
       y1="1410.42"
       x2="1316.79"
       y2="1365.89">
      <stop
         class="stop0"
         offset="0"
         stop-opacity="1"
         stop-color="rgb(98,61,33)"
         id="stop7" />
      <stop
         class="stop1"
         offset="1"
         stop-opacity="1"
         stop-color="rgb(197,158,121)"
         id="stop8" />
    </linearGradient>
    <linearGradient
       id="Gradient5"
       gradientUnits="userSpaceOnUse"
       x1="544.387"
       y1="1497.14"
       x2="576.221"
       y2="1519.11">
      <stop
         class="stop0"
         offset="0"
         stop-opacity="1"
         stop-color="rgb(30,70,102)"
         id="stop9" />
      <stop
         class="stop1"
         offset="1"
         stop-opacity="1"
         stop-color="rgb(45,104,155)"
         id="stop10" />
    </linearGradient>
    <linearGradient
       id="Gradient6"
       gradientUnits="userSpaceOnUse"
       x1="934.109"
       y1="668.556"
       x2="968.092"
       y2="839.923">
      <stop
         class="stop0"
         offset="0"
         stop-opacity="1"
         stop-color="rgb(24,82,124)"
         id="stop11" />
      <stop
         class="stop1"
         offset="1"
         stop-opacity="1"
         stop-color="rgb(48,116,174)"
         id="stop12" />
    </linearGradient>
    <linearGradient
       id="Gradient7"
       gradientUnits="userSpaceOnUse"
       x1="1096.41"
       y1="294.545"
       x2="1086.81"
       y2="354.89">
      <stop
         class="stop0"
         offset="0"
         stop-opacity="1"
         stop-color="rgb(255,210,146)"
         id="stop13" />
      <stop
         class="stop1"
         offset="1"
         stop-opacity="1"
         stop-color="rgb(206,216,217)"
         id="stop14" />
    </linearGradient>
    <linearGradient
       id="Gradient8"
       gradientUnits="userSpaceOnUse"
       x1="1132.27"
       y1="681.594"
       x2="896.58"
       y2="339.637">
      <stop
         class="stop0"
         offset="0"
         stop-opacity="1"
         stop-color="rgb(40,141,191)"
         id="stop15" />
      <stop
         class="stop1"
         offset="1"
         stop-opacity="1"
         stop-color="rgb(25,176,218)"
         id="stop16" />
    </linearGradient>
    <linearGradient
       id="Gradient9"
       gradientUnits="userSpaceOnUse"
       x1="1715.81"
       y1="2232.01"
       x2="331.188"
       y2="-185.008">
      <stop
         class="stop0"
         offset="0"
         stop-opacity="1"
         stop-color="rgb(37,35,36)"
         id="stop17" />
      <stop
         class="stop1"
         offset="1"
         stop-opacity="1"
         stop-color="rgb(74,89,100)"
         id="stop18" />
    </linearGradient>
    <linearGradient
       inkscape:collect="always"
       xlink:href="#swatch142"
       id="linearGradient142"
       x1="1227.74"
       y1="657.0059"
       x2="1371.66"
       y2="657.0059"
       gradientUnits="userSpaceOnUse" />
    <linearGradient
       inkscape:collect="always"
       xlink:href="#swatch143"
       id="linearGradient143"
       x1="1227.74"
       y1="657.0059"
       x2="1371.66"
       y2="657.0059"
       gradientUnits="userSpaceOnUse" />
    <linearGradient
       inkscape:collect="always"
       xlink:href="#swatch144"
       id="linearGradient144"
       x1="1096.22"
       y1="620.4"
       x2="1348.37"
       y2="620.4"
       gradientUnits="userSpaceOnUse" />
    <linearGradient
       inkscape:collect="always"
       xlink:href="#swatch144"
       id="linearGradient145"
       x1="1096.22"
       y1="620.40002"
       x2="1348.37"
       y2="620.40002"
       gradientUnits="userSpaceOnUse" />
  </defs>
  <path
     fill="#fefefe"
     d="m 557.5,168.496 690.78,0.034 187.63,-0.06 c 47.17,-0.003 101.1,-2.535 146.72,6.531 69.11,13.199 132.86,46.26 183.47,95.135 72.19,70.05 110.46,164.723 110.9,264.925 0.33,75.142 0.03,150.308 0.03,225.454 l 0.05,449.425 0.02,200.84 c 0,52.12 2.85,109.24 -7.43,159.86 -14.04,72.3 -48.98,138.9 -100.49,191.54 -70.31,71.63 -166.07,115.84 -266.99,116.72 l -685.098,-0.01 -182.385,0.05 c -52.51,0.04 -111.872,2.99 -162.511,-8.21 C 401.201,1854.77 336.192,1819 284.727,1767.55 211.681,1695.53 170.682,1597.15 170.965,1494.57 L 170.95,816.949 170.952,623.46 c 0,-54.972 -2.805,-114.989 8.639,-168.464 14.45,-67.758 48.079,-129.932 96.878,-179.112 60.042,-60.612 139.56,-98.074 224.528,-105.777 18.862,-1.831 37.574,-1.589 56.503,-1.611 z"
     id="path19"
     style="display:none" />
  <path
     fill="#888b8d"
     d="m 405.233,1810.94 c -84.806,-40.61 -149.957,-113.31 -181.064,-202.05 -9.873,-27.76 -15.833,-56.77 -17.707,-86.18 -1.581,-24.46 -1.013,-51.1 -1.002,-75.73 l 0.053,-114.03 -0.023,-360.08 0.025,-303.063 -0.059,-89.536 c -0.036,-23.955 -0.452,-48.038 1.67,-71.911 3.515,-42.225 14.766,-83.445 33.19,-121.602 38.554,-77.839 106.411,-137.208 188.682,-165.08 26.09,-9.005 53.236,-14.592 80.761,-16.62 21.332,-1.362 48.732,-0.64 70.564,-0.635 l 121.009,0.036 377.328,-0.007 308.78,0.009 95.64,-0.003 c 19.52,0.002 44.23,-0.555 63.45,1.211 39.11,3.911 77.2,14.837 112.45,32.255 78.05,38.367 137.54,106.345 165.21,188.804 9.43,28.576 15.19,58.237 17.13,88.268 1.71,26.053 1.14,54.994 1.15,81.372 l 0.04,121.287 0.02,368.275 -0.07,285.01 0.09,95.84 c -0.08,74.88 -2.83,118.83 -37.46,187.59 -42.45,82.34 -115.62,144.66 -203.67,173.46 -65.93,21.61 -127.64,16.56 -195.86,16.53 l -213.53,-0.03 H 883.657 c -51.134,0 -110.383,1.48 -160.956,-0.26 l -25.507,-0.17 c -16.76,0.54 -36.059,0.07 -53.021,0.06 -8.946,0.08 -18.056,-0.06 -27.018,-0.1 l -51.219,0.27 c -8.864,0.03 -24.423,0.34 -32.831,-1.04 l -1.74,-0.05 c -21.053,0.45 -59.115,-7.75 -79.044,-14.45 -5.089,-0.99 -18.507,-5.94 -24.374,-7.73 -7.59,-3.26 -15.161,-6.57 -22.714,-9.92 z"
     id="path20"
     style="display:none" />
  <path
     fill="rgb(0,0,0)"
     d="M 754.338 440.462 C 751.137 423.398 752.916 411.939 762.86 397.493 C 803.909 337.863 928.117 292.213 997.848 279.895 C 1074.17 266.414 1153.76 270.87 1225.28 302.516 C 1242.17 309.987 1257.09 319.892 1273.38 328.292 C 1281.32 332.389 1290.05 330.484 1297.96 334.959 C 1310.64 342.136 1322.59 350.962 1334.85 358.87 C 1357.6 373.539 1380.51 387.488 1404.41 400.216 C 1437.07 417.607 1470.32 433.223 1503.5 449.522 C 1515.38 455.357 1529.28 460.038 1540.1 467.618 C 1545.98 471.74 1549.97 477.396 1551.31 484.516 C 1552.75 492.213 1551.13 500.503 1546.49 506.837 C 1532.31 526.188 1454.57 546.469 1428.32 555.812 C 1425.61 576.375 1419.22 586.663 1402.7 599.297 C 1393.22 606.627 1382.76 612.598 1371.63 617.037 C 1383.72 639.274 1389.1 654.936 1394.72 679.589 C 1445.77 690.482 1511.86 706.289 1542.28 753.31 C 1546.15 759.362 1549.53 765.714 1552.39 772.306 L 1521.42 772.937 C 1488.19 795.155 1454.46 813.394 1414.86 821.073 C 1385.46 826.775 1376.57 820.722 1354.41 844.955 C 1330.81 870.768 1318.72 892.361 1311.91 926.849 L 1311.36 929.72 C 1325.2 956.876 1315.4 982.299 1304.26 1008.44 C 1311.32 1015.48 1314.79 1020.71 1314.2 1031.37 C 1313.55 1043.22 1309.6 1059.12 1306.88 1070.76 C 1288.72 1147.36 1248.13 1216.8 1190.28 1270.2 C 1170.88 1288.29 1149.81 1304.5 1127.34 1318.6 C 1110.9 1328.8 1088.03 1338.44 1078.21 1354.72 C 1094.82 1362.8 1111.32 1371.1 1127.71 1379.62 C 1136.23 1383.99 1147.89 1390.76 1156.45 1393.61 C 1176.14 1400.15 1198.59 1393.24 1218.12 1403.65 C 1222.37 1405.92 1231.41 1409.75 1232.96 1414.78 C 1255.62 1405.38 1299.31 1387.37 1316.4 1370.89 C 1320.71 1366.74 1335.56 1344.76 1341.64 1337.3 C 1347.43 1330.19 1363.08 1313.62 1366.76 1307.66 C 1366.98 1299.78 1363.01 1294.45 1358.4 1288.43 C 1320.95 1239.61 1336.5 1185.41 1379.41 1144.41 C 1381.93 1142.05 1384.52 1139.77 1387.19 1137.58 C 1422.6 1170.62 1439.31 1226.68 1411.46 1269.24 C 1407.33 1275.56 1403.24 1280.8 1398.46 1286.64 C 1409.98 1280.45 1431.28 1270.73 1438.5 1259.41 C 1440.29 1256.6 1436.61 1236.85 1436.39 1231.89 C 1433.38 1163.65 1483.69 1122.07 1547.08 1110.34 C 1560.01 1173.06 1551.87 1240.48 1482.06 1264.04 C 1474.87 1266.47 1464.94 1268.55 1457.84 1271.78 C 1436.72 1286.86 1404.62 1333.28 1394.62 1354.99 C 1429.93 1345.2 1464.19 1334.81 1500.37 1328.52 C 1505.66 1327.6 1511.56 1326.29 1516.68 1324.67 C 1522.98 1317.99 1528.6 1310.85 1534.92 1304.17 C 1580.74 1255.73 1651.17 1269.64 1697.76 1309.92 C 1675.25 1338.17 1641.43 1367.42 1604.3 1370.91 C 1573.62 1373.79 1558.11 1367.6 1532.05 1354.18 C 1504.38 1367.2 1467.68 1383.59 1441.45 1397.87 C 1450.5 1398.84 1459.57 1399.71 1468.64 1400.48 C 1473.52 1398.2 1478.46 1395.83 1483.21 1393.21 C 1507.2 1379.96 1535.21 1374.26 1561.64 1383.95 C 1593.92 1395.78 1608.86 1415.87 1623.06 1446.12 C 1579.29 1471.58 1525.48 1477.09 1486.58 1438.53 C 1480.85 1432.86 1475.31 1425.45 1469.95 1419.23 C 1398.76 1412.42 1407.69 1413.76 1346.11 1450.13 C 1362.13 1453.3 1376.6 1457.86 1392.31 1461.41 C 1397.99 1462.69 1416.1 1458.39 1422.91 1458.24 C 1482.97 1456.92 1512.77 1504.96 1519.51 1558.4 C 1486.5 1564.82 1453.1 1565.61 1423.8 1546 C 1398.91 1529.35 1390.54 1508.9 1381.21 1481.83 C 1350.99 1472.45 1317.17 1466.51 1288.81 1483.51 L 1269.36 1493.03 C 1262.6 1535.08 1245.7 1526.98 1217.37 1542.46 C 1190.4 1557.2 1180.17 1575.04 1149.21 1548.5 C 1119.52 1560.83 1076.73 1582.6 1048.41 1592.6 C 1046.49 1602.8 1044.74 1607.72 1038.43 1616.51 C 1032.67 1624.52 1016.79 1632.51 1007.01 1629.77 C 1005.66 1626.5 1006.38 1626.27 1006.98 1622.12 C 1007.69 1622.17 989.617 1630.78 985.807 1631.98 C 970.834 1654.94 947.439 1665.58 923.901 1647.27 C 916.284 1650.68 909.832 1653.93 902.423 1657.79 C 883.641 1665.88 862.353 1678.19 846.59 1691.23 C 877.43 1687.46 909.009 1696.06 934.804 1713.08 C 898.807 1774.13 845.305 1799.97 778.378 1771.4 C 760.208 1793.97 740.739 1822.87 722.701 1844.07 L 697.194 1843.9 C 680.434 1844.44 661.135 1843.97 644.173 1843.96 C 635.227 1844.04 626.117 1843.9 617.155 1843.86 L 565.936 1844.13 C 557.072 1844.16 541.513 1844.47 533.105 1843.09 L 531.365 1843.04 C 510.312 1843.49 472.25 1835.29 452.321 1828.59 C 447.232 1827.6 433.814 1822.65 427.947 1820.86 C 420.357 1817.6 412.786 1814.29 405.233 1810.94 C 409.359 1807.19 421.902 1799.31 426.905 1796.06 C 440.877 1787.13 454.762 1778.07 468.559 1768.87 C 498.101 1749.03 526.901 1727.35 557.017 1708.77 C 580.419 1695.95 604.304 1693.87 625.417 1676.37 C 649.697 1656.26 670.585 1637.04 691.145 1612.95 C 650.712 1559.27 670.802 1507.07 708.532 1459.25 C 721.184 1468.33 732.086 1479.62 740.708 1492.59 C 757.903 1518.95 761.296 1538.99 755.093 1568.84 C 772.304 1559.83 795.021 1554.72 814.067 1549.33 C 804.629 1521.52 825.378 1497.4 848.066 1484.67 C 838.594 1468.26 820.442 1441.56 809.424 1425.5 C 793.906 1402.88 782.525 1399.9 774.108 1369.22 C 754.793 1377.06 729.247 1383.37 708.868 1389.92 C 665.518 1452.19 576.645 1626.02 516.818 1662.1 C 489.525 1678.57 460.935 1683.14 429.995 1675.61 C 398.255 1693.34 357.786 1706.32 326.781 1677.79 C 296.105 1649.58 312.911 1598.01 330.895 1567.51 C 348.081 1538.36 372.353 1511.01 394.687 1485.1 C 431.754 1442.12 469.92 1400.1 509.148 1359.08 C 496.756 1362.37 484.345 1365.58 471.915 1368.72 C 496.591 1301.63 535.096 1212.36 576.019 1155.56 C 585.656 1142.18 595.939 1129.28 606.829 1116.9 C 613.256 1109.65 630.723 1091.79 634.642 1084.52 C 674.069 1011.35 720.89 941.347 790.028 892.994 C 797.789 887.566 827.651 867.825 835.507 869.163 C 842.24 854.176 850.69 816.629 854.676 799.851 L 845.993 791.677 C 786.947 814.471 749.697 753.083 733.578 705.85 C 730.136 695.765 723.137 678.045 725.992 668.1 C 730.529 652.291 726.554 641.336 724.799 625.305 C 723.735 615.585 722.589 605.091 721.402 595.305 C 719.455 580.395 710.536 579.637 710.764 563.285 C 711.048 542.91 714.22 516.666 721.857 497.655 C 725.263 489.175 731.626 483.364 738.841 478.612 C 743.915 464.733 748.369 454.014 754.338 440.462 z"
     id="path21"
     transform="translate(0,0)" />
  <path
     fill="rgb(130,91,58)"
     d="M 863.868 1555.23 C 869.617 1558.22 876.016 1560.04 882.202 1562.08 C 893.463 1563.64 906.649 1578.84 912.11 1588.41 C 879.755 1605.38 840.501 1620.75 812.757 1645.15 C 806.529 1650.62 797.118 1662.97 791.655 1669.9 C 778.151 1675.69 741.071 1715.37 732.902 1726.89 C 730.823 1727.11 731.535 1727.45 730.542 1726.77 C 725.48 1741.81 719.153 1759.12 709.256 1771.71 C 689.41 1796.96 665.635 1820.09 644.173 1843.96 C 635.227 1844.04 626.117 1843.9 617.155 1843.86 L 565.936 1844.13 C 557.072 1844.16 541.513 1844.47 533.105 1843.09 L 531.365 1843.04 C 510.312 1843.49 472.25 1835.29 452.321 1828.59 C 447.232 1827.6 433.814 1822.65 427.947 1820.86 C 432.067 1817.44 449.213 1806.98 454.833 1803.33 C 472.98 1791.44 491.045 1779.44 509.027 1767.31 C 528.332 1754.26 550.006 1736.65 568.993 1725.3 C 590.588 1715.28 608.595 1713.27 628.936 1699.88 C 672.971 1670.92 705.529 1619.53 751.251 1594.4 C 781.361 1577.86 830.192 1565.14 863.868 1555.23 z"
     id="path22"
     transform="translate(0,0)" />
  <path
     fill="rgb(197,154,112)"
     d="M 863.868 1555.23 C 869.617 1558.22 876.016 1560.04 882.202 1562.08 L 880.658 1562.86 C 844.247 1580.94 791.701 1589.66 758.073 1610.16 C 720.408 1633.12 688.122 1673.04 650.731 1699.82 C 658.346 1698.52 691.888 1691.51 696.296 1691.52 C 681.803 1701.75 669.769 1707.62 654.04 1715.72 C 589.008 1720.62 517.717 1795.27 461.376 1826.51 C 459.562 1827.51 455.16 1827.38 453.048 1827.31 L 452.321 1828.59 C 447.232 1827.6 433.814 1822.65 427.947 1820.86 C 432.067 1817.44 449.213 1806.98 454.833 1803.33 C 472.98 1791.44 491.045 1779.44 509.027 1767.31 C 528.332 1754.26 550.006 1736.65 568.993 1725.3 C 590.588 1715.28 608.595 1713.27 628.936 1699.88 C 672.971 1670.92 705.529 1619.53 751.251 1594.4 C 781.361 1577.86 830.192 1565.14 863.868 1555.23 z"
     id="path23"
     transform="translate(0,0)" />
  <path
     fill="rgb(92,62,46)"
     d="M 649.739 1766.53 C 653.665 1762.82 663.379 1755.48 668.087 1751.62 C 692.131 1731.91 721.329 1710.4 741.373 1686.33 C 740.252 1691.15 739.753 1694.57 737.41 1698.95 C 735.404 1708.29 733.113 1717.57 730.542 1726.77 C 725.48 1741.81 719.153 1759.12 709.256 1771.71 C 689.41 1796.96 665.635 1820.09 644.173 1843.96 C 635.227 1844.04 626.117 1843.9 617.155 1843.86 L 565.936 1844.13 C 557.072 1844.16 541.513 1844.47 533.105 1843.09 L 531.365 1843.04 C 534.362 1840.08 550.372 1828.99 554.543 1826.21 C 584.355 1806.4 617.727 1781.56 649.739 1766.53 z"
     id="path24"
     transform="translate(0,0)" />
  <path
     fill="rgb(0,0,0)"
     d="M 617.155 1843.86 C 617.009 1844.33 684.137 1773.53 691.089 1767.73 C 707.519 1754.01 728.928 1704.65 737.41 1698.95 C 735.404 1708.29 733.113 1717.57 730.542 1726.77 C 725.48 1741.81 719.153 1759.12 709.256 1771.71 C 689.41 1796.96 665.635 1820.09 644.173 1843.96 C 635.227 1844.04 626.117 1843.9 617.155 1843.86 z"
     id="path25"
     transform="translate(0,0)" />
  <path
     fill="rgb(0,0,0)"
     d="M 649.739 1766.53 L 650.145 1768.01 C 641.233 1779.7 625.001 1794.15 613.904 1804.63 C 600.546 1817.19 587.57 1830.16 574.992 1843.5 C 562.481 1843.25 545.227 1842.44 533.105 1843.09 L 531.365 1843.04 C 534.362 1840.08 550.372 1828.99 554.543 1826.21 C 584.355 1806.4 617.727 1781.56 649.739 1766.53 z"
     id="path26"
     transform="translate(0,0)" />
  <path
     fill="rgb(0,0,0)"
     d="M 696.296 1691.52 C 726.481 1673.02 747.394 1641.07 775.008 1620.6 C 796.352 1604.77 835.133 1596.68 861.119 1588.64 C 830.315 1609.03 798.506 1618.02 769.602 1640.57 C 740.806 1663.04 717.506 1696.57 688.453 1717.95 C 680.697 1723.66 655.768 1734.55 645.467 1740.12 C 616.35 1756.06 587.629 1772.72 559.33 1790.08 C 590.011 1758.52 618.29 1739.54 654.04 1715.72 C 669.769 1707.62 681.803 1701.75 696.296 1691.52 z"
     id="path27"
     transform="translate(0,0)" />
  <path
     fill="rgb(254,254,254)"
     d="M 471.915 1368.72 C 496.591 1301.63 535.096 1212.36 576.019 1155.56 C 585.656 1142.18 595.939 1129.28 606.829 1116.9 C 613.256 1109.65 630.723 1091.79 634.642 1084.52 C 674.069 1011.35 720.89 941.347 790.028 892.994 C 797.789 887.566 827.651 867.825 835.507 869.163 C 822.938 901.264 812.12 901.47 787.105 921.47 C 767.335 937.566 749.03 955.384 732.407 974.714 C 711.959 998.604 693.69 1024.28 677.818 1051.42 C 672.73 1060.27 658.244 1089.08 653.611 1095.16 C 639.535 1113.63 620.965 1131.17 605.822 1150.86 C 562.067 1207.73 531.375 1271.13 507.563 1338.59 L 574.248 1320.5 C 565.892 1327.84 556.241 1339.02 548.455 1347.5 L 512.237 1386.67 C 476.615 1425.08 440.649 1462.84 406.632 1503.36 C 376.033 1540.64 336.643 1579.87 331.078 1630.11 C 330.055 1639.34 332.75 1654.49 339.372 1660.7 C 367.181 1686.78 404.83 1666.54 428.894 1651.1 C 525.515 1692.89 590.547 1529.31 634.641 1469.67 C 642.409 1459.17 649.009 1445.24 656.551 1434.36 C 669.107 1413.05 683.414 1392.43 695.398 1370.85 C 728.541 1361.98 758.493 1353.83 790.633 1341.18 C 790.031 1360.17 795.412 1378.62 808.454 1392.5 C 812.632 1396.94 819.6 1403.15 822.858 1408.02 C 840.059 1433.73 856.428 1460.06 873.688 1485.76 C 876.377 1489.76 879.246 1494.52 881.234 1498.89 C 851.985 1499.58 833.795 1512.9 831.94 1543.23 C 826.025 1545.39 820.066 1547.42 814.067 1549.33 C 804.629 1521.52 825.378 1497.4 848.066 1484.67 C 838.594 1468.26 820.442 1441.56 809.424 1425.5 C 793.906 1402.88 782.525 1399.9 774.108 1369.22 C 754.793 1377.06 729.247 1383.37 708.868 1389.92 C 665.518 1452.19 576.645 1626.02 516.818 1662.1 C 489.525 1678.57 460.935 1683.14 429.995 1675.61 C 398.255 1693.34 357.786 1706.32 326.781 1677.79 C 296.105 1649.58 312.911 1598.01 330.895 1567.51 C 348.081 1538.36 372.353 1511.01 394.687 1485.1 C 431.754 1442.12 469.92 1400.1 509.148 1359.08 C 496.756 1362.37 484.345 1365.58 471.915 1368.72 z"
     id="path28"
     transform="translate(0,0)" />
  <path
     fill="rgb(254,254,254)"
     d="M 1304.26 1008.44 C 1311.32 1015.48 1314.79 1020.71 1314.2 1031.37 C 1313.55 1043.22 1309.6 1059.12 1306.88 1070.76 C 1288.72 1147.36 1248.13 1216.8 1190.28 1270.2 C 1170.88 1288.29 1149.81 1304.5 1127.34 1318.6 C 1110.9 1328.8 1088.03 1338.44 1078.21 1354.72 C 1094.82 1362.8 1111.32 1371.1 1127.71 1379.62 C 1136.23 1383.99 1147.89 1390.76 1156.45 1393.61 C 1176.14 1400.15 1198.59 1393.24 1218.12 1403.65 C 1222.37 1405.92 1231.41 1409.75 1232.96 1414.78 C 1225.81 1418.11 1220.76 1419.92 1213.25 1422.49 C 1193.89 1417.74 1178.58 1417.09 1158.95 1416.58 C 1154.15 1416.46 1146.02 1412.02 1141.52 1409.69 C 1111.34 1394.14 1080.32 1379.82 1050.45 1363.7 C 1059.59 1350.14 1066.03 1337.78 1074.38 1323.86 C 1173.23 1272.82 1241.13 1203.33 1277.64 1096.41 C 1281.7 1084.32 1285 1071.98 1287.51 1059.47 C 1289.84 1047.76 1291.79 1035.5 1295.04 1024.02 C 1296.35 1019.4 1301.62 1013 1304.26 1008.44 z"
     id="path29"
     transform="translate(0,0)" />
  <path
     fill="rgb(92,62,46)"
     d="M 762.462 1740.95 L 762.973 1740.23 C 776.089 1721.5 788.461 1697.03 802.235 1677.64 C 833.202 1634.03 888.164 1612.82 935.874 1592.17 C 936.978 1599.93 938.121 1607.68 939.303 1615.43 L 938.092 1616.17 C 891.02 1644.62 841.21 1652.88 803.667 1701.49 C 774.607 1739.11 746.787 1777.46 717.618 1814.98 C 714.218 1819.2 697.84 1839.93 697.194 1843.9 C 680.434 1844.44 661.135 1843.97 644.173 1843.96 C 665.635 1820.09 689.41 1796.96 709.256 1771.71 C 719.153 1759.12 725.48 1741.81 730.542 1726.77 C 731.535 1727.45 730.823 1727.11 732.902 1726.89 C 741.071 1715.37 778.151 1675.69 791.655 1669.9 C 778.326 1694.47 769.262 1713.57 762.462 1740.95 z"
     id="path30"
     transform="translate(0,0)" />
  <path
     fill="rgb(92,62,46)"
     d="M 863.868 1555.23 C 878.229 1550.39 891.072 1544.98 905.9 1552.48 C 916.273 1557.73 926.744 1569.85 932.02 1580.14 C 925.129 1582.24 918.461 1585.01 912.11 1588.41 C 906.649 1578.84 893.463 1563.64 882.202 1562.08 C 876.016 1560.04 869.617 1558.22 863.868 1555.23 z"
     id="path31"
     transform="translate(0,0)" />
  <path
     fill="url(#Gradient8)"
     d="M 917.916 323.992 C 1016.41 288.811 1128.06 281.299 1225.19 326.262 C 1241.87 333.987 1254.34 341.341 1268.62 352.78 C 1276.77 357.308 1289.84 371.357 1296.05 378.262 C 1278.97 367.887 1260.75 358.535 1243.66 348.169 C 1227.41 338.307 1219.07 334.47 1200 335.56 C 1192.56 336.094 1172 335.853 1174.63 348.766 C 1176.44 357.687 1186.32 364.071 1191.67 370.782 C 1206.45 386.532 1228.27 408.955 1240.75 425.865 C 1236.65 424.774 1223.4 421.759 1220.29 419.793 C 1197.66 405.487 1175.53 370.795 1145.77 372.204 C 1124.27 373.327 1110.97 387.62 1089.21 384.247 C 1084.61 383.535 1053.16 395.955 1047.84 398.924 C 1035.76 405.671 1029.11 418.001 1041.74 428.372 C 1059.73 439.456 1077.63 450.701 1095.42 462.103 C 1102.96 466.938 1117.2 475.736 1123.62 481.343 L 1105.24 489.707 C 1082.2 498.589 999.411 528.496 984.913 540.506 C 974.572 549.074 965.89 564.768 960.458 576.868 C 958.201 581.894 956.405 587.895 958.465 593.29 C 961.242 600.558 969.004 603.896 975.66 606.693 C 990.691 610.67 1021.44 626.471 1033.5 621.736 C 1054.7 613.41 1081.37 580.283 1104.59 571.487 C 1127.68 562.742 1154.18 555.924 1177.68 549.391 C 1247.58 530.408 1318.08 513.735 1389.08 499.398 C 1396.76 516.798 1403.95 540.442 1405.8 559.185 C 1402.58 572.346 1395.2 578.493 1384.02 585.634 C 1375.45 591.083 1366.4 595.732 1356.98 599.523 C 1364.35 594.074 1378.02 587.053 1380.71 577.773 C 1376.86 570.997 1358.89 570.612 1352.3 568.047 C 1330.1 566.879 1307.84 567.41 1285.72 569.637 C 1237.19 574.162 1135.41 590.838 1095.72 620.185 C 1067.18 641.285 1067.08 683.817 1010.31 677.344 C 980.961 673.999 983.452 666.698 965.895 648.022 C 946.27 648.79 927.558 644.967 908.857 645.286 C 879.676 645.784 860.705 689.949 858.111 714.517 C 855.026 743.728 846.452 792.678 804.584 770.672 C 776.916 757.224 751.257 702.871 747.423 673.741 C 746.805 670.66 746.166 669.196 747.321 666.296 C 754.292 663.284 777.008 681.725 785.617 673.553 C 799.44 660.433 811.028 627.651 812.964 609.558 C 800.217 589.327 752.898 589.913 735.614 572.422 C 730.543 567.289 732.904 551.784 733.453 545.108 C 745.129 451.513 766.175 535.333 810.423 481.648 C 821.538 468.163 838.513 452.683 848.519 439.026 C 846.239 428.241 839.946 426.658 829.592 426.074 C 816.929 425.36 803.792 425.963 791.095 426.272 C 785.285 427.014 777.722 429.971 775.046 424.462 C 778.447 384.63 882.782 337.077 917.916 323.992 z"
     id="path32"
     transform="translate(0,0)" />
  <path
     fill="rgb(231,121,35)"
     d="M 812.964 609.558 C 800.217 589.327 752.898 589.913 735.614 572.422 C 730.543 567.289 732.904 551.784 733.453 545.108 L 747.677 550.605 C 795.966 567.485 844.549 583.516 893.401 598.691 C 913.528 605.064 939.625 612.07 959.008 619.715 C 969.224 623.744 980.694 646.791 990.186 654.074 C 999.087 660.902 1012.38 660.379 1023.13 659.485 C 1049.08 657.326 1059.75 635.803 1074.47 616.759 C 1092.83 592.263 1124.26 587.615 1151.44 578.488 C 1205.91 560.195 1258.95 555.241 1315.49 548.952 L 1320.97 548.987 C 1344.5 546.064 1370.46 547.724 1393.15 554.66 C 1397.34 556.244 1401.56 557.752 1405.8 559.185 C 1402.58 572.346 1395.2 578.493 1384.02 585.634 C 1375.45 591.083 1366.4 595.732 1356.98 599.523 C 1364.35 594.074 1378.02 587.053 1380.71 577.773 C 1376.86 570.997 1358.89 570.612 1352.3 568.047 C 1330.1 566.879 1307.84 567.41 1285.72 569.637 C 1237.19 574.162 1135.41 590.838 1095.72 620.185 C 1067.18 641.285 1067.08 683.817 1010.31 677.344 C 980.961 673.999 983.452 666.698 965.895 648.022 C 946.27 648.79 927.558 644.967 908.857 645.286 C 879.676 645.784 860.705 689.949 858.111 714.517 C 855.026 743.728 846.452 792.678 804.584 770.672 C 776.916 757.224 751.257 702.871 747.423 673.741 C 746.805 670.66 746.166 669.196 747.321 666.296 C 754.292 663.284 777.008 681.725 785.617 673.553 C 799.44 660.433 811.028 627.651 812.964 609.558 z"
     id="path33"
     transform="translate(0,0)" />
  <path
     fill="rgb(215,89,37)"
     d="M 804.584 770.672 C 830.032 753.069 827.206 720.15 832.399 692.318 C 837.181 666.694 851.799 641.351 873.076 625.48 C 887.073 615.04 917.773 623.221 934.405 625.904 C 947.187 627.966 958.866 636.453 965.895 648.022 C 946.27 648.79 927.558 644.967 908.857 645.286 C 879.676 645.784 860.705 689.949 858.111 714.517 C 855.026 743.728 846.452 792.678 804.584 770.672 z"
     id="path34"
     transform="translate(0,0)" />
  <path
     fill="rgb(249,206,148)"
     d="M 812.964 609.558 C 800.217 589.327 752.898 589.913 735.614 572.422 C 730.543 567.289 732.904 551.784 733.453 545.108 L 747.677 550.605 C 746.978 558.325 746.995 563.346 747.152 571.143 C 756.67 574.015 769.396 578.572 778.3 581.215 C 811.812 591.162 830.388 598.634 815.487 638.163 C 810.271 651.997 799.68 679.399 785.401 685.872 C 784.761 686.159 784.116 686.436 783.467 686.703 C 765.856 685.624 761.994 682.655 747.423 673.741 C 746.805 670.66 746.166 669.196 747.321 666.296 C 754.292 663.284 777.008 681.725 785.617 673.553 C 799.44 660.433 811.028 627.651 812.964 609.558 z"
     id="path35"
     transform="translate(0,0)" />
  <path
     fill="rgb(215,89,37)"
     d="M 1320.97 548.987 C 1344.5 546.064 1370.46 547.724 1393.15 554.66 C 1397.34 556.244 1401.56 557.752 1405.8 559.185 C 1402.58 572.346 1395.2 578.493 1384.02 585.634 C 1375.45 591.083 1366.4 595.732 1356.98 599.523 C 1364.35 594.074 1378.02 587.053 1380.71 577.773 C 1376.86 570.997 1358.89 570.612 1352.3 568.047 C 1358.13 562.968 1376.28 574.261 1385.8 571.03 C 1390.24 567.185 1390.15 563.306 1390.71 557.52 L 1389.27 555.801 C 1376 549.834 1338.17 550.168 1320.97 548.987 z"
     id="path36"
     transform="translate(0,0)" />
  <path
     fill="rgb(231,121,35)"
     d="M 1393.15 554.66 C 1397.34 556.244 1401.56 557.752 1405.8 559.185 C 1402.58 572.346 1395.2 578.493 1384.02 585.634 C 1383.33 583.572 1391.67 559.625 1393.15 554.66 z"
     id="path37"
     transform="translate(0,0)" />
  <path
     fill="rgb(0,0,0)"
     d="M 944.754 330.407 C 971.682 325.946 1065.24 319.322 1085.04 339.913 C 1076.94 349.834 1001.58 378.902 984.714 381.836 C 973.467 383.793 937.862 377.531 924.494 377.915 C 903.218 376.569 882.558 378.703 863.78 377.917 C 862.711 375.993 860.549 372.293 862.212 370.273 C 880.668 347.855 919.032 339.483 944.754 330.407 z"
     id="path38"
     transform="translate(0,0)" />
  <path
     fill="rgb(41,107,160)"
     d="M 975.66 606.693 C 990.691 610.67 1021.44 626.471 1033.5 621.736 C 1054.7 613.41 1081.37 580.283 1104.59 571.487 C 1127.68 562.742 1154.18 555.924 1177.68 549.391 C 1247.58 530.408 1318.08 513.735 1389.08 499.398 C 1396.76 516.798 1403.95 540.442 1405.8 559.185 C 1401.56 557.752 1397.34 556.244 1393.15 554.66 C 1370.46 547.724 1344.5 546.064 1320.97 548.987 L 1315.49 548.952 C 1319.48 546.405 1321.83 546.189 1327.04 546.685 C 1282.92 535.628 1235.53 549.898 1191.96 557.307 C 1157.03 563.162 1124.33 569.72 1093.17 587.567 C 1072.73 599.275 1057.2 618.86 1036.05 628.42 C 1024.23 633.759 981.152 615.875 975.66 606.693 z"
     id="path39"
     transform="translate(0,0)" />
  <path
     fill="url(#Gradient7)"
     d="M 917.916 323.992 C 1016.41 288.811 1128.06 281.299 1225.19 326.262 C 1241.87 333.987 1254.34 341.341 1268.62 352.78 C 1276.77 357.308 1289.84 371.357 1296.05 378.262 C 1278.97 367.887 1260.75 358.535 1243.66 348.169 C 1227.41 338.307 1219.07 334.47 1200 335.56 C 1192.56 336.094 1172 335.853 1174.63 348.766 C 1176.44 357.687 1186.32 364.071 1191.67 370.782 C 1184.71 368.108 1166.21 353.249 1157.66 348.71 C 1110.18 323.48 1078.18 316.14 1025.81 313.676 C 1006.16 311.161 957.29 318.457 939.782 326.362 C 934.521 327.261 930.728 329.184 925.832 331.272 C 921.023 326.574 920.382 329.424 917.916 323.992 z"
     id="path40"
     transform="translate(0,0)" />
  <path
     fill="rgb(243,143,29)"
     d="M 1025.81 313.676 C 1034.02 306.505 1085.49 307.573 1098.89 308.604 C 1123.31 310.482 1178.49 318.47 1199.86 328.474 C 1203.4 331.618 1206.61 332.367 1211.07 334 C 1207.54 333.94 1203.28 333.387 1200.29 334.649 L 1200 335.56 C 1192.56 336.094 1172 335.853 1174.63 348.766 C 1176.44 357.687 1186.32 364.071 1191.67 370.782 C 1184.71 368.108 1166.21 353.249 1157.66 348.71 C 1110.18 323.48 1078.18 316.14 1025.81 313.676 z"
     id="path41"
     transform="translate(0,0)" />
  <path
     fill="rgb(231,121,35)"
     d="M 1199.86 328.474 C 1210.24 331.028 1219.03 333.392 1229.14 336.449 C 1237.29 338.912 1264.41 354.275 1268.62 352.78 C 1276.77 357.308 1289.84 371.357 1296.05 378.262 C 1278.97 367.887 1260.75 358.535 1243.66 348.169 C 1227.41 338.307 1219.07 334.47 1200 335.56 L 1200.29 334.649 C 1203.28 333.387 1207.54 333.94 1211.07 334 C 1206.61 332.367 1203.4 331.618 1199.86 328.474 z"
     id="path42"
     transform="translate(0,0)" />
  <path
     fill="rgb(184,218,232)"
     d="M 791.095 426.272 C 785.285 427.014 777.722 429.971 775.046 424.462 C 778.447 384.63 882.782 337.077 917.916 323.992 C 920.382 329.424 921.023 326.574 925.832 331.272 C 930.728 329.184 934.521 327.261 939.782 326.362 L 938.932 327.984 C 937.597 328.516 927.831 332.286 927.531 332.683 C 932.918 331.563 938.292 330.382 943.651 329.138 L 944.754 330.407 C 919.032 339.483 880.668 347.855 862.212 370.273 C 860.549 372.293 862.711 375.993 863.78 377.917 C 882.558 378.703 903.218 376.569 924.494 377.915 C 937.862 377.531 973.467 383.793 984.714 381.836 C 1001.58 378.902 1076.94 349.834 1085.04 339.913 C 1087.64 343.412 1087.29 341.629 1087.27 345.16 C 1082.42 351.227 1053.59 362.351 1045.67 366.995 C 1001.76 392.757 980.387 397.78 931.058 389.335 C 913.694 386.362 875.255 389.445 856.355 390.508 C 822.131 392.434 804.439 390.695 791.095 426.272 z"
     id="path43"
     transform="translate(0,0)" />
  <path
     fill="rgb(48,142,192)"
     d="M 925.832 331.272 C 930.728 329.184 934.521 327.261 939.782 326.362 L 938.932 327.984 C 937.597 328.516 927.831 332.286 927.531 332.683 C 932.918 331.563 938.292 330.382 943.651 329.138 L 944.754 330.407 C 919.032 339.483 880.668 347.855 862.212 370.273 C 860.549 372.293 862.711 375.993 863.78 377.917 C 856.458 378.276 842.814 382.448 837.77 378.398 L 837.812 376.499 C 850.664 360.623 904.826 339.638 925.832 331.272 z"
     id="path44"
     transform="translate(0,0)" />
  <path
     fill="rgb(184,218,232)"
     d="M 848.519 439.026 C 852.302 436.492 851.883 435.833 855.518 435.963 C 859.465 442.753 804.765 503.144 793.928 508.928 C 782.803 514.866 768.608 512.567 757.144 509.752 C 754.214 521.511 750.78 540.222 747.677 550.605 L 733.453 545.108 C 745.129 451.513 766.175 535.333 810.423 481.648 C 821.538 468.163 838.513 452.683 848.519 439.026 z"
     id="path45"
     transform="translate(0,0)" />
  <path
     fill="rgb(41,107,160)"
     d="M 1041.74 428.372 C 1059.73 439.456 1077.63 450.701 1095.42 462.103 C 1102.96 466.938 1117.2 475.736 1123.62 481.343 L 1105.24 489.707 C 1086.81 469.179 1065.56 451.503 1044.76 433.532 C 1042.91 431.933 1042.44 430.597 1041.74 428.372 z"
     id="path46"
     transform="translate(0,0)" />
  <path
     fill="rgb(0,0,0)"
     d="M 838.901 508.252 C 836.987 507.119 837.864 507.829 836.857 505.036 C 838.591 486.436 899.387 429.127 919.488 429.076 C 949.706 428.998 989.008 440.475 1018.24 449.795 C 1030.85 453.814 1055.23 459.947 1057.15 474.753 C 1055.79 484.58 1042.32 495.133 1034.78 500.841 C 1019.49 512.423 976.31 540.633 958.449 544.554 C 951.863 546 944.159 545.105 937.522 544.175 C 925.972 542.558 844.235 523.55 839.683 517.059 C 838.029 514.701 838.123 510.861 838.901 508.252 z"
     id="path47"
     transform="translate(0,0)" />
  <path
     fill="rgb(41,107,160)"
     d="M 838.901 508.252 C 836.987 507.119 837.864 507.829 836.857 505.036 C 838.591 486.436 899.387 429.127 919.488 429.076 C 949.706 428.998 989.008 440.475 1018.24 449.795 C 1030.85 453.814 1055.23 459.947 1057.15 474.753 C 1052.65 477.88 1050.19 479.948 1044.99 481.819 C 1044.96 478.841 1045.38 475.029 1043.17 472.727 C 1032.41 461.502 939.232 439.424 922.68 440.35 C 905.522 441.31 867.711 478.256 856.014 491.824 C 851.269 497.327 847.939 502.58 848.543 509.987 C 848.568 510.297 848.601 510.605 848.63 510.914 L 838.901 508.252 z"
     id="path48"
     transform="translate(0,0)" />
  <path
     fill="rgb(184,218,232)"
     d="M 1057.15 474.753 C 1055.79 484.58 1042.32 495.133 1034.78 500.841 C 1019.49 512.423 976.31 540.633 958.449 544.554 C 951.863 546 944.159 545.105 937.522 544.175 C 925.972 542.558 844.235 523.55 839.683 517.059 C 838.029 514.701 838.123 510.861 838.901 508.252 L 848.63 510.914 C 857.775 514.19 878.883 518.656 889.036 520.692 C 905.208 523.934 944.084 536.388 958.159 532.163 C 987.475 523.363 1019.7 499.321 1044.99 481.819 C 1050.19 479.948 1052.65 477.88 1057.15 474.753 z"
     id="path49"
     transform="translate(0,0)" />
  <path
     fill="rgb(133,146,155)"
     d="M 873.831 815.791 L 886.471 826.56 C 903.986 839.375 918.597 851.64 936.959 863.854 C 950.739 873.021 968.37 882.875 981.129 892.139 C 982.109 894.367 984.342 899.441 985.855 901.037 C 995.837 911.564 1020.66 924.994 1033.45 930.27 C 1039.3 929.824 1042.87 929.423 1048.73 928.401 C 1080.54 952.552 1098.37 963.679 1132.96 982.49 C 1146.39 988.989 1159.5 995.384 1173.15 1001.42 C 1182.34 1005.48 1195.79 1009.81 1204.15 1014.45 C 1204.96 1019.81 1204.97 1023.96 1209.6 1027.41 C 1221.3 1036.1 1256.01 1034.53 1269.7 1033.04 C 1267.45 1044.03 1265.24 1056.65 1261.32 1067.04 C 1259.34 1079.44 1244.01 1125.98 1237.45 1133.2 C 1194.3 1220.37 1118.27 1286.83 1026.11 1317.95 C 1011.94 1322.71 978.2 1331.95 963.475 1333.04 C 950.136 1336.31 930.542 1337.11 916.658 1337.68 C 922.771 1324.16 928.051 1312.82 932.171 1298.45 C 925.009 1305.86 916.803 1315.41 909.651 1322.28 C 895.309 1338.94 866.558 1374.73 845.182 1379.36 C 838.128 1382.38 826.958 1382.45 822.084 1375.72 C 807.423 1355.49 811.215 1323.09 815.805 1300.69 C 807.836 1307.91 805.824 1310.6 800.901 1319.87 C 773.837 1313.86 758.502 1307.54 733.056 1296.77 C 742.97 1310.33 751.148 1317.1 765.07 1326.67 C 723.235 1340.1 689.763 1349.65 646.222 1356.79 C 655.624 1340.91 680.628 1298.85 690.535 1286.05 C 714.791 1276.37 741.519 1269.54 766.846 1259.84 C 826.452 1237.01 881.215 1203.73 938.069 1175.23 C 983.728 1152.34 1019.3 1103.4 1039.71 1056.91 C 1047.49 1036.31 1049.2 1016.08 1046.72 994.367 C 1039 967.537 1028.68 958.199 1005.33 944.173 C 1003.47 941.342 1002.82 941.43 999.706 940.074 C 990.731 934.406 982.633 929.409 973.05 924.783 C 927.904 902.795 896.751 901.962 849.169 916.336 C 841.649 918.724 840.975 918.949 835.981 913.622 C 859.556 884.913 865.636 851.385 873.831 815.791 z"
     id="path50"
     transform="translate(0,0)" />
  <path
     fill="rgb(41,107,160)"
     d="M 873.831 815.791 L 886.471 826.56 C 903.986 839.375 918.597 851.64 936.959 863.854 C 950.739 873.021 968.37 882.875 981.129 892.139 C 982.109 894.367 984.342 899.441 985.855 901.037 C 995.837 911.564 1020.66 924.994 1033.45 930.27 C 1039.3 929.824 1042.87 929.423 1048.73 928.401 C 1080.54 952.552 1098.37 963.679 1132.96 982.49 C 1146.39 988.989 1159.5 995.384 1173.15 1001.42 C 1182.34 1005.48 1195.79 1009.81 1204.15 1014.45 C 1204.96 1019.81 1204.97 1023.96 1209.6 1027.41 C 1221.3 1036.1 1256.01 1034.53 1269.7 1033.04 C 1267.45 1044.03 1265.24 1056.65 1261.32 1067.04 C 1259.34 1079.44 1244.01 1125.98 1237.45 1133.2 L 1236.6 1132.74 C 1234.92 1133.67 1234.69 1133.88 1233.25 1135.08 C 1217.16 1148.64 1204.03 1159.98 1183.15 1163.9 C 1145.96 1150.31 1123.93 1105.44 1105.92 1073.17 C 1106.26 1085.31 1106.16 1096.68 1105.98 1108.82 C 1085.55 1080.7 1075.35 1067.95 1062.32 1034.8 C 1059.38 1027.34 1050.77 997.921 1046.72 994.367 C 1039 967.537 1028.68 958.199 1005.33 944.173 C 1003.47 941.342 1002.82 941.43 999.706 940.074 C 990.731 934.406 982.633 929.409 973.05 924.783 C 927.904 902.795 896.751 901.962 849.169 916.336 C 841.649 918.724 840.975 918.949 835.981 913.622 C 859.556 884.913 865.636 851.385 873.831 815.791 z"
     id="path51"
     transform="translate(0,0)" />
  <path
     fill="rgb(184,218,232)"
     d="M 1132.96 982.49 C 1146.39 988.989 1159.5 995.384 1173.15 1001.42 C 1182.34 1005.48 1195.79 1009.81 1204.15 1014.45 C 1204.96 1019.81 1204.97 1023.96 1209.6 1027.41 C 1221.3 1036.1 1256.01 1034.53 1269.7 1033.04 C 1267.45 1044.03 1265.24 1056.65 1261.32 1067.04 C 1253.27 1078.91 1250.03 1087.87 1239.58 1097.95 C 1240.34 1090.61 1241.67 1082.95 1240.34 1075.81 C 1231.19 1096.83 1216.22 1120.38 1197.18 1133.67 C 1180.4 1111.15 1176.74 1086.91 1173.69 1059.9 L 1173.16 1061.03 C 1168.34 1071.15 1165.47 1080.91 1162.01 1091.55 C 1149.36 1067.52 1147.83 1052.03 1144.71 1025.79 C 1141.97 1032.06 1140.64 1036.1 1138.6 1042.64 C 1136.56 1030.28 1135.26 1017.81 1134.71 1005.3 L 1134.36 1004.27 C 1134.14 996.998 1133.67 989.733 1132.96 982.49 z"
     id="path52"
     transform="translate(0,0)" />
  <path
     fill="rgb(133,146,155)"
     d="M 1132.96 982.49 C 1146.39 988.989 1159.5 995.384 1173.15 1001.42 C 1182.34 1005.48 1195.79 1009.81 1204.15 1014.45 C 1204.96 1019.81 1204.97 1023.96 1209.6 1027.41 C 1221.3 1036.1 1256.01 1034.53 1269.7 1033.04 C 1267.45 1044.03 1265.24 1056.65 1261.32 1067.04 C 1253.27 1078.91 1250.03 1087.87 1239.58 1097.95 C 1240.34 1090.61 1241.67 1082.95 1240.34 1075.81 C 1240.79 1072.08 1242.69 1066.2 1243.77 1062.38 C 1220.19 1055.36 1213.52 1047.57 1194.97 1033.11 C 1191.89 1030.71 1174.18 1024.71 1169.07 1022.33 C 1157.41 1016.9 1146.17 1011.13 1134.71 1005.3 L 1134.36 1004.27 C 1134.14 996.998 1133.67 989.733 1132.96 982.49 z"
     id="path53"
     transform="translate(0,0)" />
  <path
     fill="rgb(43,92,136)"
     d="M 1048.73 928.401 C 1080.54 952.552 1098.37 963.679 1132.96 982.49 C 1133.67 989.733 1134.14 996.998 1134.36 1004.27 C 1130.76 1005.45 1123.51 1000.67 1120.13 998.89 C 1086.12 980.986 1061.25 955.94 1033.45 930.27 C 1039.3 929.824 1042.87 929.423 1048.73 928.401 z"
     id="path54"
     transform="translate(0,0)" />
  <path
     fill="rgb(121,194,223)"
     d="M 873.831 815.791 L 886.471 826.56 C 881.832 853.541 876.773 878.27 861.274 901.656 C 856.957 908.169 852.308 911.933 849.169 916.336 C 841.649 918.724 840.975 918.949 835.981 913.622 C 859.556 884.913 865.636 851.385 873.831 815.791 z"
     id="path55"
     transform="translate(0,0)" />
  <path
     fill="rgb(189,193,194)"
     d="M 1046.72 994.367 C 1050.77 997.921 1059.38 1027.34 1062.32 1034.8 C 1075.35 1067.95 1085.55 1080.7 1105.98 1108.82 C 1106.16 1096.68 1106.26 1085.31 1105.92 1073.17 C 1123.93 1105.44 1145.96 1150.31 1183.15 1163.9 C 1204.03 1159.98 1217.16 1148.64 1233.25 1135.08 C 1234.69 1133.88 1234.92 1133.67 1236.6 1132.74 L 1237.45 1133.2 C 1194.3 1220.37 1118.27 1286.83 1026.11 1317.95 C 1011.94 1322.71 978.2 1331.95 963.475 1333.04 L 959.1 1331.41 L 959.57 1330.34 C 960.987 1330.04 962.401 1329.72 963.811 1329.38 C 971.334 1327.58 980.717 1323.99 988.287 1321.68 C 1059.09 1300.1 1127.42 1255.86 1174.53 1198.74 C 1181.91 1189.79 1190.92 1179.23 1197 1169.29 C 1168.86 1197.15 1130.29 1230.05 1092.71 1243.5 C 1097.59 1232.96 1102.38 1225.18 1107.25 1213.61 C 1078.26 1238.33 1056.31 1253.38 1018.18 1261.59 C 1027.93 1251.34 1032.23 1244.16 1037.88 1231.45 C 1008.51 1251.51 967.514 1257.93 932.726 1257.92 C 941.224 1250.98 949.452 1242.27 957.721 1234.76 C 926.598 1243.63 905.229 1244.88 873.523 1243.95 C 915.467 1226.1 950.288 1205.19 982.494 1171.82 C 1005.48 1148.01 1041.02 1090.83 1039.71 1056.91 C 1047.49 1036.31 1049.2 1016.08 1046.72 994.367 z"
     id="path56"
     transform="translate(0,0)" />
  <path
     fill="rgb(189,193,194)"
     d="M 845.182 1379.36 L 844.873 1378.83 C 845.095 1378.49 845.317 1378.16 845.539 1377.82 C 850.679 1375.36 854.788 1360.02 858.837 1356.65 C 871.632 1346 893.927 1330.14 907.592 1321.77 L 909.651 1322.28 C 895.309 1338.94 866.558 1374.73 845.182 1379.36 z"
     id="path57"
     transform="translate(0,0)" />
  <path
     fill="rgb(43,92,136)"
     d="M 1096.22 650.765 C 1098.35 647.504 1100.81 644.466 1103.56 641.697 C 1134.78 609.866 1265.73 590.571 1310.99 590.035 C 1322.73 595.538 1342.1 614.412 1348.37 625.277 C 1360.34 643.184 1366.68 658.452 1371.66 679.123 C 1367.61 681.219 1363.03 683.453 1359.15 685.752 L 1357.92 687.264 C 1345.4 707.945 1315 728.034 1291.19 733.018 C 1273.47 736.727 1258.79 736.02 1246.37 748.808 L 1242.58 755.048 C 1239.12 767.863 1240.37 771.684 1248.65 781.823 C 1250.54 775.944 1253.13 764.463 1257.9 761.921 C 1262.89 763.765 1266.05 771.934 1270.24 776.992 C 1281.36 790.633 1293.64 802.974 1309.21 811.53 C 1321.46 816.781 1330.95 820.882 1343.78 824.325 C 1304.37 860.772 1292.76 896.242 1281.43 946.931 C 1269.81 947.1 1250.87 947.794 1239.78 946.123 C 1227.86 945.502 1226.83 945.63 1219.04 954.727 C 1194.87 946.669 1156.43 927.795 1135.55 913.787 C 1126.72 910.291 1100.11 890.354 1092.04 883.908 C 1091.49 866.395 1079.63 849.704 1070.27 834.952 L 1065.64 830.154 C 1062.77 807.939 1059 780.158 1058.97 758.053 L 1058.53 755.197 C 1056.31 737.324 1056.6 709.52 1056.06 690.786 L 1057.1 690.236 C 1064.71 686.298 1068.43 683.134 1075.29 677.807 C 1081.73 670.948 1090.11 658.688 1096.22 650.765 z"
     id="path58"
     transform="translate(0,0)" />
  <path
     fill="rgb(40,69,102)"
     d="M 1096.22 650.765 C 1098.35 647.504 1100.81 644.466 1103.56 641.697 C 1134.78 609.866 1265.73 590.571 1310.99 590.035 C 1322.73 595.538 1342.1 614.412 1348.37 625.277 C 1360.34 643.184 1366.68 658.452 1371.66 679.123 C 1367.61 681.219 1363.03 683.453 1359.15 685.752 L 1357.92 687.264 C 1345.4 707.945 1315 728.034 1291.19 733.018 C 1273.47 736.727 1258.79 736.02 1246.37 748.808 C 1245.85 744.345 1245.72 738.677 1243.5 735.046 L 1244.17 733.091 L 1243.22 731.793 L 1238.06 731.503 C 1229.93 744.89 1215.17 752.813 1199.52 752.202 C 1183.87 751.591 1169.78 742.542 1162.71 728.562 C 1159.63 727.777 1152.27 723.18 1147.63 721.369 L 1146.11 723.035 C 1138.79 728.26 1087.54 712.729 1064.73 743.077 C 1062.47 746.078 1059.43 749.902 1058.75 753.685 C 1058.66 754.186 1058.61 754.693 1058.53 755.197 C 1056.31 737.324 1056.6 709.52 1056.06 690.786 L 1057.1 690.236 C 1064.71 686.298 1068.43 683.134 1075.29 677.807 C 1081.73 670.948 1090.11 658.688 1096.22 650.765 z"
     id="path59"
     transform="translate(0,0)" />
  <path
     fill="rgb(254,254,254)"
     d="M 1096.22 650.765 C 1098.35 647.504 1100.81 644.466 1103.56 641.697 C 1134.78 609.866 1265.73 590.571 1310.99 590.035 C 1322.73 595.538 1342.1 614.412 1348.37 625.277 C 1360.34 643.184 1366.68 658.452 1371.66 679.123 C 1367.61 681.219 1363.03 683.453 1359.15 685.752 L 1357.92 687.264 C 1323.77 698.433 1317.4 694.934 1288.35 677.267 L 1293.54 690.424 C 1286.83 684.921 1282.26 681.662 1275 676.849 L 1273.68 677.188 C 1273.8 680.508 1274.39 679.923 1273.13 682.131 C 1262.13 676.785 1252.18 665.637 1235.92 659.007 C 1219.08 650.613 1189.61 646.201 1171.96 656.705 C 1147 671.552 1122.67 675.695 1092.04 677.017 C 1085.96 678.23 1081.34 678.089 1075.29 677.807 C 1081.73 670.948 1090.11 658.688 1096.22 650.765 z"
     id="path60"
     transform="translate(0,0)" />
  <path
     fill="rgb(41,107,160)"
     d="M 1227.74 624.949 C 1242.13 617.275 1314.58 621.157 1332.93 622.693 L 1334.11 624.203 C 1340.32 623.995 1342.43 624.344 1348.37 625.277 C 1360.34 643.184 1366.68 658.452 1371.66 679.123 C 1367.61 681.219 1363.03 683.453 1359.15 685.752 L 1357.92 687.264 C 1323.77 698.433 1317.4 694.934 1288.35 677.267 C 1287.77 676.469 1287.4 675.67 1286.96 674.78 C 1273.58 647.973 1255.99 633.958 1227.74 624.949 z"
     id="path61"
     style="fill:url(#linearGradient142);stroke:url(#linearGradient143)"
     transform="translate(0,0)" />
  <path
     fill="rgb(121,194,223)"
     d="M 1334.11 624.203 C 1340.32 623.995 1342.43 624.344 1348.37 625.277 C 1360.34 643.184 1366.68 658.452 1371.66 679.123 C 1367.61 681.219 1363.03 683.453 1359.15 685.752 C 1357.94 683.225 1355.16 668.788 1353.85 664.57 C 1348.82 648.274 1342.9 638.277 1334.11 624.203 z"
     id="path62"
     transform="translate(0,0)" />
  <path
     fill="rgb(43,92,136)"
     d="M 1096.22 650.765 C 1098.35 647.504 1100.81 644.466 1103.56 641.697 C 1134.78 609.866 1265.73 590.571 1310.99 590.035 C 1322.73 595.538 1342.1 614.412 1348.37 625.277 C 1342.43 624.344 1340.32 623.995 1334.11 624.203 L 1332.93 622.693 C 1314.58 621.157 1242.13 617.275 1227.74 624.949 L 1224.13 624.805 C 1224.85 626.752 1233.02 633.284 1235.79 635.979 C 1227.19 632.336 1219.68 628.814 1210.44 626.951 C 1167.92 614.084 1131.99 643.37 1096.22 650.765 z"
     id="path63"
     style="fill:url(#linearGradient144);stroke:url(#linearGradient145)"
     transform="translate(0,0)" />
  <path
     fill="rgb(48,142,192)"
     d="M 1310.99 590.035 C 1322.73 595.538 1342.1 614.412 1348.37 625.277 C 1342.43 624.344 1340.32 623.995 1334.11 624.203 L 1332.93 622.693 C 1325.35 611.971 1316.26 602.076 1308.89 591.53 L 1310.99 590.035 z"
     id="path64"
     transform="translate(0,0)" />
  <path
     fill="rgb(133,146,155)"
     d="M 1096.22 650.765 C 1131.99 643.37 1167.92 614.084 1210.44 626.951 C 1200.79 628.56 1184.18 631.214 1175.41 634.146 C 1152.38 641.845 1110.93 661.884 1092.04 677.017 C 1085.96 678.23 1081.34 678.089 1075.29 677.807 C 1081.73 670.948 1090.11 658.688 1096.22 650.765 z"
     id="path65"
     transform="translate(0,0)" />
  <path
     fill="rgb(0,0,0)"
     d="M 1162.71 728.562 C 1153.35 710.041 1158.5 687.477 1174.97 674.857 C 1191.45 662.237 1214.58 663.14 1230.02 677.005 C 1245.46 690.871 1248.84 713.768 1238.06 731.503 C 1229.93 744.89 1215.17 752.813 1199.52 752.202 C 1183.87 751.591 1169.78 742.542 1162.71 728.562 z"
     id="path66"
     transform="translate(0,0)" />
  <path
     fill="rgb(254,254,254)"
     d="M 1186.44 683.405 C 1193.1 680.69 1200.71 683.873 1203.46 690.525 C 1206.2 697.178 1203.05 704.798 1196.41 707.573 C 1189.73 710.367 1182.05 707.194 1179.29 700.499 C 1176.52 693.803 1179.73 686.138 1186.44 683.405 z"
     id="path67"
     transform="translate(0,0)" />
  <path
     fill="rgb(184,218,232)"
     d="M 1142.96 876.339 C 1188.27 830.87 1229.15 847.929 1270.24 776.992 C 1281.36 790.633 1293.64 802.974 1309.21 811.53 C 1321.46 816.781 1330.95 820.882 1343.78 824.325 C 1304.37 860.772 1292.76 896.242 1281.43 946.931 C 1269.81 947.1 1250.87 947.794 1239.78 946.123 C 1227.86 945.502 1226.83 945.63 1219.04 954.727 C 1194.87 946.669 1156.43 927.795 1135.55 913.787 C 1140.45 893.432 1144.82 886.706 1159.04 871.532 L 1142.96 876.339 z"
     id="path68"
     transform="translate(0,0)" />
  <path
     fill="rgb(133,146,155)"
     d="M 1309.21 811.53 C 1321.46 816.781 1330.95 820.882 1343.78 824.325 C 1304.37 860.772 1292.76 896.242 1281.43 946.931 C 1269.81 947.1 1250.87 947.794 1239.78 946.123 C 1240.18 918.368 1243.04 904.781 1249.12 878.505 C 1240.08 885.446 1230.06 896.631 1221.81 905.022 C 1241.83 857.347 1260.11 832.847 1309.21 811.53 z"
     id="path69"
     transform="translate(0,0)" />
  <path
     fill="rgb(40,69,102)"
     d="M 1058.97 758.053 C 1062.57 766.036 1064.97 774.078 1068.77 781.998 C 1086.8 819.561 1124.6 841.808 1166.03 836.811 C 1127.36 860.65 1079.35 831.001 1070.27 834.952 L 1065.64 830.154 C 1062.77 807.939 1059 780.158 1058.97 758.053 z"
     id="path70"
     transform="translate(0,0)" />
  <path
     fill="rgb(184,218,232)"
     d="M 1146.11 723.035 L 1147.63 721.369 C 1152.27 723.18 1159.63 727.777 1162.71 728.562 C 1169.78 742.542 1183.87 751.591 1199.52 752.202 C 1215.17 752.813 1229.93 744.89 1238.06 731.503 L 1243.22 731.793 L 1244.17 733.091 L 1243.5 735.046 C 1245.72 738.677 1245.85 744.345 1246.37 748.808 L 1242.58 755.048 C 1239.87 754.294 1234.12 755.209 1230.05 754.666 C 1226.25 757.125 1223.51 758.818 1219.22 760.413 C 1205.19 765.545 1189.68 764.809 1176.2 758.369 C 1161.38 751.28 1151.42 738.29 1146.11 723.035 z"
     id="path71"
     transform="translate(0,0)" />
  <path
     fill="rgb(29,59,91)"
     d="M 1243.5 735.046 C 1245.72 738.677 1245.85 744.345 1246.37 748.808 L 1242.58 755.048 C 1239.87 754.294 1234.12 755.209 1230.05 754.666 C 1237.53 747.188 1239.18 744.196 1243.5 735.046 z"
     id="path72"
     transform="translate(0,0)" />
  <path
     fill="rgb(43,92,136)"
     d="M 849.169 916.336 C 896.751 901.962 927.904 902.795 973.05 924.783 C 982.633 929.409 990.731 934.406 999.706 940.074 C 1002.82 941.43 1003.47 941.342 1005.33 944.173 C 1014.66 958.602 1024.06 971.122 1026.22 988.875 C 1036.47 1072.86 953.76 1158.49 876.449 1175.42 C 890.287 1144.67 890.449 1141.35 916.957 1120.79 C 935.822 1106.16 960.999 1071.34 970.293 1049.28 C 957.301 1063.76 945.544 1079.26 929.933 1091.34 C 902.273 1113.76 874.137 1137.46 836.4 1137.41 C 831.2 1137.41 827.543 1132.36 830.426 1127.61 C 834.802 1120.83 842.521 1114.98 848.827 1110.06 C 873.432 1084.47 877.459 1083.58 896.637 1049.86 C 887.383 1059.09 860.749 1085.31 850.028 1091.54 C 829.131 1107.23 799.886 1127.12 771.424 1126.92 C 769.543 1126.91 767.919 1125.83 766.434 1124.78 C 759.013 1113.15 777.563 1097.96 785.693 1092.33 C 786.722 1090.79 801.743 1077.15 804.12 1074.91 C 813.369 1066.18 817.354 1061.19 824.787 1050.79 C 813.453 1059.93 788.5 1078.86 775.218 1084.47 C 765.378 1089.96 740.382 1104.26 729.639 1097.52 C 719.848 1084.76 747.021 1050.04 754.844 1039.24 L 755.146 1037.21 C 751.062 1036.24 716.809 1058.1 710.902 1061.66 C 704.177 1066.57 697.506 1071.55 690.888 1076.6 C 712.66 1029.33 753.254 982.202 791.656 947.704 C 805.165 935.568 823.369 926.691 835.981 913.622 C 840.975 918.949 841.649 918.724 849.169 916.336 z"
     id="path73"
     transform="translate(0,0)" />
  <path
     fill="rgb(136,139,141)"
     d="M 849.169 916.336 C 896.751 901.962 927.904 902.795 973.05 924.783 C 982.633 929.409 990.731 934.406 999.706 940.074 C 987.741 958.654 975.914 976.939 957.753 990.211 C 938.089 1004.58 914.778 1016.69 890.856 1021.84 L 889.667 1022.09 C 897.182 1010.68 903.416 1001.39 908.63 988.613 C 883.757 1009.18 862.182 1026.46 828.782 1032.06 C 833.836 1024 840.314 1014.25 844.753 1006 C 821.328 1019.57 797.749 1032.59 770.51 1036.63 C 766.137 1037.28 759.219 1038.41 755.146 1037.21 C 751.062 1036.24 716.809 1058.1 710.902 1061.66 C 704.177 1066.57 697.506 1071.55 690.888 1076.6 C 712.66 1029.33 753.254 982.202 791.656 947.704 C 805.165 935.568 823.369 926.691 835.981 913.622 C 840.975 918.949 841.649 918.724 849.169 916.336 z"
     id="path74"
     transform="translate(0,0)" />
  <path
     fill="rgb(189,193,194)"
     d="M 849.169 916.336 C 896.751 901.962 927.904 902.795 973.05 924.783 C 972.503 924.747 971.956 924.71 971.409 924.673 C 906.834 906.393 842.242 932.233 792.136 972.845 C 785.624 978.123 769.932 992.947 764.412 998.826 C 756.531 1007.22 711.441 1054.9 710.902 1061.66 C 704.177 1066.57 697.506 1071.55 690.888 1076.6 C 712.66 1029.33 753.254 982.202 791.656 947.704 C 805.165 935.568 823.369 926.691 835.981 913.622 C 840.975 918.949 841.649 918.724 849.169 916.336 z"
     id="path75"
     transform="translate(0,0)" />
  <path
     fill="rgb(121,194,223)"
     d="M 848.827 1110.06 C 848.335 1114.97 845.727 1118.43 847.964 1123.03 C 853.744 1127 859.821 1124.55 866.25 1122.52 C 874.422 1120.01 882.371 1116.83 890.014 1113.01 C 898.835 1108.5 923.016 1091.64 929.933 1091.34 C 902.273 1113.76 874.137 1137.46 836.4 1137.41 C 831.2 1137.41 827.543 1132.36 830.426 1127.61 C 834.802 1120.83 842.521 1114.98 848.827 1110.06 z"
     id="path76"
     transform="translate(0,0)" />
  <path
     fill="rgb(121,194,223)"
     d="M 785.693 1092.33 C 785.433 1095.88 778.754 1110.66 783.531 1112.39 C 801.352 1118.84 837.718 1092.54 850.028 1091.54 C 829.131 1107.23 799.886 1127.12 771.424 1126.92 C 769.543 1126.91 767.919 1125.83 766.434 1124.78 C 759.013 1113.15 777.563 1097.96 785.693 1092.33 z"
     id="path77"
     transform="translate(0,0)" />
  <path
     fill="rgb(121,194,223)"
     d="M 754.844 1039.24 C 754.851 1049.57 737.648 1070.33 742.788 1084.62 C 751.257 1093.16 765.004 1083.01 775.218 1084.47 C 765.378 1089.96 740.382 1104.26 729.639 1097.52 C 719.848 1084.76 747.021 1050.04 754.844 1039.24 z"
     id="path78"
     transform="translate(0,0)" />
  <path
     fill="rgb(243,143,29)"
     d="M 1194.91 352.431 L 1193.14 350.475 C 1211.6 336.595 1273.33 383.037 1293.02 391.034 C 1313.75 399.456 1337.35 415.25 1359.5 422.499 C 1357.6 415.533 1327.96 386.585 1321.03 379.335 C 1315.92 374.23 1312 370.052 1307.25 364.606 C 1319.57 370.955 1334.81 381.756 1347.15 389.407 C 1367.05 401.535 1387.28 413.092 1407.84 424.063 C 1431.41 436.634 1455.34 448.54 1479.58 459.77 C 1490.48 464.874 1509.7 473.045 1519.6 478.587 C 1505.56 476.906 1492.23 475.015 1478.06 474.29 C 1426.02 471.629 1367.7 482.171 1317.76 496.747 C 1271.1 507.061 1224.68 518.429 1178.53 530.84 C 1146.82 539.551 1109.46 549.198 1081.12 567.713 C 1066.18 577.476 1050.8 593.66 1036.3 603.314 C 1022.17 612.72 990.056 594.891 975.496 589.887 C 973.215 589.103 972.599 587.267 972.045 585.053 C 972.366 584.371 973.267 582.34 973.635 581.788 C 978.294 571.276 986.886 556.132 996.061 548.962 C 1006.49 540.813 1021.95 536.818 1034.28 532.209 C 1050.56 526.123 1132.56 498.809 1140.47 486.343 C 1143.03 482.306 1142.41 479.023 1141.7 474.556 C 1127.22 456.477 1056.3 422.663 1051.2 413.492 L 1052.79 412.385 C 1064.03 408.032 1086.14 398.793 1096.94 397.226 C 1141.35 412.963 1186.8 427.477 1232.61 438.715 C 1266.8 447.106 1297.32 448.237 1332.17 445.76 C 1318.73 437.239 1284.26 439.193 1270.43 430.705 C 1264.77 427.228 1250.25 409.709 1244.92 404.032 C 1229.49 387.658 1213.85 371.477 1198.02 355.495 L 1194.91 352.431 z"
     id="path79"
     transform="translate(0,0)" />
  <path
     fill="rgb(215,89,37)"
     d="M 1141.7 474.556 C 1127.22 456.477 1056.3 422.663 1051.2 413.492 L 1052.79 412.385 L 1055.88 414.035 C 1065.26 419.076 1091.15 427.921 1102.18 432.013 C 1162.03 454.863 1223.36 473.672 1285.73 488.315 C 1291.85 489.779 1308.77 494.727 1313.67 493.747 L 1317.76 496.747 C 1271.1 507.061 1224.68 518.429 1178.53 530.84 C 1146.82 539.551 1109.46 549.198 1081.12 567.713 C 1066.18 577.476 1050.8 593.66 1036.3 603.314 C 1022.17 612.72 990.056 594.891 975.496 589.887 C 973.215 589.103 972.599 587.267 972.045 585.053 C 972.366 584.371 973.267 582.34 973.635 581.788 C 978.294 571.276 986.886 556.132 996.061 548.962 C 1006.49 540.813 1021.95 536.818 1034.28 532.209 C 1050.56 526.123 1132.56 498.809 1140.47 486.343 C 1143.03 482.306 1142.41 479.023 1141.7 474.556 z"
     id="path80"
     transform="translate(0,0)" />
  <path
     fill="rgb(249,206,148)"
     d="M 1141.7 474.556 C 1144.9 473.823 1143.32 473.67 1146.52 475.558 C 1160.21 497.303 1112.54 510.683 1099.5 515.11 C 1077.98 522.371 1056.62 530.095 1035.43 538.279 C 1026.15 541.787 1009.84 547.409 1001.86 552.463 C 997.952 554.899 994.367 557.823 991.196 561.166 C 987.191 565.379 976.564 582.216 973.635 581.788 C 978.294 571.276 986.886 556.132 996.061 548.962 C 1006.49 540.813 1021.95 536.818 1034.28 532.209 C 1050.56 526.123 1132.56 498.809 1140.47 486.343 C 1143.03 482.306 1142.41 479.023 1141.7 474.556 z"
     id="path81"
     transform="translate(0,0)" />
  <path
     fill="rgb(249,206,148)"
     d="M 1307.25 364.606 C 1319.57 370.955 1334.81 381.756 1347.15 389.407 C 1367.05 401.535 1387.28 413.092 1407.84 424.063 C 1431.41 436.634 1455.34 448.54 1479.58 459.77 C 1490.48 464.874 1509.7 473.045 1519.6 478.587 C 1505.56 476.906 1492.23 475.015 1478.06 474.29 C 1426.02 471.629 1367.7 482.171 1317.76 496.747 L 1313.67 493.747 C 1320.28 490.396 1335.21 485.777 1342.53 483.521 C 1380.08 471.936 1426.84 462.24 1466.27 466.246 C 1423.11 445.068 1383.58 424.452 1345.62 394.003 C 1339.41 389.029 1328.93 379.525 1321.03 379.335 C 1315.92 374.23 1312 370.052 1307.25 364.606 z"
     id="path82"
     transform="translate(0,0)" />
  <path
     fill="rgb(215,89,37)"
     d="M 1198.02 355.495 C 1208.01 356.72 1265.61 399.627 1280.61 406.354 C 1292.64 411.75 1332.66 435.245 1338.04 444.997 C 1336.7 445.182 1333.33 445.74 1332.17 445.76 C 1318.73 437.239 1284.26 439.193 1270.43 430.705 C 1264.77 427.228 1250.25 409.709 1244.92 404.032 C 1229.49 387.658 1213.85 371.477 1198.02 355.495 z"
     id="path83"
     transform="translate(0,0)" />
  <path
     fill="rgb(249,206,148)"
     d="M 1052.79 412.385 C 1064.03 408.032 1086.14 398.793 1096.94 397.226 C 1141.35 412.963 1186.8 427.477 1232.61 438.715 C 1266.8 447.106 1297.32 448.237 1332.17 445.76 C 1333.33 445.74 1336.7 445.182 1338.04 444.997 C 1338.78 444.822 1340.93 444.632 1341.77 444.538 L 1341.44 445.548 C 1333.78 449.154 1322.48 451.159 1314.05 452.461 C 1250.76 462.235 1192.41 434.639 1133.43 416.826 C 1121.88 413.334 1104.33 405.937 1092.89 405.259 C 1085.82 404.839 1062.78 411.148 1055.88 414.035 L 1052.79 412.385 z"
     id="path84"
     transform="translate(0,0)" />
  <path
     fill="rgb(249,206,148)"
     d="M 1194.91 352.431 L 1193.14 350.475 C 1211.6 336.595 1273.33 383.037 1293.02 391.034 C 1313.75 399.456 1337.35 415.25 1359.5 422.499 C 1362.25 424.533 1374.17 429.921 1377.64 431.529 C 1331.28 422.331 1287.41 392.712 1245.11 372.117 C 1222.57 361.141 1223.12 352.019 1194.91 352.431 z"
     id="path85"
     transform="translate(0,0)" />
  <path
     fill="rgb(41,107,160)"
     d="M 597.84 1337.85 C 604.197 1345.51 630.861 1333.24 637.719 1336.08 C 606.411 1384.2 574.363 1431.84 541.586 1478.97 C 529.234 1496.66 509.961 1525.33 496.702 1541.88 C 491.397 1551.49 483.658 1561.5 477.176 1570.41 C 454.367 1601.8 425.25 1635.22 387.155 1647.4 C 376.458 1650.82 356.06 1653.12 355.052 1637.2 L 354.973 1635.44 C 352.903 1586.71 425.491 1514.62 457.629 1479.22 C 500.003 1432.33 542.848 1385.87 586.157 1339.84 C 589.081 1339.92 594.298 1337.37 597.919 1336.27 L 597.84 1337.85 z"
     id="path86"
     transform="translate(0,0)" />
  <path
     fill="rgb(43,92,136)"
     d="M 412.642 1552.81 C 415.093 1558.05 408.54 1575.15 413.001 1582.82 C 433.914 1618.79 479.631 1549.93 496.702 1541.88 C 491.397 1551.49 483.658 1561.5 477.176 1570.41 C 454.367 1601.8 425.25 1635.22 387.155 1647.4 C 376.458 1650.82 356.06 1653.12 355.052 1637.2 C 357.285 1633.98 359.875 1627.99 361.752 1624.39 C 375.353 1598.28 394.002 1575.48 412.642 1552.81 z"
     id="path87"
     transform="translate(0,0)" />
  <path
     fill="rgb(121,194,223)"
     d="M 586.157 1339.84 C 589.081 1339.92 594.298 1337.37 597.919 1336.27 L 597.84 1337.85 C 553.744 1395.2 502.349 1448.56 455.428 1503.69 C 442.388 1519.01 424.697 1537.06 412.642 1552.81 C 394.002 1575.48 375.353 1598.28 361.752 1624.39 C 359.875 1627.99 357.285 1633.98 355.052 1637.2 L 354.973 1635.44 C 352.903 1586.71 425.491 1514.62 457.629 1479.22 C 500.003 1432.33 542.848 1385.87 586.157 1339.84 z"
     id="path88"
     transform="translate(0,0)" />
  <path
     fill="rgb(41,107,160)"
     d="M 586.135 1220.26 C 596.39 1204.34 604.12 1190.46 615.621 1174.64 C 645.522 1133.51 674.958 1106.45 714.915 1076.01 C 712.672 1081.15 711.476 1085.24 709.853 1090.54 C 709.998 1131.27 737.471 1108.83 748.443 1116.55 C 745.659 1130.31 746.556 1140.74 763.26 1143.45 C 778.223 1145.88 794.351 1141.78 808.208 1136.17 C 810.943 1144.77 812.164 1148.81 820.448 1153.21 C 769.353 1182 718.099 1210.51 666.69 1238.74 C 631.246 1258.34 591.004 1281.65 554.708 1298.72 C 551.034 1301.28 549.316 1302.1 545.244 1304.09 C 560.757 1269.28 561.461 1265.58 588.838 1238.34 C 628.245 1199.15 669.372 1168.02 715.731 1137.6 C 719.044 1134.93 722.409 1132.32 725.824 1129.79 C 701.903 1139.18 679.088 1151.56 657.316 1165.17 C 649.245 1170.21 631.799 1182.9 624.544 1186.32 C 616.398 1195.24 596.099 1211.75 586.135 1220.26 z"
     id="path89"
     transform="translate(0,0)" />
  <path
     fill="rgb(121,194,223)"
     d="M 715.731 1137.6 L 715.955 1139.11 C 710.899 1143.77 705.529 1147.33 700.364 1151.74 C 657.147 1188.72 613.19 1225.12 576.609 1268.96 C 569.833 1277.08 558.565 1289.25 554.708 1298.72 C 551.034 1301.28 549.316 1302.1 545.244 1304.09 C 560.757 1269.28 561.461 1265.58 588.838 1238.34 C 628.245 1199.15 669.372 1168.02 715.731 1137.6 z"
     id="path90"
     transform="translate(0,0)" />
  <path
     fill="rgb(121,194,223)"
     d="M 586.135 1220.26 C 596.39 1204.34 604.12 1190.46 615.621 1174.64 C 645.522 1133.51 674.958 1106.45 714.915 1076.01 C 712.672 1081.15 711.476 1085.24 709.853 1090.54 C 693.953 1102.78 631.374 1168.86 624.544 1186.32 C 616.398 1195.24 596.099 1211.75 586.135 1220.26 z"
     id="path91"
     transform="translate(0,0)" />
  <path
     fill="rgb(254,254,254)"
     d="M 957.523 1358.43 C 958.214 1358.54 958.906 1358.66 959.598 1358.77 C 962.302 1364.03 973.257 1377.86 978.29 1380.85 C 991.805 1388.86 1010.24 1396.37 1024.65 1403.16 C 1047.23 1414.02 1069.68 1425.15 1091.99 1436.55 C 1073.81 1447.51 1070.36 1452.86 1067.74 1473.76 C 1046.89 1481.48 1023.26 1488.92 1002.02 1496.25 C 969.825 1505.69 967.568 1503.41 935.714 1491 C 925.818 1478.78 908.849 1448.38 900.104 1434.13 C 891.499 1420.11 880.633 1403.19 872.597 1389.25 C 885.662 1380.87 894.293 1372.49 904.857 1361.28 C 924.346 1361.51 938.152 1360.25 957.523 1358.43 z"
     id="path92"
     transform="translate(0,0)" />
  <path
     fill="#888b8d"
     d="m 947.923,1379.48 c 1.78,0.5 16.93,18.03 23.267,21.32 27.683,14.35 57.34,25.33 84.38,40.81 -2.75,5.25 -4.77,11.4 -6.8,17.01 -15.34,4.95 -30.61,10.12 -45.81,15.51 -28.461,8.96 -27.652,9.6 -55.571,-1.11 -14.061,-23.47 -35.835,-56.44 -47.105,-79.57 l 10.387,-10.39 c 12.281,-0.53 25.066,-2.04 37.252,-3.58 z"
     id="path93"
     style="display:inline;fill-rule:nonzero" />
  <path
     transform="translate(0,0)"
     fill="url(#Gradient6)"
     d="M 946.339 664.06 C 954.74 663.684 956.015 665.175 961.383 671.58 C 971.432 683.573 977.631 691.033 993.047 695.593 C 993.568 737.776 999.438 796.551 1006.5 837.511 C 996.948 833.331 986.704 826.074 977.923 820.172 C 958.185 807.307 913.173 772.441 898.435 755.338 C 907.166 725.812 925.581 686.645 946.339 664.06 z"
     id="path94" />
  <path
     transform="translate(0,0)"
     fill="url(#Gradient5)"
     d="M 659.937 1377.33 C 662.944 1376.84 661.653 1376.51 664.123 1377.52 C 663.69 1383.19 561.677 1543.91 550.379 1560.92 C 545.69 1567.98 524.795 1596.55 517.151 1604.11 C 495.967 1625.06 482.425 1634.6 452.882 1635.33 L 449.443 1634.74 L 448.934 1633.26 C 451.344 1628.58 455.066 1625.95 458.64 1622.16 C 472.603 1607.35 484.486 1591.19 496.319 1574.63 C 524.947 1533.75 553.217 1492.61 581.128 1451.23 C 591.194 1436.13 615.241 1397.4 625.754 1385.28 C 634.005 1381.9 650.652 1379.11 659.937 1377.33 z"
     id="path95" />
  <path
     transform="translate(0,0)"
     fill="rgb(95,107,115)"
     d="M 839.616 1402.38 L 855.991 1396.99 C 862.32 1404.55 870.233 1418.41 875.26 1427.26 C 882.489 1438.72 919.876 1501.52 926.878 1504.67 C 969.408 1523.82 1035.88 1524.95 1030.96 1589.81 C 1030.99 1594.43 1027.99 1604.48 1024.47 1607.55 L 1022.82 1607.06 C 1019.61 1601.7 1021.35 1592.42 1020.3 1585.35 C 1019.31 1578.56 1017.17 1571.99 1013.98 1565.92 C 1003.63 1546.17 988.375 1538.78 968.254 1532.46 C 990.273 1552.54 1023.99 1587.23 989.706 1614.01 C 991.314 1570.24 978.17 1551.34 939.646 1532.55 C 944.571 1538.91 949.676 1544.29 954.327 1551.03 C 965.748 1565.65 975.903 1586.5 973.545 1605.47 C 973.393 1606.67 973.217 1607.87 973.017 1609.06 C 973.822 1630.21 957.948 1636.57 940.472 1638.71 C 942.045 1637.67 943.602 1636.6 945.142 1635.51 C 969.389 1618.25 951.415 1575.98 937.512 1557.41 C 921.122 1535.51 895.097 1525.46 868.386 1532.37 C 865.803 1533.03 851.342 1536.97 849.559 1536.7 C 851.531 1510.3 890.771 1517.42 897.983 1513.92 C 912.204 1507.01 882.637 1467.9 875.995 1457.85 L 839.616 1402.38 z"
     id="path96" />
  <path
     transform="translate(0,0)"
     fill="rgb(133,146,155)"
     d="M 922.192 1512.89 C 913.993 1504.76 871.976 1437.84 875.26 1427.26 C 882.489 1438.72 919.876 1501.52 926.878 1504.67 C 969.408 1523.82 1035.88 1524.95 1030.96 1589.81 L 1028.78 1588.71 L 1028.55 1587.4 C 1019.1 1536.72 965.754 1522.64 922.192 1512.89 z"
     id="path97" />
  <path
     transform="translate(0,0)"
     fill="rgb(133,146,155)"
     d="M 954.327 1551.03 C 965.748 1565.65 975.903 1586.5 973.545 1605.47 C 973.393 1606.67 973.217 1607.87 973.017 1609.06 C 972.469 1608.65 970.691 1607.31 970.279 1606.06 C 964.569 1588.74 959.958 1571.15 953.46 1553.97 C 953.749 1552.99 954.038 1552.01 954.327 1551.03 z"
     id="path98" />
  <path
     transform="translate(0,0)"
     fill="url(#Gradient4)"
     d="M 1406.32 1302.62 C 1391.08 1318.18 1364.81 1365.33 1358.44 1386.71 L 1369.34 1383.49 C 1393.2 1373.49 1445.55 1359.33 1470.83 1354.7 C 1479.74 1351.38 1494.83 1348.64 1504.66 1346.73 C 1443.17 1373.03 1383.89 1403.92 1326.12 1437.52 C 1310.87 1446.4 1281.55 1461.71 1268.02 1470.94 C 1264.54 1462.93 1262.37 1458.24 1258 1450.74 C 1252.64 1444.05 1246.1 1438.96 1239.43 1433.67 C 1285.17 1411.31 1321.3 1404.01 1349.69 1358.31 C 1362.34 1337.94 1386.23 1315.53 1406.32 1302.62 z"
     id="path99" />
  <path
     transform="translate(0,0)"
     fill="rgb(92,62,46)"
     d="M 1504.66 1346.73 C 1443.17 1373.03 1383.89 1403.92 1326.12 1437.52 C 1310.87 1446.4 1281.55 1461.71 1268.02 1470.94 C 1264.54 1462.93 1262.37 1458.24 1258 1450.74 C 1263.72 1448.66 1269.98 1445.56 1275.62 1443.02 C 1300.58 1431.75 1329.64 1420.46 1352.76 1406 L 1352.68 1405.07 C 1357.31 1401.77 1374.96 1393.54 1380.94 1390.59 C 1373.45 1388.08 1374.31 1385.69 1369.34 1383.49 C 1393.2 1373.49 1445.55 1359.33 1470.83 1354.7 C 1479.74 1351.38 1494.83 1348.64 1504.66 1346.73 z"
     id="path100" />
  <path
     transform="translate(0,0)"
     fill="rgb(130,91,58)"
     d="M 1369.34 1383.49 C 1393.2 1373.49 1445.55 1359.33 1470.83 1354.7 L 1470.08 1356.75 C 1429.1 1373.55 1393.14 1384.81 1352.76 1406 L 1352.68 1405.07 C 1357.31 1401.77 1374.96 1393.54 1380.94 1390.59 C 1373.45 1388.08 1374.31 1385.69 1369.34 1383.49 z"
     id="path101" />
  <path
     transform="translate(0,0)"
     fill="rgb(95,107,115)"
     d="M 1375.95 696.539 C 1420.27 704.578 1467.49 714.644 1504.77 741.365 C 1508 743.678 1518.58 751.914 1519.52 755.347 C 1517.71 755.493 1517.88 755.565 1516.1 755.339 C 1456.13 750.095 1403.75 763.644 1344.57 760.66 C 1326.72 759.76 1307.13 755.461 1289.8 750.802 C 1325 743.333 1342.71 729.868 1367.74 704.595 L 1375.95 696.539 z"
     id="path102" />
  <path
     transform="translate(0,0)"
     fill="rgb(184,218,232)"
     d="M 1375.95 696.539 C 1420.27 704.578 1467.49 714.644 1504.77 741.365 C 1508 743.678 1518.58 751.914 1519.52 755.347 C 1517.71 755.493 1517.88 755.565 1516.1 755.339 C 1460.07 721.384 1426.79 718.851 1367.74 704.595 L 1375.95 696.539 z"
     id="path103" />
  <path
     transform="translate(0,0)"
     fill="rgb(0,0,0)"
     d="M 1374.13 717.076 C 1381.76 717.037 1392.37 719.212 1395.11 727.36 L 1393.97 729.361 C 1390.28 731.456 1386.2 730.699 1381.75 730.536 C 1374.69 730.165 1364.6 732.164 1359.89 728.715 L 1360.18 726.712 C 1364.51 721.13 1367.57 719.787 1374.13 717.076 z"
     id="path104" />
  <path
     transform="translate(0,0)"
     fill="rgb(95,107,115)"
     d="M 1035.46 1376.16 C 1044.04 1379.97 1063.68 1388.52 1071.07 1393.34 C 1097.9 1405.17 1122.95 1420.19 1149.66 1431.84 C 1156.56 1434.85 1174.42 1432.18 1182.84 1432.93 C 1220.84 1436.33 1257.6 1454.87 1250.75 1499.03 C 1250 1507.71 1245.72 1510.81 1239.45 1515.81 C 1239.7 1514.62 1239.94 1513.44 1240.17 1512.25 C 1247.09 1475.63 1228.21 1449.46 1191.75 1443.09 C 1194.29 1452.5 1252 1471.77 1216.9 1523.81 C 1217.33 1482.48 1210.07 1460.35 1164.87 1450.33 C 1189.73 1468.56 1208.15 1488.75 1201.61 1522.65 C 1198.48 1538.85 1185.03 1546.8 1169.15 1542.64 L 1169.32 1541.59 C 1174.17 1539.56 1182.38 1535.03 1183.97 1530.21 C 1193.01 1502.72 1175.16 1472.42 1150.02 1461.67 C 1123.33 1450.25 1107.95 1460.39 1084.76 1468.93 C 1093.75 1442.58 1116.98 1453.55 1119.55 1439.2 C 1115.62 1428.16 1089.76 1416.87 1079.17 1411.45 C 1060.03 1401.65 1040.82 1391.99 1021.54 1382.47 C 1026.16 1380.5 1030.88 1378.25 1035.46 1376.16 z"
     id="path105" />
  <path
     transform="translate(0,0)"
     fill="rgb(133,146,155)"
     d="M 1071.07 1393.34 C 1097.9 1405.17 1122.95 1420.19 1149.66 1431.84 C 1156.56 1434.85 1174.42 1432.18 1182.84 1432.93 C 1220.84 1436.33 1257.6 1454.87 1250.75 1499.03 C 1250 1507.71 1245.72 1510.81 1239.45 1515.81 C 1239.7 1514.62 1239.94 1513.44 1240.17 1512.25 C 1247.09 1475.63 1228.21 1449.46 1191.75 1443.09 L 1191.65 1442.05 C 1178.89 1439.47 1162.24 1440.88 1151.46 1439.66 C 1139.72 1438.32 1073.06 1401.61 1071.07 1393.34 z"
     id="path106" />
  <path
     transform="translate(0,0)"
     fill="url(#Gradient3)"
     d="M 1191.65 1442.05 C 1199.2 1434 1224.74 1449.68 1231.28 1456.26 C 1238.11 1463.28 1243.22 1471.79 1246.17 1481.13 C 1248.61 1488.96 1246.89 1494.9 1250.75 1499.03 C 1250 1507.71 1245.72 1510.81 1239.45 1515.81 C 1239.7 1514.62 1239.94 1513.44 1240.17 1512.25 C 1247.09 1475.63 1228.21 1449.46 1191.75 1443.09 L 1191.65 1442.05 z"
     id="path107" />
  <path
     transform="translate(0,0)"
     fill="url(#Gradient2)"
     d="M 864.067 1152.26 L 865.59 1152.2 C 865.579 1155.56 861.402 1161.11 859.707 1165.35 C 856.898 1172.37 855.11 1178.4 853.017 1185.66 C 853.783 1189.07 853.92 1188.35 856.578 1191.35 C 847.643 1198.13 833.075 1204.95 822.828 1210.04 C 782.525 1230.05 740.368 1245.64 697.567 1259.38 C 674.78 1266.7 650.848 1274.83 627.535 1280.13 C 625.146 1280.88 623.468 1281.65 620.985 1281.42 C 642.117 1268.2 669.184 1254.09 691.302 1242.07 L 765.021 1201.18 C 791.155 1186.83 817.422 1171.06 843.866 1157.35 C 847.21 1155.62 859.682 1153.17 864.067 1152.26 z"
     id="path108" />
  <path
     transform="translate(0,0)"
     fill="rgb(95,135,72)"
     d="M 850.198 1707.32 C 868.794 1704.86 893.881 1711.54 910.412 1719.77 C 894.086 1741.32 871.617 1757.71 845.563 1765.1 C 824.438 1770.1 806.429 1763.65 786.861 1756.57 C 791.588 1749.58 796.465 1742.7 801.488 1735.92 C 815.677 1717.1 827.051 1710.59 850.198 1707.32 z"
     id="path109" />
  <path
     transform="translate(0,0)"
     fill="rgb(95,107,115)"
     d="M 1280.75 762.727 C 1285.98 763.66 1292.3 765.623 1297.47 767.101 C 1360.82 785.224 1427.05 770.055 1491.59 768.374 C 1483.82 773.13 1478.57 775.669 1470.25 779.548 C 1436.98 795.562 1394.47 808.3 1357.16 805.945 C 1323.48 803.819 1301.88 787.344 1280.75 762.727 z"
     id="path110" />
  <path
     transform="translate(0,0)"
     fill="rgb(118,154,72)"
     d="M 710.106 1484.54 C 713.994 1487.1 719.322 1493.87 722.309 1497.64 C 748.089 1530.21 747.467 1571.62 713.907 1597.9 L 706.704 1603.64 C 673.53 1559.18 685.106 1529.45 710.106 1484.54 z"
     id="path111" />
  <path
     transform="translate(0,0)"
     fill="rgb(241,99,37)"
     d="M 1081.83 897.715 C 1131.31 933.75 1157.7 948.463 1214.82 972.144 C 1212.68 981.614 1211.98 988.515 1208.14 997.504 L 1200.73 994.553 C 1163.68 980.941 1090.88 943.27 1061.71 916.65 C 1069.18 910.365 1074.96 904.571 1081.83 897.715 z"
     id="path112" />
  <path
     transform="translate(0,0)"
     fill="rgb(95,135,72)"
     d="M 1408.94 1476.25 C 1459.6 1471.33 1485.43 1494.35 1499.56 1542.45 C 1500.01 1543.96 1499.61 1543.96 1498.76 1545.18 L 1496.57 1545.98 C 1491.69 1545.38 1483.4 1545.64 1478.32 1545.59 C 1440.1 1545.23 1415.7 1524.94 1402.74 1489.86 C 1416.83 1493.79 1455.35 1515.22 1462.81 1515.46 C 1442.93 1497.17 1433.5 1488.61 1408.94 1476.25 z"
     id="path113" />
  <path
     transform="translate(0,0)"
     fill="url(#Gradient1)"
     d="M 1408.94 1476.25 C 1459.6 1471.33 1485.43 1494.35 1499.56 1542.45 C 1500.01 1543.96 1499.61 1543.96 1498.76 1545.18 L 1496.57 1545.98 C 1491.14 1537.28 1486.53 1528.42 1480.85 1519.85 L 1482.21 1522.44 C 1480.6 1524.32 1481.26 1523.67 1478.88 1524.84 C 1474.39 1524.22 1467.12 1518.37 1462.81 1515.46 C 1442.93 1497.17 1433.5 1488.61 1408.94 1476.25 z"
     id="path114" />
  <path
     transform="translate(0,0)"
     fill="rgb(241,99,37)"
     d="M 1009.91 697.135 C 1020.91 697.095 1028.44 696.953 1039.49 695.855 L 1039.08 714.978 C 1040.32 749.158 1043.28 794.643 1048.66 828.877 C 1037.25 831.703 1033.86 833.831 1023.81 840.181 C 1018.83 804.182 1010.84 751.876 1010.9 716.159 L 1009.91 697.135 z"
     id="path115" />
  <path
     transform="translate(0,0)"
     fill="rgb(215,89,37)"
     d="M 1009.91 697.135 C 1020.91 697.095 1028.44 696.953 1039.49 695.855 L 1039.08 714.978 C 1031.09 715.395 1018.42 716.493 1010.9 716.159 L 1009.91 697.135 z"
     id="path116" />
  <path
     transform="translate(0,0)"
     fill="rgb(92,62,46)"
     d="M 1104.29 1482.45 C 1139.52 1467.4 1161.83 1476.06 1168.47 1515.8 C 1143.55 1527.72 1118.42 1539.22 1093.1 1550.28 C 1078.52 1556.78 1062.26 1564.62 1047.59 1570.23 C 1045.41 1563.67 1043.12 1556.22 1040.77 1549.8 C 1078.26 1538.36 1114.47 1520.73 1144.81 1495.74 C 1141.15 1496.92 1136.68 1498.2 1133.25 1499.79 C 1130.6 1495.35 1128.05 1490.95 1123.32 1488.52 C 1115.85 1486.54 1111.48 1485.23 1104.29 1482.45 z"
     id="path117" />
  <path
     transform="translate(0,0)"
     fill="rgb(95,107,115)"
     d="M 1054.13 842.094 C 1062.84 842.949 1073.46 873.143 1076.11 880.702 L 1075.86 881.08 C 1068.98 891.76 1054.04 907.95 1041.76 912.328 C 1035.54 914.546 1032.04 912.387 1026.61 909.505 C 1018.8 904.959 1002.92 897.048 998.716 889.724 C 996.906 872.77 1038.63 845.533 1054.13 842.094 z"
     id="path118" />
  <path
     transform="translate(0,0)"
     fill="rgb(215,89,37)"
     d="M 1045.7 863.612 C 1065.16 876.678 1051.18 900.224 1035.64 894.891 C 1029.06 891.573 1026.27 889.828 1020.2 885.606 C 1026.37 879.447 1038.81 868.452 1045.7 863.612 z"
     id="path119" />
  <path
     transform="translate(0,0)"
     fill="rgb(241,99,37)"
     d="M 899.969 780.26 C 922.462 801.05 946.713 819.854 972.449 836.463 C 982.686 843.111 995.462 849.694 1004.91 856.232 C 997.764 862.889 993.185 868.41 986.651 875.134 C 943.536 848.05 923.31 834.31 884.804 801.92 C 887.384 786.92 889.154 790.324 899.969 780.26 z"
     id="path120" />
  <path
     transform="translate(0,0)"
     fill="rgb(95,107,115)"
     d="M 1233.43 968.498 C 1234.81 964.787 1234.26 964.294 1236.92 962.412 C 1254.93 963.27 1272.15 963.665 1290.16 962.942 C 1294.73 962.758 1295 966.26 1295.58 969.812 C 1295.54 970.604 1295.5 971.395 1295.46 972.187 C 1292.47 1022.44 1261.68 1018.96 1222.2 1014.58 C 1223.8 1003.61 1230.54 979.863 1233.43 968.498 z"
     id="path121" />
  <path
     transform="translate(0,0)"
     fill="rgb(133,146,155)"
     d="M 1233.43 968.498 C 1234.81 964.787 1234.26 964.294 1236.92 962.412 C 1254.93 963.27 1272.15 963.665 1290.16 962.942 C 1294.73 962.758 1295 966.26 1295.58 969.812 C 1279.92 972.563 1247.79 974.225 1233.43 968.498 z"
     id="path122" />
  <path
     transform="translate(0,0)"
     fill="rgb(215,89,37)"
     d="M 1248.67 980.228 C 1257.2 980.058 1264.16 980.561 1272.71 981.165 C 1271.72 990.589 1269.96 998.083 1267.79 1007.29 C 1258.33 1007.78 1253.41 1007.41 1243.82 1006.62 C 1244.54 997.32 1246.64 989.303 1248.67 980.228 z"
     id="path123" />
  <path
     transform="translate(0,0)"
     fill="rgb(130,91,58)"
     d="M 1104.29 1482.45 C 1111.48 1485.23 1115.85 1486.54 1123.32 1488.52 C 1128.05 1490.95 1130.6 1495.35 1133.25 1499.79 C 1100.67 1512.99 1067.59 1528.11 1034.63 1539.47 C 1029.41 1532.26 1026.27 1529.85 1019.47 1524.05 C 1015.13 1521.2 1009.26 1518.4 1004.56 1515.97 C 1038.03 1505.5 1071.28 1494.32 1104.29 1482.45 z"
     id="path124" />
  <path
     transform="translate(0,0)"
     fill="rgb(197,154,112)"
     d="M 1104.29 1482.45 C 1111.48 1485.23 1115.85 1486.54 1123.32 1488.52 C 1104.84 1497.12 1039.57 1519.95 1019.47 1524.05 C 1015.13 1521.2 1009.26 1518.4 1004.56 1515.97 C 1038.03 1505.5 1071.28 1494.32 1104.29 1482.45 z"
     id="path125" />
  <path
     transform="translate(0,0)"
     fill="rgb(40,69,102)"
     d="M 1443.66 492.419 C 1474.74 490.317 1495.81 491.464 1526.01 498.997 C 1509.37 507.626 1492.87 513.293 1475.24 519.427 C 1458.24 525.32 1440.67 530.902 1423.56 536.552 C 1419.52 522.022 1415.4 509.536 1410.5 495.246 C 1421.26 494.571 1432.86 493.356 1443.66 492.419 z"
     id="path126" />
  <path
     transform="translate(0,0)"
     fill="rgb(118,154,72)"
     d="M 1453.88 1222.69 C 1452.64 1176.84 1488.55 1144.15 1530.02 1132.38 C 1529.21 1136.61 1528.31 1137.44 1525.86 1141.17 C 1520.13 1152.27 1513.44 1163.5 1507.1 1174.31 C 1490.49 1196.83 1472.42 1222.16 1454.05 1243.14 C 1453.74 1236.57 1453.11 1229.16 1453.88 1222.69 z"
     id="path127" />
  <path
     transform="translate(0,0)"
     fill="rgb(154,182,88)"
     d="M 1453.88 1222.69 C 1452.64 1176.84 1488.55 1144.15 1530.02 1132.38 C 1529.21 1136.61 1528.31 1137.44 1525.86 1141.17 C 1490.62 1153.96 1467.03 1182.05 1457.59 1217.03 C 1456.73 1220.25 1456.96 1227.66 1455.52 1229.39 C 1453.53 1226.49 1455.14 1226.29 1453.88 1222.69 z"
     id="path128" />
  <path
     transform="translate(0,0)"
     fill="rgb(95,135,72)"
     d="M 1672.88 1313.12 C 1671.06 1316.58 1666.61 1319.87 1663.71 1322.56 C 1624.55 1358.83 1589.6 1364.19 1542.18 1340.3 C 1564.01 1333.3 1585.7 1326.01 1607.97 1320.55 C 1612.21 1319.51 1616.48 1318.58 1620.68 1317.39 L 1619.28 1316 C 1632.04 1314.27 1647.29 1318.41 1664.03 1314 C 1667.04 1314 1669.9 1313.52 1672.88 1313.12 z"
     id="path129" />
  <path
     transform="translate(0,0)"
     fill="rgb(95,135,72)"
     d="M 1530.02 1132.38 L 1532.96 1131.5 C 1535.6 1133.83 1535.53 1139.15 1535.76 1142.74 C 1539.04 1192.21 1520.34 1238.47 1468.07 1250.29 C 1477.04 1235.75 1505.12 1190.36 1507.1 1174.31 C 1513.44 1163.5 1520.13 1152.27 1525.86 1141.17 C 1528.31 1137.44 1529.21 1136.61 1530.02 1132.38 z"
     id="path130" />
  <path
     transform="translate(0,0)"
     fill="rgb(118,154,72)"
     d="M 1545.65 1324.2 C 1542.34 1325.46 1543.48 1325.59 1540.4 1325.17 C 1540.67 1322.53 1541.84 1321.6 1543.51 1319.65 C 1564.6 1294.99 1596.66 1284.79 1628.18 1292.34 C 1641.39 1295.5 1662.51 1303.86 1672.88 1313.12 C 1669.9 1313.52 1667.04 1314 1664.03 1314 C 1647.29 1318.41 1632.04 1314.27 1619.28 1316 C 1591.23 1316.54 1573.32 1316.97 1545.65 1324.2 z"
     id="path131" />
  <path
     transform="translate(0,0)"
     fill="rgb(154,182,88)"
     d="M 1545.65 1324.2 C 1542.34 1325.46 1543.48 1325.59 1540.4 1325.17 C 1540.67 1322.53 1541.84 1321.6 1543.51 1319.65 C 1564.6 1294.99 1596.66 1284.79 1628.18 1292.34 C 1641.39 1295.5 1662.51 1303.86 1672.88 1313.12 C 1669.9 1313.52 1667.04 1314 1664.03 1314 C 1640.72 1302.49 1606.35 1294.7 1582.18 1304.98 C 1574.91 1308.07 1549.03 1317.61 1545.65 1324.2 z"
     id="path132" />
  <path
     transform="translate(0,0)"
     fill="rgb(95,135,72)"
     d="M 1384.64 1162.15 L 1385.89 1161.57 C 1397.96 1175.26 1410.34 1206.06 1408.53 1225.02 C 1406.44 1246.94 1398.62 1259.14 1385.06 1275.26 C 1385.01 1266.96 1384.36 1215.74 1381.89 1211.28 L 1381.3 1211.12 C 1382.83 1199.53 1384.31 1186.08 1385.23 1174.45 C 1384.9 1169.09 1386.06 1168.7 1384.64 1162.15 z"
     id="path133" />
  <path
     transform="translate(0,0)"
     fill="rgb(118,154,72)"
     d="M 1384.64 1162.15 C 1386.06 1168.7 1384.9 1169.09 1385.23 1174.45 C 1384.31 1186.08 1382.83 1199.53 1381.3 1211.12 C 1377.76 1236.15 1373.49 1250.97 1371.69 1277.28 C 1366.42 1268.94 1360.83 1260.69 1358.23 1251.1 C 1346.54 1216.3 1362.55 1188.07 1384.64 1162.15 z"
     id="path134" />
  <path
     transform="translate(0,0)"
     fill="rgb(154,182,88)"
     d="M 1384.64 1162.15 C 1386.06 1168.7 1384.9 1169.09 1385.23 1174.45 C 1374.77 1182.85 1361.53 1217.48 1360.15 1231.45 C 1359.54 1237.67 1360.79 1245.7 1358.23 1251.1 C 1346.54 1216.3 1362.55 1188.07 1384.64 1162.15 z"
     id="path135" />
  <path
     transform="translate(0,0)"
     fill="rgb(95,135,72)"
     d="M 1492.95 1420.65 C 1509.55 1420.64 1540.08 1426.08 1553.07 1424.68 C 1563.35 1426.49 1591.44 1438.11 1598.65 1435.9 L 1600.05 1437.58 L 1599.43 1438.8 C 1557.63 1458.83 1525.48 1452.82 1492.95 1420.65 z"
     id="path136" />
  <path
     transform="translate(0,0)"
     fill="rgb(118,154,72)"
     d="M 1493.25 1405.95 C 1535.16 1386.78 1573.67 1396.13 1598.65 1435.9 C 1591.44 1438.11 1563.35 1426.49 1553.07 1424.68 C 1530.49 1416.13 1517.01 1411.6 1493.25 1405.95 z"
     id="path137" />
  <path
     transform="translate(0,0)"
     fill="rgb(43,92,136)"
     d="M 586.157 1339.84 C 614.491 1302.92 621.722 1305.46 663.904 1294.43 C 655.091 1307.73 646.467 1323.47 637.719 1336.08 C 630.861 1333.24 604.197 1345.51 597.84 1337.85 L 597.919 1336.27 C 594.298 1337.37 589.081 1339.92 586.157 1339.84 z"
     id="path138" />
  <path
     transform="translate(0,0)"
     fill="rgb(215,89,37)"
     d="M 871.523 752.245 C 880.633 762.696 889.727 771.114 899.969 780.26 C 889.154 790.324 887.384 786.92 884.804 801.92 C 874.257 792.929 867.638 785.733 858.637 775.486 C 865.887 766.534 867.396 763.072 871.523 752.245 z"
     id="path139" />
  <path
     transform="translate(0,0)"
     fill="rgb(136,139,141)"
     d="M 1041.14 1337.1 C 1041 1339.99 1039.5 1341.51 1038.08 1343.87 C 1028.26 1360.19 1008.27 1375.05 989.863 1362.32 C 987.2 1359.7 984.28 1356.45 981.671 1353.69 C 1002.92 1350.92 1021.38 1344.69 1041.14 1337.1 z"
     id="path140" />
  <path
     transform="translate(0,0)"
     fill="rgb(254,254,254)"
     d="M 1288.81 1483.51 C 1289.24 1503.89 1287.89 1520.25 1272.83 1536.12 C 1260.32 1549.56 1243.02 1553.96 1226.74 1560.9 C 1224.06 1562.04 1218.07 1568.05 1215.19 1570.02 C 1192.24 1585.74 1169.35 1586.16 1145.52 1572.26 L 1095.96 1595.21 C 1087.39 1599.14 1072.57 1605.4 1065.14 1610.24 C 1050.75 1640.72 1033.66 1653.16 998.565 1650.66 C 990.664 1659.11 984.728 1666.5 973.882 1671.51 C 948.292 1683.34 922.842 1675.28 902.423 1657.79 C 909.832 1653.93 916.284 1650.68 923.901 1647.27 C 947.439 1665.58 970.834 1654.94 985.807 1631.98 C 989.617 1630.78 1007.69 1622.17 1006.98 1622.12 C 1006.38 1626.27 1005.66 1626.5 1007.01 1629.77 C 1016.79 1632.51 1032.67 1624.52 1038.43 1616.51 C 1044.74 1607.72 1046.49 1602.8 1048.41 1592.6 C 1076.73 1582.6 1119.52 1560.83 1149.21 1548.5 C 1180.17 1575.04 1190.4 1557.2 1217.37 1542.46 C 1245.7 1526.98 1262.6 1535.08 1269.36 1493.03 L 1288.81 1483.51 z"
     id="path141" />
</svg>
