<?xml version="1.0" encoding="UTF-8" standalone="no"?>
<svg
   version="1.1"
   style="display: block;"
   viewBox="0 0 2048 2048"
   width="1024"
   height="1024"
   preserveAspectRatio="xMidYMid meet"
   id="svg142"
   sodipodi:docname="jaycast-plain.svg"
   inkscape:version="1.4.2 (f4327f4, 2025-05-13)"
   inkscape:export-filename="jaycast-plain-export.png"
   inkscape:export-xdpi="13.44"
   inkscape:export-ydpi="13.44"
   xmlns:inkscape="http://www.inkscape.org/namespaces/inkscape"
   xmlns:sodipodi="http://sodipodi.sourceforge.net/DTD/sodipodi-0.dtd"
   xmlns:xlink="http://www.w3.org/1999/xlink"
   xmlns="http://www.w3.org/2000/svg"
   xmlns:svg="http://www.w3.org/2000/svg">
  <sodipodi:namedview
     id="namedview142"
     pagecolor="#ffffff"
     bordercolor="#666666"
     borderopacity="0"
     inkscape:showpageshadow="2"
     inkscape:pageopacity="0.0"
     inkscape:pagecheckerboard="true"
     inkscape:deskcolor="#d1d1d1"
     inkscape:zoom="0.82656915"
     inkscape:cx="547.44361"
     inkscape:cy="561.96145"
     inkscape:window-width="1750"
     inkscape:window-height="1211"
     inkscape:window-x="270"
     inkscape:window-y="150"
     inkscape:window-maximized="0"
     inkscape:current-layer="layer1"
     showborder="false"
     labelstyle="default" />
  <defs
     id="defs18">
    <linearGradient
       id="swatch1"
       inkscape:swatch="solid">
      <stop
         style="stop-color:#fefefe;stop-opacity:1;"
         offset="0"
         id="stop19" />
    </linearGradient>
    <linearGradient
       id="swatch145"
       inkscape:swatch="solid">
      <stop
         style="stop-color:#000000;stop-opacity:1;"
         offset="0"
         id="stop145" />
    </linearGradient>
    <linearGradient
       id="swatch144"
       inkscape:swatch="solid">
      <stop
         style="stop-color:#2b5c88;stop-opacity:1;"
         offset="0"
         id="stop144" />
    </linearGradient>
    <linearGradient
       id="swatch143"
       inkscape:swatch="solid">
      <stop
         style="stop-color:#000000;stop-opacity:1;"
         offset="0"
         id="stop143" />
    </linearGradient>
    <linearGradient
       id="swatch142"
       inkscape:swatch="solid">
      <stop
         style="stop-color:#296ba0;stop-opacity:1;"
         offset="0"
         id="stop142" />
    </linearGradient>
    <linearGradient
       id="Gradient1"
       gradientUnits="userSpaceOnUse"
       x1="1452.34"
       y1="1513.37"
       x2="1470.81"
       y2="1493.87">
      <stop
         class="stop0"
         offset="0"
         stop-opacity="1"
         stop-color="rgb(86,130,62)"
         id="stop1" />
      <stop
         class="stop1"
         offset="1"
         stop-opacity="1"
         stop-color="rgb(162,188,95)"
         id="stop2" />
    </linearGradient>
    <linearGradient
       id="Gradient2"
       gradientUnits="userSpaceOnUse"
       x1="739.41"
       y1="1205.71"
       x2="754.327"
       y2="1238.79">
      <stop
         class="stop0"
         offset="0"
         stop-opacity="1"
         stop-color="rgb(28,68,99)"
         id="stop3" />
      <stop
         class="stop1"
         offset="1"
         stop-opacity="1"
         stop-color="rgb(51,110,162)"
         id="stop4" />
    </linearGradient>
    <linearGradient
       id="Gradient3"
       gradientUnits="userSpaceOnUse"
       x1="1247.42"
       y1="1476.89"
       x2="1205.89"
       y2="1477.97">
      <stop
         class="stop0"
         offset="0"
         stop-opacity="1"
         stop-color="rgb(96,108,125)"
         id="stop5" />
      <stop
         class="stop1"
         offset="1"
         stop-opacity="1"
         stop-color="rgb(125,139,146)"
         id="stop6" />
    </linearGradient>
    <linearGradient
       id="Gradient4"
       gradientUnits="userSpaceOnUse"
       x1="1357.85"
       y1="1410.42"
       x2="1316.79"
       y2="1365.89">
      <stop
         class="stop0"
         offset="0"
         stop-opacity="1"
         stop-color="rgb(98,61,33)"
         id="stop7" />
      <stop
         class="stop1"
         offset="1"
         stop-opacity="1"
         stop-color="rgb(197,158,121)"
         id="stop8" />
    </linearGradient>
    <linearGradient
       id="Gradient5"
       gradientUnits="userSpaceOnUse"
       x1="544.387"
       y1="1497.14"
       x2="576.221"
       y2="1519.11">
      <stop
         class="stop0"
         offset="0"
         stop-opacity="1"
         stop-color="rgb(30,70,102)"
         id="stop9" />
      <stop
         class="stop1"
         offset="1"
         stop-opacity="1"
         stop-color="rgb(45,104,155)"
         id="stop10" />
    </linearGradient>
    <linearGradient
       id="Gradient6"
       gradientUnits="userSpaceOnUse"
       x1="934.109"
       y1="668.556"
       x2="968.092"
       y2="839.923">
      <stop
         class="stop0"
         offset="0"
         stop-opacity="1"
         stop-color="rgb(24,82,124)"
         id="stop11" />
      <stop
         class="stop1"
         offset="1"
         stop-opacity="1"
         stop-color="rgb(48,116,174)"
         id="stop12" />
    </linearGradient>
    <linearGradient
       id="Gradient7"
       gradientUnits="userSpaceOnUse"
       x1="1096.41"
       y1="294.545"
       x2="1086.81"
       y2="354.89">
      <stop
         class="stop0"
         offset="0"
         stop-opacity="1"
         stop-color="rgb(255,210,146)"
         id="stop13" />
      <stop
         class="stop1"
         offset="1"
         stop-opacity="1"
         stop-color="rgb(206,216,217)"
         id="stop14" />
    </linearGradient>
    <linearGradient
       id="Gradient8"
       gradientUnits="userSpaceOnUse"
       x1="1132.27"
       y1="681.594"
       x2="896.58"
       y2="339.637">
      <stop
         class="stop0"
         offset="0"
         stop-opacity="1"
         stop-color="rgb(40,141,191)"
         id="stop15" />
      <stop
         class="stop1"
         offset="1"
         stop-opacity="1"
         stop-color="rgb(25,176,218)"
         id="stop16" />
    </linearGradient>
    <linearGradient
       id="Gradient9"
       gradientUnits="userSpaceOnUse"
       x1="1715.81"
       y1="2232.01"
       x2="331.188"
       y2="-185.008">
      <stop
         class="stop0"
         offset="0"
         stop-opacity="1"
         stop-color="rgb(37,35,36)"
         id="stop17" />
      <stop
         class="stop1"
         offset="1"
         stop-opacity="1"
         stop-color="rgb(74,89,100)"
         id="stop18" />
    </linearGradient>
    <linearGradient
       inkscape:collect="always"
       xlink:href="#swatch142"
       id="linearGradient142"
       x1="1227.74"
       y1="657.0059"
       x2="1371.66"
       y2="657.0059"
       gradientUnits="userSpaceOnUse" />
    <linearGradient
       inkscape:collect="always"
       xlink:href="#swatch143"
       id="linearGradient143"
       x1="1227.74"
       y1="657.0059"
       x2="1371.66"
       y2="657.0059"
       gradientUnits="userSpaceOnUse" />
    <linearGradient
       inkscape:collect="always"
       xlink:href="#swatch144"
       id="linearGradient144"
       x1="1096.22"
       y1="620.4"
       x2="1348.37"
       y2="620.4"
       gradientUnits="userSpaceOnUse" />
    <linearGradient
       inkscape:collect="always"
       xlink:href="#swatch144"
       id="linearGradient145"
       x1="1096.22"
       y1="620.40002"
       x2="1348.37"
       y2="620.40002"
       gradientUnits="userSpaceOnUse" />
    <linearGradient
       inkscape:collect="always"
       xlink:href="#swatch1"
       id="linearGradient19"
       x1="872.597"
       y1="1430.2455"
       x2="1091.99"
       y2="1430.2455"
       gradientUnits="userSpaceOnUse" />
  </defs>
  <g
     inkscape:groupmode="layer"
     id="layer1"
     inkscape:label="Layer 1"
     style="display:inline">
    <path
       fill="#fefefe"
       d="m 557.5,168.496 690.78,0.034 187.63,-0.06 c 47.17,-0.003 101.1,-2.535 146.72,6.531 69.11,13.199 132.86,46.26 183.47,95.135 72.19,70.05 110.46,164.723 110.9,264.925 0.33,75.142 0.03,150.308 0.03,225.454 l 0.05,449.425 0.02,200.84 c 0,52.12 2.85,109.24 -7.43,159.86 -14.04,72.3 -48.98,138.9 -100.49,191.54 -70.31,71.63 -166.07,115.84 -266.99,116.72 l -685.098,-0.01 -182.385,0.05 c -52.51,0.04 -111.872,2.99 -162.511,-8.21 C 401.201,1854.77 336.192,1819 284.727,1767.55 211.681,1695.53 170.682,1597.15 170.965,1494.57 L 170.95,816.949 170.952,623.46 c 0,-54.972 -2.805,-114.989 8.639,-168.464 14.45,-67.758 48.079,-129.932 96.878,-179.112 60.042,-60.612 139.56,-98.074 224.528,-105.777 18.862,-1.831 37.574,-1.589 56.503,-1.611 z"
       id="path19"
       style="display:none"
       inkscape:label="path19 icon border white" />
    <path
       fill="#888b8d"
       d="m 405.233,1810.94 c -84.806,-40.61 -149.957,-113.31 -181.064,-202.05 -9.873,-27.76 -15.833,-56.77 -17.707,-86.18 -1.581,-24.46 -1.013,-51.1 -1.002,-75.73 l 0.053,-114.03 -0.023,-360.08 0.025,-303.063 -0.059,-89.536 c -0.036,-23.955 -0.452,-48.038 1.67,-71.911 3.515,-42.225 14.766,-83.445 33.19,-121.602 38.554,-77.839 106.411,-137.208 188.682,-165.08 26.09,-9.005 53.236,-14.592 80.761,-16.62 21.332,-1.362 48.732,-0.64 70.564,-0.635 l 121.009,0.036 377.328,-0.007 308.78,0.009 95.64,-0.003 c 19.52,0.002 44.23,-0.555 63.45,1.211 39.11,3.911 77.2,14.837 112.45,32.255 78.05,38.367 137.54,106.345 165.21,188.804 9.43,28.576 15.19,58.237 17.13,88.268 1.71,26.053 1.14,54.994 1.15,81.372 l 0.04,121.287 0.02,368.275 -0.07,285.01 0.09,95.84 c -0.08,74.88 -2.83,118.83 -37.46,187.59 -42.45,82.34 -115.62,144.66 -203.67,173.46 -65.93,21.61 -127.64,16.56 -195.86,16.53 l -213.53,-0.03 H 883.657 c -51.134,0 -110.383,1.48 -160.956,-0.26 l -25.507,-0.17 c -16.76,0.54 -36.059,0.07 -53.021,0.06 -8.946,0.08 -18.056,-0.06 -27.018,-0.1 l -51.219,0.27 c -8.864,0.03 -24.423,0.34 -32.831,-1.04 l -1.74,-0.05 c -21.053,0.45 -59.115,-7.75 -79.044,-14.45 -5.089,-0.99 -18.507,-5.94 -24.374,-7.73 -7.59,-3.26 -15.161,-6.57 -22.714,-9.92 z"
       id="path20"
       style="display:none"
       inkscape:label="path20 icon bg grey" />
    <path
       id="path21-4"
       style="display:inline"
       inkscape:label="path21 black new"
       d="m 1055.5234,273.29297 c -19.3118,0.98355 -38.5952,3.23131 -57.67574,6.60156 -69.731,12.318 -193.93929,57.96766 -234.98828,117.59766 -9.944,14.446 -11.72054,25.90475 -8.51954,42.96875 -5.969,13.552 -10.426,24.27334 -15.5,38.15234 -7.215,4.752 -13.57837,10.56297 -16.98437,19.04297 -7.637,19.011 -10.80585,45.25391 -11.08985,65.62891 -0.22799,16.352 8.68972,17.10953 10.63672,32.01953 1.187,9.786 2.33444,20.28 3.39844,30 1.755,16.031 5.72841,26.98787 1.19141,42.79687 -2.855,9.945 4.14393,27.665 7.58593,37.75 16.11901,47.233 53.36807,108.61822 112.41407,85.82422 l 8.68359,8.17578 c -3.986,16.778 -12.43497,54.3255 -19.16797,69.3125 -7.856,-1.338 -37.71947,18.40013 -45.48047,23.82813 -69.138,48.353 -115.95971,118.35731 -155.38672,191.52731 -3.91899,7.27 -21.38549,25.1289 -27.8125,32.3789 -10.89,12.38 -21.17159,25.2802 -30.80859,38.6602 -40.923,56.8 -79.42947,146.0702 -104.10547,213.1602 12.43,-3.1401 24.84238,-6.3507 37.23438,-9.6407 -39.228,41.02 -77.39394,83.0435 -114.46094,126.0235 -22.334,25.91 -46.60697,53.2601 -63.79297,82.4101 -17.984,30.5 -34.78928,82.0674 -4.11328,110.2774 31.005,28.53 71.47484,15.5503 103.21484,-2.1797 30.94,7.53 59.52732,2.9622 86.82032,-13.5078 59.827,-36.08 148.70078,-209.9097 192.05078,-272.1797 20.379,-6.55 45.92718,-12.8632 65.24219,-20.7031 8.417,30.6799 19.7984,33.6612 35.3164,56.2812 11.018,16.06 29.16863,42.7619 38.64063,59.1719 -22.688,12.73 -43.438,36.8462 -34,64.6562 -19.046,5.39 -41.76166,10.5017 -58.97266,19.5117 6.203,-29.85 2.80828,-49.89 -14.38672,-76.25 -8.622,-12.97 -19.52378,-24.2598 -32.17578,-33.3398 -37.73,47.82 -57.81972,100.0192 -17.38672,153.6992 -20.56,24.09 -41.44656,43.3119 -65.72656,63.4219 -21.113,17.5 -45.00034,19.5784 -68.40235,32.3984 -30.11599,18.58 -58.91503,40.2616 -88.45703,60.1016 -13.797,9.2 -27.68034,18.2575 -41.65234,27.1875 -5.003,3.25 -17.54588,11.1328 -21.67187,14.8828 7.55299,3.35 15.12093,6.658 22.71093,9.918 5.867,1.79 19.286,6.7404 24.375,7.7304 19.929,6.7 57.98997,14.8993 79.04297,14.4493 l 1.74219,0.051 c 8.408,1.38 23.96803,1.0691 32.83203,1.0391 l 51.21875,-0.2695 c 8.962,0.04 18.06962,0.1815 27.01563,0.1015 16.96199,0.01 36.26343,0.4775 53.02343,-0.062 l 25.50391,0.1719 c 18.038,-21.2 37.50969,-50.1019 55.67969,-72.6719 66.927,28.57 120.42878,2.7297 156.42578,-58.3203 -25.795,-17.02 -57.37485,-25.6176 -88.21485,-21.8476 15.763,-13.04 37.05003,-25.3514 55.83204,-33.4414 7.40899,-3.86 13.86346,-7.1096 21.48046,-10.5196 23.538,18.31 46.93325,7.671 61.90625,-15.289 3.65029,-1.1497 20.39121,-9.1 21.16411,-9.8086 -0.5985,4.1016 -1.3055,4.3409 0.039,7.5976 9.78,2.74 25.658,-5.2478 31.418,-13.2578 6.31,-8.79 8.0605,-13.7101 9.9805,-23.9101 28.32,-10 71.1107,-31.7716 100.8007,-44.1016 30.96,26.54 41.1902,8.7009 68.1602,-6.0391 28.33,-15.48 45.2283,-7.3797 51.9883,-49.4297 l 19.4492,-9.5195 c 28.36,-17 62.1823,-11.0636 92.4023,-1.6836 9.33,27.07 17.6999,47.5219 42.5899,64.1719 29.3,19.61 62.7009,18.8184 95.7109,12.3984 -6.74,-53.44 -36.5415,-101.4801 -96.6015,-100.1601 -6.81,0.15 -24.9216,4.4519 -30.6016,3.1719 -15.71,-3.55 -30.1792,-8.1113 -46.1992,-11.2813 61.58,-36.37 52.6498,-37.7084 123.8398,-30.8984 5.36,6.22 10.8989,13.6307 16.6289,19.3007 38.9,38.56 92.7105,33.0499 136.4805,7.5899 -14.2,-30.25 -29.138,-50.3419 -61.418,-62.1719 -26.43,-9.69 -54.4397,-3.9883 -78.4297,9.2617 -4.75,2.62 -9.6903,4.9896 -14.5703,7.2696 -9.07,-0.77 -18.1414,-1.6394 -27.1914,-2.6094 26.23,-14.28 62.9316,-30.6714 90.6016,-43.6914 26.06,13.42 41.57,19.6105 72.25,16.7305 37.13,-3.49 70.9509,-32.7383 93.4609,-60.9883 -46.59,-40.28 -117.0198,-54.19 -162.8398,-5.75 -6.32,6.68 -11.9422,13.82 -18.2422,20.5 -5.12,1.62 -11.0186,2.9276 -16.3086,3.8476 -36.18,6.29 -70.44,16.6788 -105.75,26.4688 10,-21.71 42.0987,-68.1271 63.2187,-83.2071 7.1,-3.2299 17.0288,-5.3121 24.2188,-7.7421 69.81,-23.56 77.9495,-90.9793 65.0195,-153.6993 -63.39,11.73 -113.6975,53.3108 -110.6875,121.5508 0.22,4.96 3.8994,24.7096 2.1094,27.5196 -7.22,11.32 -28.5191,21.0404 -40.0391,27.2304 4.78,-5.84 8.87,-11.0823 13,-17.4023 27.85,-42.56 11.1405,-98.6202 -24.2695,-131.6602 -2.67,2.19 -5.2612,4.4721 -7.7812,6.8321 -42.91,41 -58.4618,95.1995 -21.0118,144.0195 4.61,6.02 8.5833,11.3505 8.3633,19.2305 -3.68,5.96 -19.3311,22.5306 -25.1211,29.6406 -6.08,7.46 -20.9322,29.4398 -25.2422,33.5898 -17.09,16.48 -60.7775,34.4906 -83.4375,43.8906 -1.55,-5.0299 -10.5898,-8.8628 -14.8398,-11.1328 -19.53,-10.41 -41.9819,-3.499 -61.6719,-10.039 -8.56,-2.85 -20.2183,-9.6183 -28.7383,-13.9883 -16.39,-8.52 -32.89,-16.8224 -49.5,-24.9023 9.82,-16.28 32.6889,-25.9172 49.1289,-36.1172 22.47,-14.1 43.5414,-30.3124 62.9414,-48.4024 57.85,-53.4 98.4377,-122.8375 116.5977,-199.4375 2.72,-11.64 6.6703,-27.5406 7.3203,-39.3906 0.59,-10.66 -2.8775,-15.8897 -9.9375,-22.9297 11.14,-26.14099 20.9377,-51.56665 7.0977,-78.72265 l 0.5508,-2.87109 c 6.81,-34.488 18.9,-56.08154 42.5,-81.89454 22.16,-24.233 31.0492,-18.1769 60.4492,-23.8789 39.6,-7.679 73.3325,-25.91872 106.5625,-48.13672 l 30.9687,-0.63281 c -2.86,-6.592 -6.2394,-12.9441 -10.1094,-18.9961 -30.4199,-47.021 -96.5125,-62.82575 -147.5624,-73.71875 -5.6201,-24.653 -10.9999,-40.31768 -23.0899,-62.55468 11.13,-4.439 21.5903,-10.40828 31.0703,-17.73828 16.52,-12.634 22.9111,-22.92138 25.6211,-43.48438 26.25,-9.343 103.988,-29.62556 118.168,-48.97656 4.64,-6.334 6.2603,-14.62331 4.8203,-22.32032 -1.34,-7.11999 -5.327,-12.77643 -11.207,-16.89843 -10.82,-7.58 -24.7216,-12.25875 -36.6016,-18.09375 -33.18,-16.299 -66.4298,-31.9176 -99.0898,-49.3086 -23.9,-12.728 -46.8086,-26.67475 -69.5586,-41.34375 -12.26,-7.908 -24.2107,-16.73315 -36.8907,-23.91015 -7.91,-4.475 -16.642,-2.57097 -24.582,-6.66797 -16.29,-8.4 -31.2076,-18.30634 -48.0977,-25.77735 -53.64,-23.73449 -111.8222,-32.17329 -169.7578,-29.22265 z M 947.92188,1379.4805 c 1.77999,0.5 16.93253,18.0303 23.26953,21.3203 27.683,14.35 57.33889,25.3286 84.37889,40.8086 -2.75,5.25 -4.7708,11.4017 -6.8008,17.0117 -15.34,4.95 -30.6086,10.1178 -45.8086,15.5078 -28.46096,8.96 -27.65128,9.6006 -55.57028,-1.1094 -14.061,-23.47 -35.83546,-56.4403 -47.10546,-79.5703 l 10.38672,-10.3906 c 12.28099,-0.53 25.064,-2.0381 37.25,-3.5781 z" />
    <path
       fill="#000000"
       d="m 754.338,440.462 c -3.201,-17.064 -1.422,-28.523 8.522,-42.969 41.049,-59.63 165.257,-105.28 234.988,-117.598 76.322,-13.481 155.912,-9.025 227.432,22.621 16.89,7.471 31.81,17.376 48.1,25.776 7.94,4.097 16.67,2.192 24.58,6.667 12.68,7.177 24.63,16.003 36.89,23.911 22.75,14.669 45.66,28.618 69.56,41.346 32.66,17.391 65.91,33.007 99.09,49.306 11.88,5.835 25.78,10.516 36.6,18.096 5.88,4.122 9.87,9.778 11.21,16.898 1.44,7.697 -0.18,15.987 -4.82,22.321 -14.18,19.351 -91.92,39.632 -118.17,48.975 -2.71,20.563 -9.1,30.851 -25.62,43.485 -9.48,7.33 -19.94,13.301 -31.07,17.74 12.09,22.237 17.47,37.899 23.09,62.552 51.05,10.893 117.14,26.7 147.56,73.721 3.87,6.052 7.25,12.404 10.11,18.996 l -30.97,0.631 c -33.23,22.218 -66.96,40.457 -106.56,48.136 -29.4,5.702 -38.29,-0.351 -60.45,23.882 -23.6,25.813 -35.69,47.406 -42.5,81.894 l -0.55,2.871 c 13.84,27.156 4.04,52.579 -7.1,78.72 7.06,7.04 10.53,12.27 9.94,22.93 -0.65,11.85 -4.6,27.75 -7.32,39.39 -18.16,76.6 -58.75,146.04 -116.6,199.44 -19.4,18.09 -40.47,34.3 -62.94,48.4 -16.44,10.2 -39.31,19.84 -49.13,36.12 16.61,8.08 33.11,16.38 49.5,24.9 8.52,4.37 20.18,11.14 28.74,13.99 19.69,6.54 42.14,-0.37 61.67,10.04 4.25,2.27 13.29,6.1 14.84,11.13 22.66,-9.4 66.35,-27.41 83.44,-43.89 4.31,-4.15 19.16,-26.13 25.24,-33.59 5.79,-7.11 21.44,-23.68 25.12,-29.64 0.22,-7.88 -3.75,-13.21 -8.36,-19.23 -37.45,-48.82 -21.9,-103.02 21.01,-144.02 2.52,-2.36 5.11,-4.64 7.78,-6.83 35.41,33.04 52.12,89.1 24.27,131.66 -4.13,6.32 -8.22,11.56 -13,17.4 11.52,-6.19 32.82,-15.91 40.04,-27.23 1.79,-2.81 -1.89,-22.56 -2.11,-27.52 -3.01,-68.24 47.3,-109.82 110.69,-121.55 12.93,62.72 4.79,130.14 -65.02,153.7 -7.19,2.43 -17.12,4.51 -24.22,7.74 -21.12,15.08 -53.22,61.5 -63.22,83.21 35.31,-9.79 69.57,-20.18 105.75,-26.47 5.29,-0.92 11.19,-2.23 16.31,-3.85 6.3,-6.68 11.92,-13.82 18.24,-20.5 45.82,-48.44 116.25,-34.53 162.84,5.75 -22.51,28.25 -56.33,57.5 -93.46,60.99 -30.68,2.88 -46.19,-3.31 -72.25,-16.73 -27.67,13.02 -64.37,29.41 -90.6,43.69 9.05,0.97 18.12,1.84 27.19,2.61 4.88,-2.28 9.82,-4.65 14.57,-7.27 23.99,-13.25 52,-18.95 78.43,-9.26 32.28,11.83 47.22,31.92 61.42,62.17 -43.77,25.46 -97.58,30.97 -136.48,-7.59 -5.73,-5.67 -11.27,-13.08 -16.63,-19.3 -71.19,-6.81 -62.26,-5.47 -123.84,30.9 16.02,3.17 30.49,7.73 46.2,11.28 5.68,1.28 23.79,-3.02 30.6,-3.17 60.06,-1.32 89.86,46.72 96.6,100.16 -33.01,6.42 -66.41,7.21 -95.71,-12.4 -24.89,-16.65 -33.26,-37.1 -42.59,-64.17 -30.22,-9.38 -64.04,-15.32 -92.4,1.68 l -19.45,9.52 c -6.76,42.05 -23.66,33.95 -51.99,49.43 -26.97,14.74 -37.2,32.58 -68.16,6.04 -29.69,12.33 -72.48,34.1 -100.8,44.1 -1.92,10.2 -3.67,15.12 -9.98,23.91 -5.76,8.01 -21.64,16 -31.42,13.26 -1.35,-3.27 -0.63,-3.5 -0.03,-7.65 0.71,0.05 -17.363,8.66 -21.173,9.86 -14.973,22.96 -38.368,33.6 -61.906,15.29 -7.617,3.41 -14.069,6.66 -21.478,10.52 -18.782,8.09 -40.07,20.4 -55.833,33.44 30.84,-3.77 62.419,4.83 88.214,21.85 -35.997,61.05 -89.499,86.89 -156.426,58.32 -18.17,22.57 -37.639,51.47 -55.677,72.67 l -25.507,-0.17 c -16.76,0.54 -36.059,0.07 -53.021,0.06 -8.946,0.08 -18.056,-0.06 -27.018,-0.1 l -51.219,0.27 c -8.864,0.03 -24.423,0.34 -32.831,-1.04 l -1.74,-0.05 c -21.053,0.45 -59.115,-7.75 -79.044,-14.45 -5.089,-0.99 -18.507,-5.94 -24.374,-7.73 -7.59,-3.26 -15.161,-6.57 -22.714,-9.92 4.126,-3.75 16.669,-11.63 21.672,-14.88 13.972,-8.93 27.857,-17.99 41.654,-27.19 29.542,-19.84 58.342,-41.52 88.458,-60.1 23.402,-12.82 47.287,-14.9 68.4,-32.4 24.28,-20.11 45.168,-39.33 65.728,-63.42 -40.433,-53.68 -20.343,-105.88 17.387,-153.7 12.652,9.08 23.554,20.37 32.176,33.34 17.195,26.36 20.588,46.4 14.385,76.25 17.211,-9.01 39.928,-14.12 58.974,-19.51 -9.438,-27.81 11.311,-51.93 33.999,-64.66 -9.472,-16.41 -27.624,-43.11 -38.642,-59.17 -15.518,-22.62 -26.899,-25.6 -35.316,-56.28 -19.315,7.84 -44.861,14.15 -65.24,20.7 -43.35,62.27 -132.223,236.1 -192.05,272.18 -27.293,16.47 -55.883,21.04 -86.823,13.51 -31.74,17.73 -72.209,30.71 -103.214,2.18 -30.676,-28.21 -13.87,-79.78 4.114,-110.28 17.186,-29.15 41.458,-56.5 63.792,-82.41 37.067,-42.98 75.233,-85 114.461,-126.02 -12.392,3.29 -24.803,6.5 -37.233,9.64 24.676,-67.09 63.181,-156.36 104.104,-213.16 9.637,-13.38 19.92,-26.28 30.81,-38.66 6.427,-7.25 23.894,-25.11 27.813,-32.38 39.427,-73.17 86.248,-143.173 155.386,-191.526 7.761,-5.428 37.623,-25.169 45.479,-23.831 6.733,-14.987 15.183,-52.534 19.169,-69.312 l -8.683,-8.174 c -59.046,22.794 -96.296,-38.594 -112.415,-85.827 -3.442,-10.085 -10.441,-27.805 -7.586,-37.75 4.537,-15.809 0.562,-26.764 -1.193,-42.795 -1.064,-9.72 -2.21,-20.214 -3.397,-30 -1.947,-14.91 -10.866,-15.668 -10.638,-32.02 0.284,-20.375 3.456,-46.619 11.093,-65.63 3.406,-8.48 9.769,-14.291 16.984,-19.043 5.074,-13.879 9.528,-24.598 15.497,-38.15 z"
       id="path21"
       style="display:none"
       inkscape:label="path21 black" />
    <path
       fill="#825b3a"
       d="m 863.868,1555.23 c 5.749,2.99 12.148,4.81 18.334,6.85 11.261,1.56 24.447,16.76 29.908,26.33 -32.355,16.97 -71.609,32.34 -99.353,56.74 -6.228,5.47 -15.639,17.82 -21.102,24.75 -13.504,5.79 -50.584,45.47 -58.753,56.99 -2.079,0.22 -1.367,0.56 -2.36,-0.12 -5.062,15.04 -11.389,32.35 -21.286,44.94 -19.846,25.25 -43.621,48.38 -65.083,72.25 -8.946,0.08 -18.056,-0.06 -27.018,-0.1 l -51.219,0.27 c -8.864,0.03 -24.423,0.34 -32.831,-1.04 l -1.74,-0.05 c -21.053,0.45 -59.115,-7.75 -79.044,-14.45 -5.089,-0.99 -18.507,-5.94 -24.374,-7.73 4.12,-3.42 21.266,-13.88 26.886,-17.53 18.147,-11.89 36.212,-23.89 54.194,-36.02 19.305,-13.05 40.979,-30.66 59.966,-42.01 21.595,-10.02 39.602,-12.03 59.943,-25.42 44.035,-28.96 76.593,-80.35 122.315,-105.48 30.11,-16.54 78.941,-29.26 112.617,-39.17 z"
       id="path22"
       style="display:block" />
    <path
       fill="#c59a70"
       d="m 863.868,1555.23 c 5.749,2.99 12.148,4.81 18.334,6.85 l -1.544,0.78 c -36.411,18.08 -88.957,26.8 -122.585,47.3 -37.665,22.96 -69.951,62.88 -107.342,89.66 7.615,-1.3 41.157,-8.31 45.565,-8.3 -14.493,10.23 -26.527,16.1 -42.256,24.2 -65.032,4.9 -136.323,79.55 -192.664,110.79 -1.814,1 -6.216,0.87 -8.328,0.8 l -0.727,1.28 c -5.089,-0.99 -18.507,-5.94 -24.374,-7.73 4.12,-3.42 21.266,-13.88 26.886,-17.53 18.147,-11.89 36.212,-23.89 54.194,-36.02 19.305,-13.05 40.979,-30.66 59.966,-42.01 21.595,-10.02 39.602,-12.03 59.943,-25.42 44.035,-28.96 76.593,-80.35 122.315,-105.48 30.11,-16.54 78.941,-29.26 112.617,-39.17 z"
       id="path23"
       style="display:block" />
    <path
       fill="#5c3e2e"
       d="m 649.739,1766.53 c 3.926,-3.71 13.64,-11.05 18.348,-14.91 24.044,-19.71 53.242,-41.22 73.286,-65.29 -1.121,4.82 -1.62,8.24 -3.963,12.62 -2.006,9.34 -4.297,18.62 -6.868,27.82 -5.062,15.04 -11.389,32.35 -21.286,44.94 -19.846,25.25 -43.621,48.38 -65.083,72.25 -8.946,0.08 -18.056,-0.06 -27.018,-0.1 l -51.219,0.27 c -8.864,0.03 -24.423,0.34 -32.831,-1.04 l -1.74,-0.05 c 2.997,-2.96 19.007,-14.05 23.178,-16.83 29.812,-19.81 63.184,-44.65 95.196,-59.68 z"
       id="path24"
       style="display:block" />
    <path
       fill="#000000"
       d="m 617.155,1843.86 c -0.146,0.47 66.982,-70.33 73.934,-76.13 16.43,-13.72 37.839,-63.08 46.321,-68.78 -2.006,9.34 -4.297,18.62 -6.868,27.82 -5.062,15.04 -11.389,32.35 -21.286,44.94 -19.846,25.25 -43.621,48.38 -65.083,72.25 -8.946,0.08 -18.056,-0.06 -27.018,-0.1 z"
       id="path25"
       style="display:block" />
    <path
       fill="#000000"
       d="m 649.739,1766.53 0.406,1.48 c -8.912,11.69 -25.144,26.14 -36.241,36.62 -13.358,12.56 -26.334,25.53 -38.912,38.87 -12.511,-0.25 -29.765,-1.06 -41.887,-0.41 l -1.74,-0.05 c 2.997,-2.96 19.007,-14.05 23.178,-16.83 29.812,-19.81 63.184,-44.65 95.196,-59.68 z"
       id="path26"
       style="display:block" />
    <path
       fill="#000000"
       d="m 696.296,1691.52 c 30.185,-18.5 51.098,-50.45 78.712,-70.92 21.344,-15.83 60.125,-23.92 86.111,-31.96 -30.804,20.39 -62.613,29.38 -91.517,51.93 -28.796,22.47 -52.096,56 -81.149,77.38 -7.756,5.71 -32.685,16.6 -42.986,22.17 -29.117,15.94 -57.838,32.6 -86.137,49.96 30.681,-31.56 58.96,-50.54 94.71,-74.36 15.729,-8.1 27.763,-13.97 42.256,-24.2 z"
       id="path27"
       style="display:block" />
    <path
       fill="#fefefe"
       d="m 471.915,1368.72 c 24.676,-67.09 63.181,-156.36 104.104,-213.16 9.637,-13.38 19.92,-26.28 30.81,-38.66 6.427,-7.25 23.894,-25.11 27.813,-32.38 39.427,-73.17 86.248,-143.173 155.386,-191.526 7.761,-5.428 37.623,-25.169 45.479,-23.831 -12.569,32.101 -23.387,32.307 -48.402,52.307 -19.77,16.096 -38.075,33.914 -54.698,53.244 -20.448,23.89 -38.717,49.566 -54.589,76.706 -5.088,8.85 -19.574,37.66 -24.207,43.74 -14.076,18.47 -32.646,36.01 -47.789,55.7 -43.755,56.87 -74.447,120.27 -98.259,187.73 l 66.685,-18.09 c -8.356,7.34 -18.007,18.52 -25.793,27 l -36.218,39.17 c -35.622,38.41 -71.588,76.17 -105.605,116.69 -30.599,37.28 -69.989,76.51 -75.554,126.75 -1.023,9.23 1.672,24.38 8.294,30.59 27.809,26.08 65.458,5.84 89.522,-9.6 96.621,41.79 161.653,-121.79 205.747,-181.43 7.768,-10.5 14.368,-24.43 21.91,-35.31 12.556,-21.31 26.863,-41.93 38.847,-63.51 33.143,-8.87 63.095,-17.02 95.235,-29.67 -0.602,18.99 4.779,37.44 17.821,51.32 4.178,4.44 11.146,10.65 14.404,15.52 17.201,25.71 33.57,52.04 50.83,77.74 2.689,4 5.558,8.76 7.546,13.13 -29.249,0.69 -47.439,14.01 -49.294,44.34 -5.915,2.16 -11.874,4.19 -17.873,6.1 -9.438,-27.81 11.311,-51.93 33.999,-64.66 -9.472,-16.41 -27.624,-43.11 -38.642,-59.17 -15.518,-22.62 -26.899,-25.6 -35.316,-56.28 -19.315,7.84 -44.861,14.15 -65.24,20.7 -43.35,62.27 -132.223,236.1 -192.05,272.18 -27.293,16.47 -55.883,21.04 -86.823,13.51 -31.74,17.73 -72.209,30.71 -103.214,2.18 -30.676,-28.21 -13.87,-79.78 4.114,-110.28 17.186,-29.15 41.458,-56.5 63.792,-82.41 37.067,-42.98 75.233,-85 114.461,-126.02 -12.392,3.29 -24.803,6.5 -37.233,9.64 z"
       id="path28"
       style="display:block" />
    <path
       fill="#fefefe"
       d="m 1304.26,1008.44 c 7.06,7.04 10.53,12.27 9.94,22.93 -0.65,11.85 -4.6,27.75 -7.32,39.39 -18.16,76.6 -58.75,146.04 -116.6,199.44 -19.4,18.09 -40.47,34.3 -62.94,48.4 -16.44,10.2 -39.31,19.84 -49.13,36.12 16.61,8.08 33.11,16.38 49.5,24.9 8.52,4.37 20.18,11.14 28.74,13.99 19.69,6.54 42.14,-0.37 61.67,10.04 4.25,2.27 13.29,6.1 14.84,11.13 -7.15,3.33 -12.2,5.14 -19.71,7.71 -19.36,-4.75 -34.67,-5.4 -54.3,-5.91 -4.8,-0.12 -12.93,-4.56 -17.43,-6.89 -30.18,-15.55 -61.2,-29.87 -91.07,-45.99 9.14,-13.56 15.58,-25.92 23.93,-39.84 98.85,-51.04 166.75,-120.53 203.26,-227.45 4.06,-12.09 7.36,-24.43 9.87,-36.94 2.33,-11.71 4.28,-23.97 7.53,-35.45 1.31,-4.62 6.58,-11.02 9.22,-15.58 z"
       id="path29"
       style="display:block" />
    <path
       fill="#5c3e2e"
       d="m 762.462,1740.95 0.511,-0.72 c 13.116,-18.73 25.488,-43.2 39.262,-62.59 30.967,-43.61 85.929,-64.82 133.639,-85.47 1.104,7.76 2.247,15.51 3.429,23.26 l -1.211,0.74 c -47.072,28.45 -96.882,36.71 -134.425,85.32 -29.06,37.62 -56.88,75.97 -86.049,113.49 -3.4,4.22 -19.778,24.95 -20.424,28.92 -16.76,0.54 -36.059,0.07 -53.021,0.06 21.462,-23.87 45.237,-47 65.083,-72.25 9.897,-12.59 16.224,-29.9 21.286,-44.94 0.993,0.68 0.281,0.34 2.36,0.12 8.169,-11.52 45.249,-51.2 58.753,-56.99 -13.329,24.57 -22.393,43.67 -29.193,71.05 z"
       id="path30"
       style="display:block" />
    <path
       fill="#5c3e2e"
       d="m 863.868,1555.23 c 14.361,-4.84 27.204,-10.25 42.032,-2.75 10.373,5.25 20.844,17.37 26.12,27.66 -6.891,2.1 -13.559,4.87 -19.91,8.27 -5.461,-9.57 -18.647,-24.77 -29.908,-26.33 -6.186,-2.04 -12.585,-3.86 -18.334,-6.85 z"
       id="path31"
       style="display:block" />
    <path
       fill="url(#Gradient8)"
       d="m 917.916,323.992 c 98.494,-35.181 210.144,-42.693 307.274,2.27 16.68,7.725 29.15,15.079 43.43,26.518 8.15,4.528 21.22,18.577 27.43,25.482 -17.08,-10.375 -35.3,-19.727 -52.39,-30.093 -16.25,-9.862 -24.59,-13.699 -43.66,-12.609 -7.44,0.534 -28,0.293 -25.37,13.206 1.81,8.921 11.69,15.305 17.04,22.016 14.78,15.75 36.6,38.173 49.08,55.083 -4.1,-1.091 -17.35,-4.106 -20.46,-6.072 -22.63,-14.306 -44.76,-48.998 -74.52,-47.589 -21.5,1.123 -34.8,15.416 -56.56,12.043 -4.6,-0.712 -36.05,11.708 -41.37,14.677 -12.08,6.747 -18.73,19.077 -6.1,29.448 17.99,11.084 35.89,22.329 53.68,33.731 7.54,4.835 21.78,13.633 28.2,19.24 l -18.38,8.364 c -23.04,8.882 -105.829,38.789 -120.327,50.799 -10.341,8.568 -19.023,24.262 -24.455,36.362 -2.257,5.026 -4.053,11.027 -1.993,16.422 2.777,7.268 10.539,10.606 17.195,13.403 15.031,3.977 45.78,19.778 57.84,15.043 21.2,-8.326 47.87,-41.453 71.09,-50.249 23.09,-8.745 49.59,-15.563 73.09,-22.096 69.9,-18.983 140.4,-35.656 211.4,-49.993 7.68,17.4 14.87,41.044 16.72,59.787 -3.22,13.161 -10.6,19.308 -21.78,26.449 -8.57,5.449 -17.62,10.098 -27.04,13.889 7.37,-5.449 21.04,-12.47 23.73,-21.75 -3.85,-6.776 -21.82,-7.161 -28.41,-9.726 -22.2,-1.168 -44.46,-0.637 -66.58,1.59 -48.53,4.525 -150.31,21.201 -190,50.548 -28.54,21.1 -28.64,63.632 -85.41,57.159 -29.349,-3.345 -26.858,-10.646 -44.415,-29.322 -19.625,0.768 -38.337,-3.055 -57.038,-2.736 -29.181,0.498 -48.152,44.663 -50.746,69.231 -3.085,29.211 -11.659,78.161 -53.527,56.155 -27.668,-13.448 -53.327,-67.801 -57.161,-96.931 -0.618,-3.081 -1.257,-4.545 -0.102,-7.445 6.971,-3.012 29.687,15.429 38.296,7.257 13.823,-13.12 25.411,-45.902 27.347,-63.995 -12.747,-20.231 -60.066,-19.645 -77.35,-37.136 -5.071,-5.133 -2.71,-20.638 -2.161,-27.314 11.676,-93.595 32.722,-9.775 76.97,-63.46 11.115,-13.485 28.09,-28.965 38.096,-42.622 -2.28,-10.785 -8.573,-12.368 -18.927,-12.952 -12.663,-0.714 -25.8,-0.111 -38.497,0.198 -5.81,0.742 -13.373,3.699 -16.049,-1.81 3.401,-39.832 107.736,-87.385 142.87,-100.47 z"
       id="path32"
       style="display:block" />
    <path
       fill="#e77923"
       d="m 812.964,609.558 c -12.747,-20.231 -60.066,-19.645 -77.35,-37.136 -5.071,-5.133 -2.71,-20.638 -2.161,-27.314 l 14.224,5.497 c 48.289,16.88 96.872,32.911 145.724,48.086 20.127,6.373 46.224,13.379 65.607,21.024 10.216,4.029 21.686,27.076 31.178,34.359 8.901,6.828 22.194,6.305 32.944,5.411 25.95,-2.159 36.62,-23.682 51.34,-42.726 18.36,-24.496 49.79,-29.144 76.97,-38.271 54.47,-18.293 107.51,-23.247 164.05,-29.536 l 5.48,0.035 c 23.53,-2.923 49.49,-1.263 72.18,5.673 4.19,1.584 8.41,3.092 12.65,4.525 -3.22,13.161 -10.6,19.308 -21.78,26.449 -8.57,5.449 -17.62,10.098 -27.04,13.889 7.37,-5.449 21.04,-12.47 23.73,-21.75 -3.85,-6.776 -21.82,-7.161 -28.41,-9.726 -22.2,-1.168 -44.46,-0.637 -66.58,1.59 -48.53,4.525 -150.31,21.201 -190,50.548 -28.54,21.1 -28.64,63.632 -85.41,57.159 -29.349,-3.345 -26.858,-10.646 -44.415,-29.322 -19.625,0.768 -38.337,-3.055 -57.038,-2.736 -29.181,0.498 -48.152,44.663 -50.746,69.231 -3.085,29.211 -11.659,78.161 -53.527,56.155 -27.668,-13.448 -53.327,-67.801 -57.161,-96.931 -0.618,-3.081 -1.257,-4.545 -0.102,-7.445 6.971,-3.012 29.687,15.429 38.296,7.257 13.823,-13.12 25.411,-45.902 27.347,-63.995 z"
       id="path33"
       style="display:inline" />
    <path
       fill="#d75925"
       d="m 804.584,770.672 c 25.448,-17.603 22.622,-50.522 27.815,-78.354 4.782,-25.624 19.4,-50.967 40.677,-66.838 13.997,-10.44 44.697,-2.259 61.329,0.424 12.782,2.062 24.461,10.549 31.49,22.118 -19.625,0.768 -38.337,-3.055 -57.038,-2.736 -29.181,0.498 -48.152,44.663 -50.746,69.231 -3.085,29.211 -11.659,78.161 -53.527,56.155 z"
       id="path34"
       style="display:inline" />
    <path
       fill="#f9ce94"
       d="m 812.964,609.558 c -12.747,-20.231 -60.066,-19.645 -77.35,-37.136 -5.071,-5.133 -2.71,-20.638 -2.161,-27.314 l 14.224,5.497 c -0.699,7.72 -0.682,12.741 -0.525,20.538 9.518,2.872 22.244,7.429 31.148,10.072 33.512,9.947 52.088,17.419 37.187,56.948 -5.216,13.834 -15.807,41.236 -30.086,47.709 -0.64,0.287 -1.285,0.564 -1.934,0.831 -17.611,-1.079 -21.473,-4.048 -36.044,-12.962 -0.618,-3.081 -1.257,-4.545 -0.102,-7.445 6.971,-3.012 29.687,15.429 38.296,7.257 13.823,-13.12 25.411,-45.902 27.347,-63.995 z"
       id="path35"
       style="display:block" />
    <path
       fill="#d75925"
       d="m 1320.97,548.987 c 23.53,-2.923 49.49,-1.263 72.18,5.673 4.19,1.584 8.41,3.092 12.65,4.525 -3.22,13.161 -10.6,19.308 -21.78,26.449 -8.57,5.449 -17.62,10.098 -27.04,13.889 7.37,-5.449 21.04,-12.47 23.73,-21.75 -3.85,-6.776 -21.82,-7.161 -28.41,-9.726 5.83,-5.079 23.98,6.214 33.5,2.983 4.44,-3.845 4.35,-7.724 4.91,-13.51 l -1.44,-1.719 c -13.27,-5.967 -51.1,-5.633 -68.3,-6.814 z"
       id="path36"
       style="display:block" />
    <path
       fill="#e77923"
       d="m 1393.15,554.66 c 4.19,1.584 8.41,3.092 12.65,4.525 -3.22,13.161 -10.6,19.308 -21.78,26.449 -0.69,-2.062 7.65,-26.009 9.13,-30.974 z"
       id="path37"
       style="display:block" />
    <path
       fill="#000000"
       d="m 944.754,330.407 c 26.928,-4.461 120.486,-11.085 140.286,9.506 -8.1,9.921 -83.46,38.989 -100.326,41.923 -11.247,1.957 -46.852,-4.305 -60.22,-3.921 -21.276,-1.346 -41.936,0.788 -60.714,0.002 -1.069,-1.924 -3.231,-5.624 -1.568,-7.644 18.456,-22.418 56.82,-30.79 82.542,-39.866 z"
       id="path38"
       style="display:block" />
    <path
       fill="#296ba0"
       d="m 975.66,606.693 c 15.031,3.977 45.78,19.778 57.84,15.043 21.2,-8.326 47.87,-41.453 71.09,-50.249 23.09,-8.745 49.59,-15.563 73.09,-22.096 69.9,-18.983 140.4,-35.656 211.4,-49.993 7.68,17.4 14.87,41.044 16.72,59.787 -4.24,-1.433 -8.46,-2.941 -12.65,-4.525 -22.69,-6.936 -48.65,-8.596 -72.18,-5.673 l -5.48,-0.035 c 3.99,-2.547 6.34,-2.763 11.55,-2.267 -44.12,-11.057 -91.51,3.213 -135.08,10.622 -34.93,5.855 -67.63,12.413 -98.79,30.26 -20.44,11.708 -35.97,31.293 -57.12,40.853 -11.82,5.339 -54.898,-12.545 -60.39,-21.727 z"
       id="path39"
       style="display:block" />
    <path
       fill="url(#Gradient7)"
       d="m 917.916,323.992 c 98.494,-35.181 210.144,-42.693 307.274,2.27 16.68,7.725 29.15,15.079 43.43,26.518 8.15,4.528 21.22,18.577 27.43,25.482 -17.08,-10.375 -35.3,-19.727 -52.39,-30.093 -16.25,-9.862 -24.59,-13.699 -43.66,-12.609 -7.44,0.534 -28,0.293 -25.37,13.206 1.81,8.921 11.69,15.305 17.04,22.016 -6.96,-2.674 -25.46,-17.533 -34.01,-22.072 -47.48,-25.23 -79.48,-32.57 -131.85,-35.034 -19.65,-2.515 -68.52,4.781 -86.028,12.686 -5.261,0.899 -9.054,2.822 -13.95,4.91 -4.809,-4.698 -5.45,-1.848 -7.916,-7.28 z"
       id="path40"
       style="display:block" />
    <path
       fill="#f38f1d"
       d="m 1025.81,313.676 c 8.21,-7.171 59.68,-6.103 73.08,-5.072 24.42,1.878 79.6,9.866 100.97,19.87 3.54,3.144 6.75,3.893 11.21,5.526 -3.53,-0.06 -7.79,-0.613 -10.78,0.649 l -0.29,0.911 c -7.44,0.534 -28,0.293 -25.37,13.206 1.81,8.921 11.69,15.305 17.04,22.016 -6.96,-2.674 -25.46,-17.533 -34.01,-22.072 -47.48,-25.23 -79.48,-32.57 -131.85,-35.034 z"
       id="path41"
       style="display:block" />
    <path
       fill="#e77923"
       d="m 1199.86,328.474 c 10.38,2.554 19.17,4.918 29.28,7.975 8.15,2.463 35.27,17.826 39.48,16.331 8.15,4.528 21.22,18.577 27.43,25.482 -17.08,-10.375 -35.3,-19.727 -52.39,-30.093 -16.25,-9.862 -24.59,-13.699 -43.66,-12.609 l 0.29,-0.911 c 2.99,-1.262 7.25,-0.709 10.78,-0.649 -4.46,-1.633 -7.67,-2.382 -11.21,-5.526 z"
       id="path42"
       style="display:block" />
    <path
       fill="#b8dae8"
       d="m 791.095,426.272 c -5.81,0.742 -13.373,3.699 -16.049,-1.81 3.401,-39.832 107.736,-87.385 142.87,-100.47 2.466,5.432 3.107,2.582 7.916,7.28 4.896,-2.088 8.689,-4.011 13.95,-4.91 l -0.85,1.622 c -1.335,0.532 -11.101,4.302 -11.401,4.699 5.387,-1.12 10.761,-2.301 16.12,-3.545 l 1.103,1.269 c -25.722,9.076 -64.086,17.448 -82.542,39.866 -1.663,2.02 0.499,5.72 1.568,7.644 18.778,0.786 39.438,-1.348 60.714,-0.002 13.368,-0.384 48.973,5.878 60.22,3.921 16.866,-2.934 92.226,-32.002 100.326,-41.923 2.6,3.499 2.25,1.716 2.23,5.247 -4.85,6.067 -33.68,17.191 -41.6,21.835 -43.91,25.762 -65.283,30.785 -114.612,22.34 -17.364,-2.973 -55.803,0.11 -74.703,1.173 -34.224,1.926 -51.916,0.187 -65.26,35.764 z"
       id="path43"
       style="display:block" />
    <path
       fill="#308ec0"
       d="m 925.832,331.272 c 4.896,-2.088 8.689,-4.011 13.95,-4.91 l -0.85,1.622 c -1.335,0.532 -11.101,4.302 -11.401,4.699 5.387,-1.12 10.761,-2.301 16.12,-3.545 l 1.103,1.269 c -25.722,9.076 -64.086,17.448 -82.542,39.866 -1.663,2.02 0.499,5.72 1.568,7.644 -7.322,0.359 -20.966,4.531 -26.01,0.481 l 0.042,-1.899 c 12.852,-15.876 67.014,-36.861 88.02,-45.227 z"
       id="path44"
       style="display:block" />
    <path
       fill="#b8dae8"
       d="m 848.519,439.026 c 3.783,-2.534 3.364,-3.193 6.999,-3.063 3.947,6.79 -50.753,67.181 -61.59,72.965 -11.125,5.938 -25.32,3.639 -36.784,0.824 -2.93,11.759 -6.364,30.47 -9.467,40.853 l -14.224,-5.497 c 11.676,-93.595 32.722,-9.775 76.97,-63.46 11.115,-13.485 28.09,-28.965 38.096,-42.622 z"
       id="path45"
       style="display:block" />
    <path
       fill="#296ba0"
       d="m 1041.74,428.372 c 17.99,11.084 35.89,22.329 53.68,33.731 7.54,4.835 21.78,13.633 28.2,19.24 l -18.38,8.364 c -18.43,-20.528 -39.68,-38.204 -60.48,-56.175 -1.85,-1.599 -2.32,-2.935 -3.02,-5.16 z"
       id="path46"
       style="display:block" />
    <path
       fill="#000000"
       d="m 838.901,508.252 c -1.914,-1.133 -1.037,-0.423 -2.044,-3.216 1.734,-18.6 62.53,-75.909 82.631,-75.96 30.218,-0.078 69.52,11.399 98.752,20.719 12.61,4.019 36.99,10.152 38.91,24.958 -1.36,9.827 -14.83,20.38 -22.37,26.088 -15.29,11.582 -58.47,39.792 -76.331,43.713 -6.586,1.446 -14.29,0.551 -20.927,-0.379 -11.55,-1.617 -93.287,-20.625 -97.839,-27.116 -1.654,-2.358 -1.56,-6.198 -0.782,-8.807 z"
       id="path47"
       style="display:block" />
    <path
       fill="#296ba0"
       d="m 838.901,508.252 c -1.914,-1.133 -1.037,-0.423 -2.044,-3.216 1.734,-18.6 62.53,-75.909 82.631,-75.96 30.218,-0.078 69.52,11.399 98.752,20.719 12.61,4.019 36.99,10.152 38.91,24.958 -4.5,3.127 -6.96,5.195 -12.16,7.066 -0.03,-2.978 0.39,-6.79 -1.82,-9.092 -10.76,-11.225 -103.938,-33.303 -120.49,-32.377 -17.158,0.96 -54.969,37.906 -66.666,51.474 -4.745,5.503 -8.075,10.756 -7.471,18.163 0.025,0.31 0.058,0.618 0.087,0.927 z"
       id="path48"
       style="display:block" />
    <path
       fill="#b8dae8"
       d="m 1057.15,474.753 c -1.36,9.827 -14.83,20.38 -22.37,26.088 -15.29,11.582 -58.47,39.792 -76.331,43.713 -6.586,1.446 -14.29,0.551 -20.927,-0.379 -11.55,-1.617 -93.287,-20.625 -97.839,-27.116 -1.654,-2.358 -1.56,-6.198 -0.782,-8.807 l 9.729,2.662 c 9.145,3.276 30.253,7.742 40.406,9.778 16.172,3.242 55.048,15.696 69.123,11.471 29.316,-8.8 61.541,-32.842 86.831,-50.344 5.2,-1.871 7.66,-3.939 12.16,-7.066 z"
       id="path49"
       style="display:block" />
    <path
       fill="#85929b"
       d="m 873.831,815.791 12.64,10.769 c 17.515,12.815 32.126,25.08 50.488,37.294 13.78,9.167 31.411,19.021 44.17,28.285 0.98,2.228 3.213,7.302 4.726,8.898 9.982,10.527 34.805,23.957 47.595,29.233 5.85,-0.446 9.42,-0.847 15.28,-1.869 31.81,24.151 49.64,35.278 84.23,54.089 13.43,6.499 26.54,12.894 40.19,18.93 9.19,4.06 22.64,8.39 31,13.03 0.81,5.36 0.82,9.51 5.45,12.96 11.7,8.69 46.41,7.12 60.1,5.63 -2.25,10.99 -4.46,23.61 -8.38,34 -1.98,12.4 -17.31,58.94 -23.87,66.16 -43.15,87.17 -119.18,153.63 -211.34,184.75 -14.17,4.76 -47.91,14 -62.635,15.09 -13.339,3.27 -32.933,4.07 -46.817,4.64 6.113,-13.52 11.393,-24.86 15.513,-39.23 -7.162,7.41 -15.368,16.96 -22.52,23.83 -14.342,16.66 -43.093,52.45 -64.469,57.08 -7.054,3.02 -18.224,3.09 -23.098,-3.64 -14.661,-20.23 -10.869,-52.63 -6.279,-75.03 -7.969,7.22 -9.981,9.91 -14.904,19.18 -27.064,-6.01 -42.399,-12.33 -67.845,-23.1 9.914,13.56 18.092,20.33 32.014,29.9 -41.835,13.43 -75.307,22.98 -118.848,30.12 9.402,-15.88 34.406,-57.94 44.313,-70.74 24.256,-9.68 50.984,-16.51 76.311,-26.21 59.606,-22.83 114.369,-56.11 171.223,-84.61 45.659,-22.89 81.231,-71.83 101.641,-118.32 7.78,-20.6 9.49,-40.83 7.01,-62.543 -7.72,-26.83 -18.04,-36.168 -41.39,-50.194 -1.86,-2.831 -2.51,-2.743 -5.624,-4.099 -8.975,-5.668 -17.073,-10.665 -26.656,-15.291 -45.146,-21.988 -76.299,-22.821 -123.881,-8.447 -7.52,2.388 -8.194,2.613 -13.188,-2.714 23.575,-28.709 29.655,-62.237 37.85,-97.831 z"
       id="path50"
       style="display:block" />
    <path
       fill="#296ba0"
       d="m 873.831,815.791 12.64,10.769 c 17.515,12.815 32.126,25.08 50.488,37.294 13.78,9.167 31.411,19.021 44.17,28.285 0.98,2.228 3.213,7.302 4.726,8.898 9.982,10.527 34.805,23.957 47.595,29.233 5.85,-0.446 9.42,-0.847 15.28,-1.869 31.81,24.151 49.64,35.278 84.23,54.089 13.43,6.499 26.54,12.894 40.19,18.93 9.19,4.06 22.64,8.39 31,13.03 0.81,5.36 0.82,9.51 5.45,12.96 11.7,8.69 46.41,7.12 60.1,5.63 -2.25,10.99 -4.46,23.61 -8.38,34 -1.98,12.4 -17.31,58.94 -23.87,66.16 l -0.85,-0.46 c -1.68,0.93 -1.91,1.14 -3.35,2.34 -16.09,13.56 -29.22,24.9 -50.1,28.82 -37.19,-13.59 -59.22,-58.46 -77.23,-90.73 0.34,12.14 0.24,23.51 0.06,35.65 -20.43,-28.12 -30.63,-40.87 -43.66,-74.02 -2.94,-7.46 -11.55,-36.879 -15.6,-40.433 -7.72,-26.83 -18.04,-36.168 -41.39,-50.194 -1.86,-2.831 -2.51,-2.743 -5.624,-4.099 -8.975,-5.668 -17.073,-10.665 -26.656,-15.291 -45.146,-21.988 -76.299,-22.821 -123.881,-8.447 -7.52,2.388 -8.194,2.613 -13.188,-2.714 23.575,-28.709 29.655,-62.237 37.85,-97.831 z"
       id="path51"
       style="display:block" />
    <path
       fill="#b8dae8"
       d="m 1132.96,982.49 c 13.43,6.499 26.54,12.894 40.19,18.93 9.19,4.06 22.64,8.39 31,13.03 0.81,5.36 0.82,9.51 5.45,12.96 11.7,8.69 46.41,7.12 60.1,5.63 -2.25,10.99 -4.46,23.61 -8.38,34 -8.05,11.87 -11.29,20.83 -21.74,30.91 0.76,-7.34 2.09,-15 0.76,-22.14 -9.15,21.02 -24.12,44.57 -43.16,57.86 -16.78,-22.52 -20.44,-46.76 -23.49,-73.77 l -0.53,1.13 c -4.82,10.12 -7.69,19.88 -11.15,30.52 -12.65,-24.03 -14.18,-39.52 -17.3,-65.76 -2.74,6.27 -4.07,10.31 -6.11,16.85 -2.04,-12.36 -3.34,-24.83 -3.89,-37.34 l -0.35,-1.03 c -0.22,-7.272 -0.69,-14.537 -1.4,-21.78 z"
       id="path52"
       style="display:block" />
    <path
       fill="#85929b"
       d="m 1132.96,982.49 c 13.43,6.499 26.54,12.894 40.19,18.93 9.19,4.06 22.64,8.39 31,13.03 0.81,5.36 0.82,9.51 5.45,12.96 11.7,8.69 46.41,7.12 60.1,5.63 -2.25,10.99 -4.46,23.61 -8.38,34 -8.05,11.87 -11.29,20.83 -21.74,30.91 0.76,-7.34 2.09,-15 0.76,-22.14 0.45,-3.73 2.35,-9.61 3.43,-13.43 -23.58,-7.02 -30.25,-14.81 -48.8,-29.27 -3.08,-2.4 -20.79,-8.4 -25.9,-10.78 -11.66,-5.43 -22.9,-11.2 -34.36,-17.03 l -0.35,-1.03 c -0.22,-7.272 -0.69,-14.537 -1.4,-21.78 z"
       id="path53"
       style="display:block" />
    <path
       fill="#2b5c88"
       d="m 1048.73,928.401 c 31.81,24.151 49.64,35.278 84.23,54.089 0.71,7.243 1.18,14.508 1.4,21.78 -3.6,1.18 -10.85,-3.6 -14.23,-5.38 -34.01,-17.904 -58.88,-42.95 -86.68,-68.62 5.85,-0.446 9.42,-0.847 15.28,-1.869 z"
       id="path54"
       style="display:block" />
    <path
       fill="#79c2df"
       d="m 873.831,815.791 12.64,10.769 c -4.639,26.981 -9.698,51.71 -25.197,75.096 -4.317,6.513 -8.966,10.277 -12.105,14.68 -7.52,2.388 -8.194,2.613 -13.188,-2.714 23.575,-28.709 29.655,-62.237 37.85,-97.831 z"
       id="path55"
       style="display:block" />
    <path
       fill="#bdc1c2"
       d="m 1046.72,994.367 c 4.05,3.554 12.66,32.973 15.6,40.433 13.03,33.15 23.23,45.9 43.66,74.02 0.18,-12.14 0.28,-23.51 -0.06,-35.65 18.01,32.27 40.04,77.14 77.23,90.73 20.88,-3.92 34.01,-15.26 50.1,-28.82 1.44,-1.2 1.67,-1.41 3.35,-2.34 l 0.85,0.46 c -43.15,87.17 -119.18,153.63 -211.34,184.75 -14.17,4.76 -47.91,14 -62.635,15.09 l -4.375,-1.63 0.47,-1.07 c 1.417,-0.3 2.831,-0.62 4.241,-0.96 7.523,-1.8 16.906,-5.39 24.476,-7.7 70.803,-21.58 139.133,-65.82 186.243,-122.94 7.38,-8.95 16.39,-19.51 22.47,-29.45 -28.14,27.86 -66.71,60.76 -104.29,74.21 4.88,-10.54 9.67,-18.32 14.54,-29.89 -28.99,24.72 -50.94,39.77 -89.07,47.98 9.75,-10.25 14.05,-17.43 19.7,-30.14 -29.37,20.06 -70.366,26.48 -105.154,26.47 8.498,-6.94 16.726,-15.65 24.995,-23.16 -31.123,8.87 -52.492,10.12 -84.198,9.19 41.944,-17.85 76.765,-38.76 108.971,-72.13 22.986,-23.81 58.526,-80.99 57.216,-114.91 7.78,-20.6 9.49,-40.83 7.01,-62.543 z"
       id="path56"
       style="display:block" />
    <path
       fill="#bdc1c2"
       d="m 845.182,1379.36 -0.309,-0.53 c 0.222,-0.34 0.444,-0.67 0.666,-1.01 5.14,-2.46 9.249,-17.8 13.298,-21.17 12.795,-10.65 35.09,-26.51 48.755,-34.88 l 2.059,0.51 c -14.342,16.66 -43.093,52.45 -64.469,57.08 z"
       id="path57"
       style="display:block" />
    <path
       fill="#2b5c88"
       d="m 1096.22,650.765 c 2.13,-3.261 4.59,-6.299 7.34,-9.068 31.22,-31.831 162.17,-51.126 207.43,-51.662 11.74,5.503 31.11,24.377 37.38,35.242 11.97,17.907 18.31,33.175 23.29,53.846 -4.05,2.096 -8.63,4.33 -12.51,6.629 l -1.23,1.512 c -12.52,20.681 -42.92,40.77 -66.73,45.754 -17.72,3.709 -32.4,3.002 -44.82,15.79 l -3.79,6.24 c -3.46,12.815 -2.21,16.636 6.07,26.775 1.89,-5.879 4.48,-17.36 9.25,-19.902 4.99,1.844 8.15,10.013 12.34,15.071 11.12,13.641 23.4,25.982 38.97,34.538 12.25,5.251 21.74,9.352 34.57,12.795 -39.41,36.447 -51.02,71.917 -62.35,122.606 -11.62,0.169 -30.56,0.863 -41.65,-0.808 -11.92,-0.621 -12.95,-0.493 -20.74,8.604 -24.17,-8.058 -62.61,-26.932 -83.49,-40.94 -8.83,-3.496 -35.44,-23.433 -43.51,-29.879 -0.55,-17.513 -12.41,-34.204 -21.77,-48.956 l -4.63,-4.798 c -2.87,-22.215 -6.64,-49.996 -6.67,-72.101 l -0.44,-2.856 c -2.22,-17.873 -1.93,-45.677 -2.47,-64.411 l 1.04,-0.55 c 7.61,-3.938 11.33,-7.102 18.19,-12.429 6.44,-6.859 14.82,-19.119 20.93,-27.042 z"
       id="path58"
       style="display:block" />
    <path
       fill="#284566"
       d="m 1096.22,650.765 c 2.13,-3.261 4.59,-6.299 7.34,-9.068 31.22,-31.831 162.17,-51.126 207.43,-51.662 11.74,5.503 31.11,24.377 37.38,35.242 11.97,17.907 18.31,33.175 23.29,53.846 -4.05,2.096 -8.63,4.33 -12.51,6.629 l -1.23,1.512 c -12.52,20.681 -42.92,40.77 -66.73,45.754 -17.72,3.709 -32.4,3.002 -44.82,15.79 -0.52,-4.463 -0.65,-10.131 -2.87,-13.762 l 0.67,-1.955 -0.95,-1.298 -5.16,-0.29 c -8.13,13.387 -22.89,21.31 -38.54,20.699 -15.65,-0.611 -29.74,-9.66 -36.81,-23.64 -3.08,-0.785 -10.44,-5.382 -15.08,-7.193 l -1.52,1.666 c -7.32,5.225 -58.57,-10.306 -81.38,20.042 -2.26,3.001 -5.3,6.825 -5.98,10.608 -0.09,0.501 -0.14,1.008 -0.22,1.512 -2.22,-17.873 -1.93,-45.677 -2.47,-64.411 l 1.04,-0.55 c 7.61,-3.938 11.33,-7.102 18.19,-12.429 6.44,-6.859 14.82,-19.119 20.93,-27.042 z"
       id="path59"
       style="display:block" />
    <path
       fill="#fefefe"
       d="m 1096.22,650.765 c 2.13,-3.261 4.59,-6.299 7.34,-9.068 31.22,-31.831 162.17,-51.126 207.43,-51.662 11.74,5.503 31.11,24.377 37.38,35.242 11.97,17.907 18.31,33.175 23.29,53.846 -4.05,2.096 -8.63,4.33 -12.51,6.629 l -1.23,1.512 c -34.15,11.169 -40.52,7.67 -69.57,-9.997 l 5.19,13.157 c -6.71,-5.503 -11.28,-8.762 -18.54,-13.575 l -1.32,0.339 c 0.12,3.32 0.71,2.735 -0.55,4.943 -11,-5.346 -20.95,-16.494 -37.21,-23.124 -16.84,-8.394 -46.31,-12.806 -63.96,-2.302 -24.96,14.847 -49.29,18.99 -79.92,20.312 -6.08,1.213 -10.7,1.072 -16.75,0.79 6.44,-6.859 14.82,-19.119 20.93,-27.042 z"
       id="path60"
       style="display:block" />
    <path
       fill="rgb(41,107,160)"
       d="m 1227.74,624.949 c 14.39,-7.674 86.84,-3.792 105.19,-2.256 l 1.18,1.51 c 6.21,-0.208 8.32,0.141 14.26,1.074 11.97,17.907 18.31,33.175 23.29,53.846 -4.05,2.096 -8.63,4.33 -12.51,6.629 l -1.23,1.512 c -34.15,11.169 -40.52,7.67 -69.57,-9.997 -0.58,-0.798 -0.95,-1.597 -1.39,-2.487 -13.38,-26.807 -30.97,-40.822 -59.22,-49.831 z"
       id="path61"
       style="display:block;fill:url(#linearGradient142);stroke:url(#linearGradient143)" />
    <path
       fill="#79c2df"
       d="m 1334.11,624.203 c 6.21,-0.208 8.32,0.141 14.26,1.074 11.97,17.907 18.31,33.175 23.29,53.846 -4.05,2.096 -8.63,4.33 -12.51,6.629 -1.21,-2.527 -3.99,-16.964 -5.3,-21.182 -5.03,-16.296 -10.95,-26.293 -19.74,-40.367 z"
       id="path62"
       style="display:block" />
    <path
       fill="rgb(43,92,136)"
       d="m 1096.22,650.765 c 2.13,-3.261 4.59,-6.299 7.34,-9.068 31.22,-31.831 162.17,-51.126 207.43,-51.662 11.74,5.503 31.11,24.377 37.38,35.242 -5.94,-0.933 -8.05,-1.282 -14.26,-1.074 l -1.18,-1.51 c -18.35,-1.536 -90.8,-5.418 -105.19,2.256 l -3.61,-0.144 c 0.72,1.947 8.89,8.479 11.66,11.174 -8.6,-3.643 -16.11,-7.165 -25.35,-9.028 -42.52,-12.867 -78.45,16.419 -114.22,23.814 z"
       id="path63"
       style="display:block;fill:url(#linearGradient144);stroke:url(#linearGradient145)" />
    <path
       fill="#308ec0"
       d="m 1310.99,590.035 c 11.74,5.503 31.11,24.377 37.38,35.242 -5.94,-0.933 -8.05,-1.282 -14.26,-1.074 l -1.18,-1.51 c -7.58,-10.722 -16.67,-20.617 -24.04,-31.163 z"
       id="path64"
       style="display:block" />
    <path
       fill="#85929b"
       d="m 1096.22,650.765 c 35.77,-7.395 71.7,-36.681 114.22,-23.814 -9.65,1.609 -26.26,4.263 -35.03,7.195 -23.03,7.699 -64.48,27.738 -83.37,42.871 -6.08,1.213 -10.7,1.072 -16.75,0.79 6.44,-6.859 14.82,-19.119 20.93,-27.042 z"
       id="path65"
       style="display:block" />
    <path
       fill="#000000"
       d="m 1162.71,728.562 c -9.36,-18.521 -4.21,-41.085 12.26,-53.705 16.48,-12.62 39.61,-11.717 55.05,2.148 15.44,13.866 18.82,36.763 8.04,54.498 -8.13,13.387 -22.89,21.31 -38.54,20.699 -15.65,-0.611 -29.74,-9.66 -36.81,-23.64 z"
       id="path66"
       style="display:block" />
    <path
       fill="#fefefe"
       d="m 1186.44,683.405 c 6.66,-2.715 14.27,0.468 17.02,7.12 2.74,6.653 -0.41,14.273 -7.05,17.048 -6.68,2.794 -14.36,-0.379 -17.12,-7.074 -2.77,-6.696 0.44,-14.361 7.15,-17.094 z"
       id="path67"
       style="display:block" />
    <path
       fill="#b8dae8"
       d="m 1142.96,876.339 c 45.31,-45.469 86.19,-28.41 127.28,-99.347 11.12,13.641 23.4,25.982 38.97,34.538 12.25,5.251 21.74,9.352 34.57,12.795 -39.41,36.447 -51.02,71.917 -62.35,122.606 -11.62,0.169 -30.56,0.863 -41.65,-0.808 -11.92,-0.621 -12.95,-0.493 -20.74,8.604 -24.17,-8.058 -62.61,-26.932 -83.49,-40.94 4.9,-20.355 9.27,-27.081 23.49,-42.255 z"
       id="path68"
       style="display:block" />
    <path
       fill="#85929b"
       d="m 1309.21,811.53 c 12.25,5.251 21.74,9.352 34.57,12.795 -39.41,36.447 -51.02,71.917 -62.35,122.606 -11.62,0.169 -30.56,0.863 -41.65,-0.808 0.4,-27.755 3.26,-41.342 9.34,-67.618 -9.04,6.941 -19.06,18.126 -27.31,26.517 20.02,-47.675 38.3,-72.175 87.4,-93.492 z"
       id="path69"
       style="display:block" />
    <path
       fill="#284566"
       d="m 1058.97,758.053 c 3.6,7.983 6,16.025 9.8,23.945 18.03,37.563 55.83,59.81 97.26,54.813 -38.67,23.839 -86.68,-5.81 -95.76,-1.859 l -4.63,-4.798 c -2.87,-22.215 -6.64,-49.996 -6.67,-72.101 z"
       id="path70"
       style="display:block" />
    <path
       fill="#b8dae8"
       d="m 1146.11,723.035 1.52,-1.666 c 4.64,1.811 12,6.408 15.08,7.193 7.07,13.98 21.16,23.029 36.81,23.64 15.65,0.611 30.41,-7.312 38.54,-20.699 l 5.16,0.29 0.95,1.298 -0.67,1.955 c 2.22,3.631 2.35,9.299 2.87,13.762 l -3.79,6.24 c -2.71,-0.754 -8.46,0.161 -12.53,-0.382 -3.8,2.459 -6.54,4.152 -10.83,5.747 -14.03,5.132 -29.54,4.396 -43.02,-2.044 -14.82,-7.089 -24.78,-20.079 -30.09,-35.334 z"
       id="path71"
       style="display:block" />
    <path
       fill="#1d3b5b"
       d="m 1243.5,735.046 c 2.22,3.631 2.35,9.299 2.87,13.762 l -3.79,6.24 c -2.71,-0.754 -8.46,0.161 -12.53,-0.382 7.48,-7.478 9.13,-10.47 13.45,-19.62 z"
       id="path72"
       style="display:block" />
    <path
       fill="#2b5c88"
       d="m 849.169,916.336 c 47.582,-14.374 78.735,-13.541 123.881,8.447 9.583,4.626 17.681,9.623 26.656,15.291 3.114,1.356 3.764,1.268 5.624,4.099 9.33,14.429 18.73,26.949 20.89,44.702 10.25,83.985 -72.46,169.615 -149.771,186.545 13.838,-30.75 14,-34.07 40.508,-54.63 18.865,-14.63 44.042,-49.45 53.336,-71.51 -12.992,14.48 -24.749,29.98 -40.36,42.06 -27.66,22.42 -55.796,46.12 -93.533,46.07 -5.2,0 -8.857,-5.05 -5.974,-9.8 4.376,-6.78 12.095,-12.63 18.401,-17.55 24.605,-25.59 28.632,-26.48 47.81,-60.2 -9.254,9.23 -35.888,35.45 -46.609,41.68 -20.897,15.69 -50.142,35.58 -78.604,35.38 -1.881,-0.01 -3.505,-1.09 -4.99,-2.14 -7.421,-11.63 11.129,-26.82 19.259,-32.45 1.029,-1.54 16.05,-15.18 18.427,-17.42 9.249,-8.73 13.234,-13.72 20.667,-24.12 -11.334,9.14 -36.287,28.07 -49.569,33.68 -9.84,5.49 -34.836,19.79 -45.579,13.05 -9.791,-12.76 17.382,-47.48 25.205,-58.28 l 0.302,-2.03 c -4.084,-0.97 -38.337,20.89 -44.244,24.45 -6.725,4.91 -13.396,9.89 -20.014,14.94 21.772,-47.27 62.366,-94.398 100.768,-128.896 13.509,-12.136 31.713,-21.013 44.325,-34.082 4.994,5.327 5.668,5.102 13.188,2.714 z"
       id="path73"
       style="display:block" />
    <path
       fill="#888b8d"
       d="m 849.169,916.336 c 47.582,-14.374 78.735,-13.541 123.881,8.447 9.583,4.626 17.681,9.623 26.656,15.291 -11.965,18.58 -23.792,36.865 -41.953,50.137 -19.664,14.369 -42.975,26.479 -66.897,31.629 l -1.189,0.25 c 7.515,-11.41 13.749,-20.7 18.963,-33.477 -24.873,20.567 -46.448,37.847 -79.848,43.447 5.054,-8.06 11.532,-17.81 15.971,-26.06 -23.425,13.57 -47.004,26.59 -74.243,30.63 -4.373,0.65 -11.291,1.78 -15.364,0.58 -4.084,-0.97 -38.337,20.89 -44.244,24.45 -6.725,4.91 -13.396,9.89 -20.014,14.94 21.772,-47.27 62.366,-94.398 100.768,-128.896 13.509,-12.136 31.713,-21.013 44.325,-34.082 4.994,5.327 5.668,5.102 13.188,2.714 z"
       id="path74"
       style="display:block" />
    <path
       fill="#bdc1c2"
       d="m 849.169,916.336 c 47.582,-14.374 78.735,-13.541 123.881,8.447 -0.547,-0.036 -1.094,-0.073 -1.641,-0.11 -64.575,-18.28 -129.167,7.56 -179.273,48.172 -6.512,5.278 -22.204,20.102 -27.724,25.981 -7.881,8.394 -52.971,56.074 -53.51,62.834 -6.725,4.91 -13.396,9.89 -20.014,14.94 21.772,-47.27 62.366,-94.398 100.768,-128.896 13.509,-12.136 31.713,-21.013 44.325,-34.082 4.994,5.327 5.668,5.102 13.188,2.714 z"
       id="path75"
       style="display:block" />
    <path
       fill="#79c2df"
       d="m 848.827,1110.06 c -0.492,4.91 -3.1,8.37 -0.863,12.97 5.78,3.97 11.857,1.52 18.286,-0.51 8.172,-2.51 16.121,-5.69 23.764,-9.51 8.821,-4.51 33.002,-21.37 39.919,-21.67 -27.66,22.42 -55.796,46.12 -93.533,46.07 -5.2,0 -8.857,-5.05 -5.974,-9.8 4.376,-6.78 12.095,-12.63 18.401,-17.55 z"
       id="path76"
       style="display:block" />
    <path
       fill="#79c2df"
       d="m 785.693,1092.33 c -0.26,3.55 -6.939,18.33 -2.162,20.06 17.821,6.45 54.187,-19.85 66.497,-20.85 -20.897,15.69 -50.142,35.58 -78.604,35.38 -1.881,-0.01 -3.505,-1.09 -4.99,-2.14 -7.421,-11.63 11.129,-26.82 19.259,-32.45 z"
       id="path77"
       style="display:block" />
    <path
       fill="#79c2df"
       d="m 754.844,1039.24 c 0.007,10.33 -17.196,31.09 -12.056,45.38 8.469,8.54 22.216,-1.61 32.43,-0.15 -9.84,5.49 -34.836,19.79 -45.579,13.05 -9.791,-12.76 17.382,-47.48 25.205,-58.28 z"
       id="path78"
       style="display:block" />
    <path
       fill="#f38f1d"
       d="m 1194.91,352.431 -1.77,-1.956 c 18.46,-13.88 80.19,32.562 99.88,40.559 20.73,8.422 44.33,24.216 66.48,31.465 -1.9,-6.966 -31.54,-35.914 -38.47,-43.164 -5.11,-5.105 -9.03,-9.283 -13.78,-14.729 12.32,6.349 27.56,17.15 39.9,24.801 19.9,12.128 40.13,23.685 60.69,34.656 23.57,12.571 47.5,24.477 71.74,35.707 10.9,5.104 30.12,13.275 40.02,18.817 -14.04,-1.681 -27.37,-3.572 -41.54,-4.297 -52.04,-2.661 -110.36,7.881 -160.3,22.457 -46.66,10.314 -93.08,21.682 -139.23,34.093 -31.71,8.711 -69.07,18.358 -97.41,36.873 -14.94,9.763 -30.32,25.947 -44.82,35.601 -14.13,9.406 -46.244,-8.423 -60.804,-13.427 -2.281,-0.784 -2.897,-2.62 -3.451,-4.834 0.321,-0.682 1.222,-2.713 1.59,-3.265 4.659,-10.512 13.251,-25.656 22.426,-32.826 10.429,-8.149 25.889,-12.144 38.219,-16.753 16.28,-6.086 98.28,-33.4 106.19,-45.866 2.56,-4.037 1.94,-7.32 1.23,-11.787 -14.48,-18.079 -85.4,-51.893 -90.5,-61.064 l 1.59,-1.107 c 11.24,-4.353 33.35,-13.592 44.15,-15.159 44.41,15.737 89.86,30.251 135.67,41.489 34.19,8.391 64.71,9.522 99.56,7.045 -13.44,-8.521 -47.91,-6.567 -61.74,-15.055 -5.66,-3.477 -20.18,-20.996 -25.51,-26.673 -15.43,-16.374 -31.07,-32.555 -46.9,-48.537 z"
       id="path79"
       style="display:block" />
    <path
       fill="#d75925"
       d="m 1141.7,474.556 c -14.48,-18.079 -85.4,-51.893 -90.5,-61.064 l 1.59,-1.107 3.09,1.65 c 9.38,5.041 35.27,13.886 46.3,17.978 59.85,22.85 121.18,41.659 183.55,56.302 6.12,1.464 23.04,6.412 27.94,5.432 l 4.09,3 c -46.66,10.314 -93.08,21.682 -139.23,34.093 -31.71,8.711 -69.07,18.358 -97.41,36.873 -14.94,9.763 -30.32,25.947 -44.82,35.601 -14.13,9.406 -46.244,-8.423 -60.804,-13.427 -2.281,-0.784 -2.897,-2.62 -3.451,-4.834 0.321,-0.682 1.222,-2.713 1.59,-3.265 4.659,-10.512 13.251,-25.656 22.426,-32.826 10.429,-8.149 25.889,-12.144 38.219,-16.753 16.28,-6.086 98.28,-33.4 106.19,-45.866 2.56,-4.037 1.94,-7.32 1.23,-11.787 z"
       id="path80"
       style="display:block" />
    <path
       fill="#f9ce94"
       d="m 1141.7,474.556 c 3.2,-0.733 1.62,-0.886 4.82,1.002 13.69,21.745 -33.98,35.125 -47.02,39.552 -21.52,7.261 -42.88,14.985 -64.07,23.169 -9.28,3.508 -25.59,9.13 -33.57,14.184 -3.908,2.436 -7.493,5.36 -10.664,8.703 -4.005,4.213 -14.632,21.05 -17.561,20.622 4.659,-10.512 13.251,-25.656 22.426,-32.826 10.429,-8.149 25.889,-12.144 38.219,-16.753 16.28,-6.086 98.28,-33.4 106.19,-45.866 2.56,-4.037 1.94,-7.32 1.23,-11.787 z"
       id="path81"
       style="display:block" />
    <path
       fill="#f9ce94"
       d="m 1307.25,364.606 c 12.32,6.349 27.56,17.15 39.9,24.801 19.9,12.128 40.13,23.685 60.69,34.656 23.57,12.571 47.5,24.477 71.74,35.707 10.9,5.104 30.12,13.275 40.02,18.817 -14.04,-1.681 -27.37,-3.572 -41.54,-4.297 -52.04,-2.661 -110.36,7.881 -160.3,22.457 l -4.09,-3 c 6.61,-3.351 21.54,-7.97 28.86,-10.226 37.55,-11.585 84.31,-21.281 123.74,-17.275 -43.16,-21.178 -82.69,-41.794 -120.65,-72.243 -6.21,-4.974 -16.69,-14.478 -24.59,-14.668 -5.11,-5.105 -9.03,-9.283 -13.78,-14.729 z"
       id="path82"
       style="display:block" />
    <path
       fill="#d75925"
       d="m 1198.02,355.495 c 9.99,1.225 67.59,44.132 82.59,50.859 12.03,5.396 52.05,28.891 57.43,38.643 -1.34,0.185 -4.71,0.743 -5.87,0.763 -13.44,-8.521 -47.91,-6.567 -61.74,-15.055 -5.66,-3.477 -20.18,-20.996 -25.51,-26.673 -15.43,-16.374 -31.07,-32.555 -46.9,-48.537 z"
       id="path83"
       style="display:block" />
    <path
       fill="#f9ce94"
       d="m 1052.79,412.385 c 11.24,-4.353 33.35,-13.592 44.15,-15.159 44.41,15.737 89.86,30.251 135.67,41.489 34.19,8.391 64.71,9.522 99.56,7.045 1.16,-0.02 4.53,-0.578 5.87,-0.763 0.74,-0.175 2.89,-0.365 3.73,-0.459 l -0.33,1.01 c -7.66,3.606 -18.96,5.611 -27.39,6.913 -63.29,9.774 -121.64,-17.822 -180.62,-35.635 -11.55,-3.492 -29.1,-10.889 -40.54,-11.567 -7.07,-0.42 -30.11,5.889 -37.01,8.776 z"
       id="path84"
       style="display:block" />
    <path
       fill="#f9ce94"
       d="m 1194.91,352.431 -1.77,-1.956 c 18.46,-13.88 80.19,32.562 99.88,40.559 20.73,8.422 44.33,24.216 66.48,31.465 2.75,2.034 14.67,7.422 18.14,9.03 -46.36,-9.198 -90.23,-38.817 -132.53,-59.412 -22.54,-10.976 -21.99,-20.098 -50.2,-19.686 z"
       id="path85"
       style="display:block" />
    <path
       fill="#296ba0"
       d="m 597.84,1337.85 c 6.357,7.66 33.021,-4.61 39.879,-1.77 -31.308,48.12 -63.356,95.76 -96.133,142.89 -12.352,17.69 -31.625,46.36 -44.884,62.91 -5.305,9.61 -13.044,19.62 -19.526,28.53 -22.809,31.39 -51.926,64.81 -90.021,76.99 -10.697,3.42 -31.095,5.72 -32.103,-10.2 l -0.079,-1.76 c -2.07,-48.73 70.518,-120.82 102.656,-156.22 42.374,-46.89 85.219,-93.35 128.528,-139.38 2.924,0.08 8.141,-2.47 11.762,-3.57 z"
       id="path86"
       style="display:block" />
    <path
       fill="#2b5c88"
       d="m 412.642,1552.81 c 2.451,5.24 -4.102,22.34 0.359,30.01 20.913,35.97 66.63,-32.89 83.701,-40.94 -5.305,9.61 -13.044,19.62 -19.526,28.53 -22.809,31.39 -51.926,64.81 -90.021,76.99 -10.697,3.42 -31.095,5.72 -32.103,-10.2 2.233,-3.22 4.823,-9.21 6.7,-12.81 13.601,-26.11 32.25,-48.91 50.89,-71.58 z"
       id="path87"
       style="display:block" />
    <path
       fill="#79c2df"
       d="m 586.157,1339.84 c 2.924,0.08 8.141,-2.47 11.762,-3.57 l -0.079,1.58 c -44.096,57.35 -95.491,110.71 -142.412,165.84 -13.04,15.32 -30.731,33.37 -42.786,49.12 -18.64,22.67 -37.289,45.47 -50.89,71.58 -1.877,3.6 -4.467,9.59 -6.7,12.81 l -0.079,-1.76 c -2.07,-48.73 70.518,-120.82 102.656,-156.22 42.374,-46.89 85.219,-93.35 128.528,-139.38 z"
       id="path88"
       style="display:block" />
    <path
       fill="#296ba0"
       d="m 586.135,1220.26 c 10.255,-15.92 17.985,-29.8 29.486,-45.62 29.901,-41.13 59.337,-68.19 99.294,-98.63 -2.243,5.14 -3.439,9.23 -5.062,14.53 0.145,40.73 27.618,18.29 38.59,26.01 -2.784,13.76 -1.887,24.19 14.817,26.9 14.963,2.43 31.091,-1.67 44.948,-7.28 2.735,8.6 3.956,12.64 12.24,17.04 -51.095,28.79 -102.349,57.3 -153.758,85.53 -35.444,19.6 -75.686,42.91 -111.982,59.98 -3.674,2.56 -5.392,3.38 -9.464,5.37 15.513,-34.81 16.217,-38.51 43.594,-65.75 39.407,-39.19 80.534,-70.32 126.893,-100.74 3.313,-2.67 6.678,-5.28 10.093,-7.81 -23.921,9.39 -46.736,21.77 -68.508,35.38 -8.071,5.04 -25.517,17.73 -32.772,21.15 -8.146,8.92 -28.445,25.43 -38.409,33.94 z"
       id="path89"
       style="display:block" />
    <path
       fill="#79c2df"
       d="m 715.731,1137.6 0.224,1.51 c -5.056,4.66 -10.426,8.22 -15.591,12.63 -43.217,36.98 -87.174,73.38 -123.755,117.22 -6.776,8.12 -18.044,20.29 -21.901,29.76 -3.674,2.56 -5.392,3.38 -9.464,5.37 15.513,-34.81 16.217,-38.51 43.594,-65.75 39.407,-39.19 80.534,-70.32 126.893,-100.74 z"
       id="path90"
       style="display:block" />
    <path
       fill="#79c2df"
       d="m 586.135,1220.26 c 10.255,-15.92 17.985,-29.8 29.486,-45.62 29.901,-41.13 59.337,-68.19 99.294,-98.63 -2.243,5.14 -3.439,9.23 -5.062,14.53 -15.9,12.24 -78.479,78.32 -85.309,95.78 -8.146,8.92 -28.445,25.43 -38.409,33.94 z"
       id="path91"
       style="display:block" />
    <path
       fill="#fefefe"
       d="m 957.523,1358.43 c 0.691,0.11 1.383,0.23 2.075,0.34 2.704,5.26 13.659,19.09 18.692,22.08 13.515,8.01 31.95,15.52 46.36,22.31 22.58,10.86 45.03,21.99 67.34,33.39 -18.18,10.96 -21.63,16.31 -24.25,37.21 -20.85,7.72 -44.48,15.16 -65.72,22.49 -32.195,9.44 -34.452,7.16 -66.306,-5.25 -9.896,-12.22 -26.865,-42.62 -35.61,-56.87 -8.605,-14.02 -19.471,-30.94 -27.507,-44.88 13.065,-8.38 21.696,-16.76 32.26,-27.97 19.489,0.23 33.295,-1.03 52.666,-2.85 z"
       id="path92"
       inkscape:label="path92 white"
       style="display:none" />
    <path
       id="path92-8"
       style="display:inline;fill:url(#linearGradient19)"
       inkscape:label="path92 white new"
       d="m 957.52344,1358.4297 c -19.371,1.82 -33.17897,3.0816 -52.66797,2.8515 -10.564,11.21 -19.19281,19.5888 -32.25781,27.9688 8.036,13.94 18.90281,30.8589 27.50781,44.8789 8.745,14.25 25.71337,44.6511 35.60937,56.8711 31.854,12.41 34.10969,14.69 66.30466,5.25 21.24,-7.33 44.8688,-14.7683 65.7188,-22.4883 2.62,-20.9 6.07,-26.2509 24.25,-37.2109 -22.31,-11.4 -44.7599,-22.5306 -67.3399,-33.3906 -14.41,-6.79 -32.84434,-14.2986 -46.35934,-22.3086 -5.033,-2.99 -15.9874,-16.8221 -18.6914,-22.0821 -0.692,-0.11 -1.38322,-0.2298 -2.07422,-0.3398 z m -9.60156,21.0508 c 1.77999,0.5 16.93253,18.0303 23.26953,21.3203 27.683,14.35 57.33889,25.3286 84.37889,40.8086 -2.75,5.25 -4.7708,11.4017 -6.8008,17.0117 -15.34,4.95 -30.6086,10.1178 -45.8086,15.5078 -28.46096,8.96 -27.65128,9.6006 -55.57028,-1.1094 -14.061,-23.47 -35.83546,-56.4403 -47.10546,-79.5703 l 10.38672,-10.3906 c 12.28099,-0.53 25.064,-2.0381 37.25,-3.5781 z" />
    <path
       fill="#888b8d"
       d="m 947.923,1379.48 c 1.78,0.5 16.93,18.03 23.267,21.32 27.683,14.35 57.34,25.33 84.38,40.81 -2.75,5.25 -4.77,11.4 -6.8,17.01 -15.34,4.95 -30.61,10.12 -45.81,15.51 -28.461,8.96 -27.652,9.6 -55.571,-1.11 -14.061,-23.47 -35.835,-56.44 -47.105,-79.57 l 10.387,-10.39 c 12.281,-0.53 25.066,-2.04 37.252,-3.58 z"
       id="path93"
       style="display:none;fill-rule:nonzero"
       inkscape:label="path93 grey" />
    <path
       fill="url(#Gradient6)"
       d="m 946.339,664.06 c 8.401,-0.376 9.676,1.115 15.044,7.52 10.049,11.993 16.248,19.453 31.664,24.013 0.521,42.183 6.391,100.958 13.453,141.918 -9.552,-4.18 -19.796,-11.437 -28.577,-17.339 -19.738,-12.865 -64.75,-47.731 -79.488,-64.834 8.731,-29.526 27.146,-68.693 47.904,-91.278 z"
       id="path94"
       style="display:block" />
    <path
       fill="url(#Gradient5)"
       d="m 659.937,1377.33 c 3.007,-0.49 1.716,-0.82 4.186,0.19 -0.433,5.67 -102.446,166.39 -113.744,183.4 -4.689,7.06 -25.584,35.63 -33.228,43.19 -21.184,20.95 -34.726,30.49 -64.269,31.22 l -3.439,-0.59 -0.509,-1.48 c 2.41,-4.68 6.132,-7.31 9.706,-11.1 13.963,-14.81 25.846,-30.97 37.679,-47.53 28.628,-40.88 56.898,-82.02 84.809,-123.4 10.066,-15.1 34.113,-53.83 44.626,-65.95 8.251,-3.38 24.898,-6.17 34.183,-7.95 z"
       id="path95"
       style="display:block" />
    <path
       fill="#5f6b73"
       d="m 839.616,1402.38 16.375,-5.39 c 6.329,7.56 14.242,21.42 19.269,30.27 7.229,11.46 44.616,74.26 51.618,77.41 42.53,19.15 109.002,20.28 104.082,85.14 0.03,4.62 -2.97,14.67 -6.49,17.74 l -1.65,-0.49 c -3.21,-5.36 -1.47,-14.64 -2.52,-21.71 -0.99,-6.79 -3.13,-13.36 -6.32,-19.43 -10.35,-19.75 -25.605,-27.14 -45.726,-33.46 22.019,20.08 55.736,54.77 21.452,81.55 1.608,-43.77 -11.536,-62.67 -50.06,-81.46 4.925,6.36 10.03,11.74 14.681,18.48 11.421,14.62 21.576,35.47 19.218,54.44 -0.152,1.2 -0.328,2.4 -0.528,3.59 0.805,21.15 -15.069,27.51 -32.545,29.65 1.573,-1.04 3.13,-2.11 4.67,-3.2 24.247,-17.26 6.273,-59.53 -7.63,-78.1 -16.39,-21.9 -42.415,-31.95 -69.126,-25.04 -2.583,0.66 -17.044,4.6 -18.827,4.33 1.972,-26.4 41.212,-19.28 48.424,-22.78 14.221,-6.91 -15.346,-46.02 -21.988,-56.07 z"
       id="path96"
       style="display:block" />
    <path
       fill="#85929b"
       d="m 922.192,1512.89 c -8.199,-8.13 -50.216,-75.05 -46.932,-85.63 7.229,11.46 44.616,74.26 51.618,77.41 42.53,19.15 109.002,20.28 104.082,85.14 l -2.18,-1.1 -0.23,-1.31 c -9.45,-50.68 -62.796,-64.76 -106.358,-74.51 z"
       id="path97"
       style="display:block" />
    <path
       fill="#85929b"
       d="m 954.327,1551.03 c 11.421,14.62 21.576,35.47 19.218,54.44 -0.152,1.2 -0.328,2.4 -0.528,3.59 -0.548,-0.41 -2.326,-1.75 -2.738,-3 -5.71,-17.32 -10.321,-34.91 -16.819,-52.09 0.289,-0.98 0.578,-1.96 0.867,-2.94 z"
       id="path98"
       style="display:block" />
    <path
       fill="url(#Gradient4)"
       d="m 1406.32,1302.62 c -15.24,15.56 -41.51,62.71 -47.88,84.09 l 10.9,-3.22 c 23.86,-10 76.21,-24.16 101.49,-28.79 8.91,-3.32 24,-6.06 33.83,-7.97 -61.49,26.3 -120.77,57.19 -178.54,90.79 -15.25,8.88 -44.57,24.19 -58.1,33.42 -3.48,-8.01 -5.65,-12.7 -10.02,-20.2 -5.36,-6.69 -11.9,-11.78 -18.57,-17.07 45.74,-22.36 81.87,-29.66 110.26,-75.36 12.65,-20.37 36.54,-42.78 56.63,-55.69 z"
       id="path99"
       style="display:block" />
    <path
       fill="#5c3e2e"
       d="m 1504.66,1346.73 c -61.49,26.3 -120.77,57.19 -178.54,90.79 -15.25,8.88 -44.57,24.19 -58.1,33.42 -3.48,-8.01 -5.65,-12.7 -10.02,-20.2 5.72,-2.08 11.98,-5.18 17.62,-7.72 24.96,-11.27 54.02,-22.56 77.14,-37.02 l -0.08,-0.93 c 4.63,-3.3 22.28,-11.53 28.26,-14.48 -7.49,-2.51 -6.63,-4.9 -11.6,-7.1 23.86,-10 76.21,-24.16 101.49,-28.79 8.91,-3.32 24,-6.06 33.83,-7.97 z"
       id="path100"
       style="display:block" />
    <path
       fill="#825b3a"
       d="m 1369.34,1383.49 c 23.86,-10 76.21,-24.16 101.49,-28.79 l -0.75,2.05 c -40.98,16.8 -76.94,28.06 -117.32,49.25 l -0.08,-0.93 c 4.63,-3.3 22.28,-11.53 28.26,-14.48 -7.49,-2.51 -6.63,-4.9 -11.6,-7.1 z"
       id="path101"
       style="display:block" />
    <path
       fill="#5f6b73"
       d="m 1375.95,696.539 c 44.32,8.039 91.54,18.105 128.82,44.826 3.23,2.313 13.81,10.549 14.75,13.982 -1.81,0.146 -1.64,0.218 -3.42,-0.008 -59.97,-5.244 -112.35,8.305 -171.53,5.321 -17.85,-0.9 -37.44,-5.199 -54.77,-9.858 35.2,-7.469 52.91,-20.934 77.94,-46.207 z"
       id="path102"
       style="display:block" />
    <path
       fill="#b8dae8"
       d="m 1375.95,696.539 c 44.32,8.039 91.54,18.105 128.82,44.826 3.23,2.313 13.81,10.549 14.75,13.982 -1.81,0.146 -1.64,0.218 -3.42,-0.008 -56.03,-33.955 -89.31,-36.488 -148.36,-50.744 z"
       id="path103"
       style="display:block" />
    <path
       fill="#000000"
       d="m 1374.13,717.076 c 7.63,-0.039 18.24,2.136 20.98,10.284 l -1.14,2.001 c -3.69,2.095 -7.77,1.338 -12.22,1.175 -7.06,-0.371 -17.15,1.628 -21.86,-1.821 l 0.29,-2.003 c 4.33,-5.582 7.39,-6.925 13.95,-9.636 z"
       id="path104"
       style="display:block" />
    <path
       fill="#5f6b73"
       d="m 1035.46,1376.16 c 8.58,3.81 28.22,12.36 35.61,17.18 26.83,11.83 51.88,26.85 78.59,38.5 6.9,3.01 24.76,0.34 33.18,1.09 38,3.4 74.76,21.94 67.91,66.1 -0.75,8.68 -5.03,11.78 -11.3,16.78 0.25,-1.19 0.49,-2.37 0.72,-3.56 6.92,-36.62 -11.96,-62.79 -48.42,-69.16 2.54,9.41 60.25,28.68 25.15,80.72 0.43,-41.33 -6.83,-63.46 -52.03,-73.48 24.86,18.23 43.28,38.42 36.74,72.32 -3.13,16.2 -16.58,24.15 -32.46,19.99 l 0.17,-1.05 c 4.85,-2.03 13.06,-6.56 14.65,-11.38 9.04,-27.49 -8.81,-57.79 -33.95,-68.54 -26.69,-11.42 -42.07,-1.28 -65.26,7.26 8.99,-26.35 32.22,-15.38 34.79,-29.73 -3.93,-11.04 -29.79,-22.33 -40.38,-27.75 -19.14,-9.8 -38.35,-19.46 -57.63,-28.98 4.62,-1.97 9.34,-4.22 13.92,-6.31 z"
       id="path105"
       style="display:block" />
    <path
       fill="#85929b"
       d="m 1071.07,1393.34 c 26.83,11.83 51.88,26.85 78.59,38.5 6.9,3.01 24.76,0.34 33.18,1.09 38,3.4 74.76,21.94 67.91,66.1 -0.75,8.68 -5.03,11.78 -11.3,16.78 0.25,-1.19 0.49,-2.37 0.72,-3.56 6.92,-36.62 -11.96,-62.79 -48.42,-69.16 l -0.1,-1.04 c -12.76,-2.58 -29.41,-1.17 -40.19,-2.39 -11.74,-1.34 -78.4,-38.05 -80.39,-46.32 z"
       id="path106"
       style="display:block"
       inkscape:label="path106" />
    <path
       fill="url(#Gradient3)"
       d="m 1191.65,1442.05 c 7.55,-8.05 33.09,7.63 39.63,14.21 6.83,7.02 11.94,15.53 14.89,24.87 2.44,7.83 0.72,13.77 4.58,17.9 -0.75,8.68 -5.03,11.78 -11.3,16.78 0.25,-1.19 0.49,-2.37 0.72,-3.56 6.92,-36.62 -11.96,-62.79 -48.42,-69.16 z"
       id="path107"
       style="display:block" />
    <path
       fill="url(#Gradient2)"
       d="m 864.067,1152.26 1.523,-0.06 c -0.011,3.36 -4.188,8.91 -5.883,13.15 -2.809,7.02 -4.597,13.05 -6.69,20.31 0.766,3.41 0.903,2.69 3.561,5.69 -8.935,6.78 -23.503,13.6 -33.75,18.69 -40.303,20.01 -82.46,35.6 -125.261,49.34 -22.787,7.32 -46.719,15.45 -70.032,20.75 -2.389,0.75 -4.067,1.52 -6.55,1.29 21.132,-13.22 48.199,-27.33 70.317,-39.35 l 73.719,-40.89 c 26.134,-14.35 52.401,-30.12 78.845,-43.83 3.344,-1.73 15.816,-4.18 20.201,-5.09 z"
       id="path108"
       style="display:block" />
    <path
       fill="#5f8748"
       d="m 850.198,1707.32 c 18.596,-2.46 43.683,4.22 60.214,12.45 -16.326,21.55 -38.795,37.94 -64.849,45.33 -21.125,5 -39.134,-1.45 -58.702,-8.53 4.727,-6.99 9.604,-13.87 14.627,-20.65 14.189,-18.82 25.563,-25.33 48.71,-28.6 z"
       id="path109"
       style="display:block" />
    <path
       fill="#5f6b73"
       d="m 1280.75,762.727 c 5.23,0.933 11.55,2.896 16.72,4.374 63.35,18.123 129.58,2.954 194.12,1.273 -7.77,4.756 -13.02,7.295 -21.34,11.174 -33.27,16.014 -75.78,28.752 -113.09,26.397 -33.68,-2.126 -55.28,-18.601 -76.41,-43.218 z"
       id="path110"
       style="display:block" />
    <path
       fill="#769a48"
       d="m 710.106,1484.54 c 3.888,2.56 9.216,9.33 12.203,13.1 25.78,32.57 25.158,73.98 -8.402,100.26 l -7.203,5.74 c -33.174,-44.46 -21.598,-74.19 3.402,-119.1 z"
       id="path111"
       style="display:block" />
    <path
       fill="#f16325"
       d="m 1081.83,897.715 c 49.48,36.035 75.87,50.748 132.99,74.429 -2.14,9.47 -2.84,16.371 -6.68,25.36 l -7.41,-2.951 c -37.05,-13.612 -109.85,-51.283 -139.02,-77.903 7.47,-6.285 13.25,-12.079 20.12,-18.935 z"
       id="path112"
       style="display:block" />
    <path
       fill="#5f8748"
       d="m 1408.94,1476.25 c 50.66,-4.92 76.49,18.1 90.62,66.2 0.45,1.51 0.05,1.51 -0.8,2.73 l -2.19,0.8 c -4.88,-0.6 -13.17,-0.34 -18.25,-0.39 -38.22,-0.36 -62.62,-20.65 -75.58,-55.73 14.09,3.93 52.61,25.36 60.07,25.6 -19.88,-18.29 -29.31,-26.85 -53.87,-39.21 z"
       id="path113"
       style="display:block" />
    <path
       fill="url(#Gradient1)"
       d="m 1408.94,1476.25 c 50.66,-4.92 76.49,18.1 90.62,66.2 0.45,1.51 0.05,1.51 -0.8,2.73 l -2.19,0.8 c -5.43,-8.7 -10.04,-17.56 -15.72,-26.13 l 1.36,2.59 c -1.61,1.88 -0.95,1.23 -3.33,2.4 -4.49,-0.62 -11.76,-6.47 -16.07,-9.38 -19.88,-18.29 -29.31,-26.85 -53.87,-39.21 z"
       id="path114"
       style="display:block" />
    <path
       fill="#f16325"
       d="m 1009.91,697.135 c 11,-0.04 18.53,-0.182 29.58,-1.28 l -0.41,19.123 c 1.24,34.18 4.2,79.665 9.58,113.899 -11.41,2.826 -14.8,4.954 -24.85,11.304 -4.98,-35.999 -12.97,-88.305 -12.91,-124.022 z"
       id="path115"
       style="display:block" />
    <path
       fill="#d75925"
       d="m 1009.91,697.135 c 11,-0.04 18.53,-0.182 29.58,-1.28 l -0.41,19.123 c -7.99,0.417 -20.66,1.515 -28.18,1.181 z"
       id="path116"
       style="display:block" />
    <path
       fill="#5c3e2e"
       d="m 1104.29,1482.45 c 35.23,-15.05 57.54,-6.39 64.18,33.35 -24.92,11.92 -50.05,23.42 -75.37,34.48 -14.58,6.5 -30.84,14.34 -45.51,19.95 -2.18,-6.56 -4.47,-14.01 -6.82,-20.43 37.49,-11.44 73.7,-29.07 104.04,-54.06 -3.66,1.18 -8.13,2.46 -11.56,4.05 -2.65,-4.44 -5.2,-8.84 -9.93,-11.27 -7.47,-1.98 -11.84,-3.29 -19.03,-6.07 z"
       id="path117"
       style="display:block" />
    <path
       fill="#5f6b73"
       d="m 1054.13,842.094 c 8.71,0.855 19.33,31.049 21.98,38.608 l -0.25,0.378 c -6.88,10.68 -21.82,26.87 -34.1,31.248 -6.22,2.218 -9.72,0.059 -15.15,-2.823 -7.81,-4.546 -23.69,-12.457 -27.894,-19.781 -1.81,-16.954 39.914,-44.191 55.414,-47.63 z"
       id="path118"
       style="display:block" />
    <path
       fill="#d75925"
       d="m 1045.7,863.612 c 19.46,13.066 5.48,36.612 -10.06,31.279 -6.58,-3.318 -9.37,-5.063 -15.44,-9.285 6.17,-6.159 18.61,-17.154 25.5,-21.994 z"
       id="path119"
       style="display:block" />
    <path
       fill="#f16325"
       d="m 899.969,780.26 c 22.493,20.79 46.744,39.594 72.48,56.203 10.237,6.648 23.013,13.231 32.461,19.769 -7.146,6.657 -11.725,12.178 -18.259,18.902 C 943.536,848.05 923.31,834.31 884.804,801.92 c 2.58,-15 4.35,-11.596 15.165,-21.66 z"
       id="path120"
       style="display:block" />
    <path
       fill="#5f6b73"
       d="m 1233.43,968.498 c 1.38,-3.711 0.83,-4.204 3.49,-6.086 18.01,0.858 35.23,1.253 53.24,0.53 4.57,-0.184 4.84,3.318 5.42,6.87 -0.04,0.792 -0.08,1.583 -0.12,2.375 -2.99,50.253 -33.78,46.773 -73.26,42.393 1.6,-10.97 8.34,-34.717 11.23,-46.082 z"
       id="path121"
       style="display:block" />
    <path
       fill="#85929b"
       d="m 1233.43,968.498 c 1.38,-3.711 0.83,-4.204 3.49,-6.086 18.01,0.858 35.23,1.253 53.24,0.53 4.57,-0.184 4.84,3.318 5.42,6.87 -15.66,2.751 -47.79,4.413 -62.15,-1.314 z"
       id="path122"
       style="display:block" />
    <path
       fill="#d75925"
       d="m 1248.67,980.228 c 8.53,-0.17 15.49,0.333 24.04,0.937 -0.99,9.424 -2.75,16.918 -4.92,26.125 -9.46,0.49 -14.38,0.12 -23.97,-0.67 0.72,-9.3 2.82,-17.317 4.85,-26.392 z"
       id="path123"
       style="display:block" />
    <path
       fill="#825b3a"
       d="m 1104.29,1482.45 c 7.19,2.78 11.56,4.09 19.03,6.07 4.73,2.43 7.28,6.83 9.93,11.27 -32.58,13.2 -65.66,28.32 -98.62,39.68 -5.22,-7.21 -8.36,-9.62 -15.16,-15.42 -4.34,-2.85 -10.21,-5.65 -14.91,-8.08 33.47,-10.47 66.72,-21.65 99.73,-33.52 z"
       id="path124"
       style="display:block" />
    <path
       fill="#c59a70"
       d="m 1104.29,1482.45 c 7.19,2.78 11.56,4.09 19.03,6.07 -18.48,8.6 -83.75,31.43 -103.85,35.53 -4.34,-2.85 -10.21,-5.65 -14.91,-8.08 33.47,-10.47 66.72,-21.65 99.73,-33.52 z"
       id="path125"
       style="display:block" />
    <path
       fill="#284566"
       d="m 1443.66,492.419 c 31.08,-2.102 52.15,-0.955 82.35,6.578 -16.64,8.629 -33.14,14.296 -50.77,20.43 -17,5.893 -34.57,11.475 -51.68,17.125 -4.04,-14.53 -8.16,-27.016 -13.06,-41.306 10.76,-0.675 22.36,-1.89 33.16,-2.827 z"
       id="path126"
       style="display:block" />
    <path
       fill="#769a48"
       d="m 1453.88,1222.69 c -1.24,-45.85 34.67,-78.54 76.14,-90.31 -0.81,4.23 -1.71,5.06 -4.16,8.79 -5.73,11.1 -12.42,22.33 -18.76,33.14 -16.61,22.52 -34.68,47.85 -53.05,68.83 -0.31,-6.57 -0.94,-13.98 -0.17,-20.45 z"
       id="path127"
       style="display:block" />
    <path
       fill="#9ab658"
       d="m 1453.88,1222.69 c -1.24,-45.85 34.67,-78.54 76.14,-90.31 -0.81,4.23 -1.71,5.06 -4.16,8.79 -35.24,12.79 -58.83,40.88 -68.27,75.86 -0.86,3.22 -0.63,10.63 -2.07,12.36 -1.99,-2.9 -0.38,-3.1 -1.64,-6.7 z"
       id="path128"
       style="display:block" />
    <path
       fill="#5f8748"
       d="m 1672.88,1313.12 c -1.82,3.46 -6.27,6.75 -9.17,9.44 -39.16,36.27 -74.11,41.63 -121.53,17.74 21.83,-7 43.52,-14.29 65.79,-19.75 4.24,-1.04 8.51,-1.97 12.71,-3.16 l -1.4,-1.39 c 12.76,-1.73 28.01,2.41 44.75,-2 3.01,0 5.87,-0.48 8.85,-0.88 z"
       id="path129"
       style="display:block" />
    <path
       fill="#5f8748"
       d="m 1530.02,1132.38 2.94,-0.88 c 2.64,2.33 2.57,7.65 2.8,11.24 3.28,49.47 -15.42,95.73 -67.69,107.55 8.97,-14.54 37.05,-59.93 39.03,-75.98 6.34,-10.81 13.03,-22.04 18.76,-33.14 2.45,-3.73 3.35,-4.56 4.16,-8.79 z"
       id="path130"
       style="display:block" />
    <path
       fill="#769a48"
       d="m 1545.65,1324.2 c -3.31,1.26 -2.17,1.39 -5.25,0.97 0.27,-2.64 1.44,-3.57 3.11,-5.52 21.09,-24.66 53.15,-34.86 84.67,-27.31 13.21,3.16 34.33,11.52 44.7,20.78 -2.98,0.4 -5.84,0.88 -8.85,0.88 -16.74,4.41 -31.99,0.27 -44.75,2 -28.05,0.54 -45.96,0.97 -73.63,8.2 z"
       id="path131"
       style="display:block" />
    <path
       fill="#9ab658"
       d="m 1545.65,1324.2 c -3.31,1.26 -2.17,1.39 -5.25,0.97 0.27,-2.64 1.44,-3.57 3.11,-5.52 21.09,-24.66 53.15,-34.86 84.67,-27.31 13.21,3.16 34.33,11.52 44.7,20.78 -2.98,0.4 -5.84,0.88 -8.85,0.88 -23.31,-11.51 -57.68,-19.3 -81.85,-9.02 -7.27,3.09 -33.15,12.63 -36.53,19.22 z"
       id="path132"
       style="display:block" />
    <path
       fill="#5f8748"
       d="m 1384.64,1162.15 1.25,-0.58 c 12.07,13.69 24.45,44.49 22.64,63.45 -2.09,21.92 -9.91,34.12 -23.47,50.24 -0.05,-8.3 -0.7,-59.52 -3.17,-63.98 l -0.59,-0.16 c 1.53,-11.59 3.01,-25.04 3.93,-36.67 -0.33,-5.36 0.83,-5.75 -0.59,-12.3 z"
       id="path133"
       style="display:block" />
    <path
       fill="#769a48"
       d="m 1384.64,1162.15 c 1.42,6.55 0.26,6.94 0.59,12.3 -0.92,11.63 -2.4,25.08 -3.93,36.67 -3.54,25.03 -7.81,39.85 -9.61,66.16 -5.27,-8.34 -10.86,-16.59 -13.46,-26.18 -11.69,-34.8 4.32,-63.03 26.41,-88.95 z"
       id="path134"
       style="display:block" />
    <path
       fill="#9ab658"
       d="m 1384.64,1162.15 c 1.42,6.55 0.26,6.94 0.59,12.3 -10.46,8.4 -23.7,43.03 -25.08,57 -0.61,6.22 0.64,14.25 -1.92,19.65 -11.69,-34.8 4.32,-63.03 26.41,-88.95 z"
       id="path135"
       style="display:block" />
    <path
       fill="#5f8748"
       d="m 1492.95,1420.65 c 16.6,-0.01 47.13,5.43 60.12,4.03 10.28,1.81 38.37,13.43 45.58,11.22 l 1.4,1.68 -0.62,1.22 c -41.8,20.03 -73.95,14.02 -106.48,-18.15 z"
       id="path136"
       style="display:block" />
    <path
       fill="#769a48"
       d="m 1493.25,1405.95 c 41.91,-19.17 80.42,-9.82 105.4,29.95 -7.21,2.21 -35.3,-9.41 -45.58,-11.22 -22.58,-8.55 -36.06,-13.08 -59.82,-18.73 z"
       id="path137"
       style="display:block" />
    <path
       fill="#2b5c88"
       d="m 586.157,1339.84 c 28.334,-36.92 35.565,-34.38 77.747,-45.41 -8.813,13.3 -17.437,29.04 -26.185,41.65 -6.858,-2.84 -33.522,9.43 -39.879,1.77 l 0.079,-1.58 c -3.621,1.1 -8.838,3.65 -11.762,3.57 z"
       id="path138"
       style="display:block" />
    <path
       fill="#d75925"
       d="m 871.523,752.245 c 9.11,10.451 18.204,18.869 28.446,28.015 -10.815,10.064 -12.585,6.66 -15.165,21.66 -10.547,-8.991 -17.166,-16.187 -26.167,-26.434 7.25,-8.952 8.759,-12.414 12.886,-23.241 z"
       id="path139"
       style="display:block" />
    <path
       fill="#888b8d"
       d="m 1041.14,1337.1 c -0.14,2.89 -1.64,4.41 -3.06,6.77 -9.82,16.32 -29.81,31.18 -48.217,18.45 -2.663,-2.62 -5.583,-5.87 -8.192,-8.63 21.249,-2.77 39.709,-9 59.469,-16.59 z"
       id="path140"
       style="display:block" />
    <path
       fill="#fefefe"
       d="m 1288.81,1483.51 c 0.43,20.38 -0.92,36.74 -15.98,52.61 -12.51,13.44 -29.81,17.84 -46.09,24.78 -2.68,1.14 -8.67,7.15 -11.55,9.12 -22.95,15.72 -45.84,16.14 -69.67,2.24 l -49.56,22.95 c -8.57,3.93 -23.39,10.19 -30.82,15.03 -14.39,30.48 -31.48,42.92 -66.575,40.42 -7.901,8.45 -13.837,15.84 -24.683,20.85 -25.59,11.83 -51.04,3.77 -71.459,-13.72 7.409,-3.86 13.861,-7.11 21.478,-10.52 23.538,18.31 46.933,7.67 61.906,-15.29 3.81,-1.2 21.883,-9.81 21.173,-9.86 -0.6,4.15 -1.32,4.38 0.03,7.65 9.78,2.74 25.66,-5.25 31.42,-13.26 6.31,-8.79 8.06,-13.71 9.98,-23.91 28.32,-10 71.11,-31.77 100.8,-44.1 30.96,26.54 41.19,8.7 68.16,-6.04 28.33,-15.48 45.23,-7.38 51.99,-49.43 z"
       id="path141"
       style="display:block" />
  </g>
</svg>
